<?xml version="1.0" standalone="no"?>
<!DOCTYPE svg PUBLIC "-//W3C//DTD SVG 20010904//EN"
 "http://www.w3.org/TR/2001/REC-SVG-20010904/DTD/svg10.dtd">
<svg version="1.0" xmlns="http://www.w3.org/2000/svg"
 width="1400.000000pt" height="1400.000000pt" viewBox="0 0 1400.000000 1400.000000"
 preserveAspectRatio="xMidYMid meet">
<metadata>
Created by potrace 1.16, written by Peter Selinger 2001-2019
</metadata>
<g transform="translate(0.000000,1400.000000) scale(0.100000,-0.100000)"
fill="#000000" stroke="none">
<path d="M2211 13727 c-52 -17 -105 -74 -130 -140 -32 -86 -34 -273 -4 -339
25 -55 97 -108 147 -108 45 0 127 42 163 83 37 42 48 93 47 217 0 133 -52 243
-135 285 -32 17 -41 17 -88 2z m109 -63 c63 -57 83 -124 78 -259 -5 -141 -22
-173 -107 -210 -57 -25 -103 -19 -143 18 -46 41 -58 80 -58 190 0 189 59 286
177 296 7 1 31 -15 53 -35z"/>
<path d="M2670 13721 c-77 -25 -143 -85 -155 -141 -5 -24 -2 -39 12 -59 24
-31 65 -37 147 -22 72 13 141 -4 169 -41 21 -29 34 -118 23 -162 -18 -73 -113
-122 -211 -110 -42 6 -57 14 -92 50 -45 46 -63 54 -63 29 0 -29 73 -96 115
-105 93 -22 200 3 248 58 50 55 59 151 22 230 -39 84 -113 108 -246 80 -46 -9
-61 -9 -73 1 -59 49 54 162 162 164 40 0 49 -4 74 -34 23 -27 30 -31 38 -20
10 17 1 38 -29 65 -23 21 -101 30 -141 17z"/>
<path d="M2999 13714 c-5 -7 -12 -131 -16 -277 l-6 -265 39 -11 c21 -6 108
-11 192 -11 128 0 152 2 152 15 0 11 -13 15 -52 17 -29 1 -66 2 -83 3 -16 1
-72 2 -124 3 l-94 2 7 112 c4 62 9 115 12 117 3 3 48 7 100 9 129 6 122 26
-10 30 l-97 3 3 112 3 112 144 2 c130 3 190 13 150 27 -32 12 -311 11 -320 0z"/>
<path d="M686 13668 c-7 -52 -1 -332 10 -457 l6 -63 148 3 c82 2 151 7 155 11
21 21 -15 28 -141 28 l-134 0 0 38 c0 22 -3 73 -6 115 l-7 76 89 3 c71 2 89 6
89 18 0 12 -18 16 -87 18 l-88 3 0 114 0 115 145 0 c122 0 145 2 145 15 0 13
-24 15 -159 15 l-158 0 -7 -52z"/>
<path d="M1108 13714 c-8 -7 70 -157 125 -243 47 -73 52 -53 -50 -197 -35 -48
-63 -93 -63 -101 0 -25 25 -13 50 25 51 77 119 163 127 161 4 -2 36 -42 71
-90 67 -95 79 -106 93 -92 5 5 -20 50 -66 114 -41 57 -75 107 -75 110 0 3 24
42 54 86 60 89 116 194 116 218 0 31 -28 14 -45 -27 -16 -43 -135 -236 -145
-237 -7 -1 -106 157 -121 194 -27 62 -56 95 -71 79z"/>
<path d="M1616 13668 c-8 -69 -8 -436 0 -477 4 -18 12 -30 18 -28 7 2 11 42
11 115 0 92 3 112 15 113 8 1 65 2 127 3 129 1 152 12 191 87 44 83 9 184 -75
220 -36 15 -69 19 -162 19 l-118 0 -7 -52z m235 11 c90 -19 134 -92 102 -170
-28 -70 -49 -79 -184 -79 l-119 0 0 130 0 130 75 0 c40 0 97 -5 126 -11z"/>
<path d="M3477 13713 c-9 -8 -9 -283 0 -430 l6 -112 35 -17 c54 -25 213 -16
273 17 64 35 92 94 84 174 -7 72 -40 147 -85 199 -80 90 -282 200 -313 169z
m117 -68 c146 -71 234 -180 244 -300 9 -122 -44 -164 -209 -165 -66 0 -100 4
-106 13 -12 14 -27 470 -17 480 10 10 10 10 88 -28z"/>
<path d="M11096 13413 c-13 -21 -38 -54 -55 -73 l-30 -35 -1 36 c0 60 -11 99
-28 99 -13 0 -14 -17 -9 -130 4 -72 9 -135 12 -141 13 -20 25 4 25 47 l0 45
62 -50 c34 -28 65 -48 70 -45 18 11 5 31 -47 72 l-54 44 49 64 c28 36 50 71
50 79 0 30 -20 24 -44 -12z"/>
<path d="M11185 13442 c-9 -9 -5 -246 4 -261 13 -20 131 -5 131 16 0 13 -10
15 -51 11 l-50 -5 3 41 c3 35 7 41 28 44 14 2 31 8 37 14 21 17 3 31 -33 25
l-34 -6 0 44 0 44 53 3 c38 2 52 7 52 18 0 12 -15 15 -67 16 -37 1 -70 -1 -73
-4z"/>
<path d="M11376 13443 c-3 -3 -6 -32 -6 -64 0 -75 14 -89 86 -89 l55 0 -3 -37
c-2 -28 -9 -41 -28 -50 -21 -10 -28 -9 -47 9 -19 18 -23 19 -29 5 -20 -52 61
-78 111 -34 29 24 32 47 27 190 -1 52 -5 67 -17 67 -12 0 -15 -13 -15 -60 l0
-60 -43 0 c-55 0 -67 13 -67 71 0 45 -10 66 -24 52z"/>
<path d="M12047 13443 c-16 -4 -17 -17 -15 -136 l3 -132 67 -3 c68 -3 114 10
102 29 -3 6 -34 9 -73 7 l-66 -3 0 45 c0 45 0 45 38 48 30 3 37 7 35 20 -3 13
-12 16 -36 14 -31 -3 -32 -2 -32 36 l0 38 63 10 c34 5 62 14 62 19 0 10 -116
17 -148 8z"/>
<path d="M10327 13308 c3 -73 10 -137 15 -143 19 -21 29 21 24 105 -5 83 -5
84 11 55 16 -29 31 -45 45 -45 4 0 20 21 35 47 26 45 28 46 34 23 4 -14 7 -60
8 -102 1 -75 14 -105 32 -77 9 13 3 197 -7 247 -7 37 -35 23 -73 -36 l-34 -53
-31 56 c-18 33 -38 55 -48 55 -15 0 -16 -13 -11 -132z"/>
<path d="M10598 13413 c-22 -24 -27 -40 -33 -115 -7 -84 -6 -87 18 -112 34
-34 76 -34 112 0 l28 26 -6 101 c-5 80 -10 105 -24 114 -28 21 -67 15 -95 -14z
m66 -9 c13 -5 16 -24 16 -100 0 -83 -2 -94 -20 -104 -14 -8 -26 -8 -40 0 -17
9 -20 21 -20 87 0 65 3 80 22 100 24 26 21 25 42 17z"/>
<path d="M10749 13433 c-5 -50 5 -260 12 -268 19 -19 29 20 27 102 -2 44 0 79
4 77 4 -3 21 -31 38 -63 41 -76 83 -126 98 -117 13 8 16 92 5 199 -4 49 -10
67 -21 67 -12 0 -14 -17 -10 -100 2 -60 0 -96 -5 -91 -5 5 -33 51 -61 103 -29
53 -59 94 -69 96 -9 2 -17 0 -18 -5z"/>
<path d="M11592 13319 c3 -113 5 -122 27 -140 30 -25 82 -24 114 1 20 16 27
33 32 73 8 76 -6 182 -25 182 -13 0 -14 -17 -12 -103 3 -71 0 -107 -8 -117
-14 -17 -76 -20 -85 -5 -4 6 -8 55 -9 109 -3 97 -8 121 -27 121 -7 0 -9 -43
-7 -121z"/>
<path d="M11861 13426 c-29 -16 -50 -52 -51 -87 0 -41 21 -52 86 -44 43 5 59
3 65 -7 15 -23 10 -48 -16 -73 -29 -30 -70 -32 -87 -5 -7 11 -19 20 -26 20
-22 0 -9 -41 20 -63 25 -19 31 -19 68 -7 53 17 80 52 80 101 0 56 -21 71 -94
67 -60 -3 -61 -2 -58 22 3 31 19 47 54 55 21 6 30 2 43 -19 10 -14 21 -26 25
-26 18 0 17 31 -1 54 -23 29 -68 34 -108 12z"/>
<path d="M12238 13433 c-2 -5 -2 -63 0 -130 3 -99 6 -123 18 -123 10 0 14 12
14 45 l0 45 38 0 c33 0 43 -6 75 -45 37 -44 67 -58 67 -32 0 7 -13 26 -30 42
-16 16 -30 32 -30 36 0 5 12 20 26 34 21 21 25 32 20 58 -3 17 -13 41 -21 54
-14 21 -23 23 -95 23 -43 0 -80 -3 -82 -7z"/>
<path d="M12964 13430 c-33 -13 -56 -58 -61 -120 -10 -107 16 -150 92 -150 75
0 105 46 105 162 0 43 -4 54 -34 84 -34 34 -61 41 -102 24z m86 -57 c19 -24
21 -36 16 -82 -4 -29 -11 -62 -16 -72 -12 -22 -50 -34 -79 -24 -42 13 -52 127
-15 183 21 32 67 30 94 -5z"/>
<path d="M13148 13428 c-7 -27 7 -258 17 -261 6 -1 11 39 13 102 l3 104 29
-47 c39 -61 57 -67 87 -30 13 16 29 40 35 54 10 22 13 13 22 -70 9 -73 14 -95
26 -95 12 0 14 15 12 86 -7 172 -28 197 -83 105 -19 -31 -39 -56 -46 -56 -7 0
-24 22 -38 50 -29 57 -68 87 -77 58z"/>
<path d="M12704 13411 c-39 -24 -61 -55 -74 -103 -13 -47 9 -107 53 -144 27
-22 37 -25 74 -20 54 7 83 22 83 43 0 11 -6 14 -22 8 -13 -4 -42 -10 -64 -12
-38 -4 -44 -2 -68 30 -47 61 -28 135 46 173 39 20 76 11 84 -22 7 -29 28 -27
32 4 8 55 -81 81 -144 43z"/>
<path d="M616 12988 c-14 -20 -16 -333 -16 -3123 0 -2790 2 -3103 16 -3123
l15 -22 3123 0 c2415 0 3125 3 3134 12 17 17 17 6249 0 6266 -9 9 -719 12
-3134 12 l-3123 0 -15 -22z m6244 -1727 c0 -1549 -1 -1709 -16 -1715 -9 -3
-231 -6 -495 -6 l-480 0 1 -617 c1 -515 -8 -906 -22 -918 -2 -1 -55 -6 -120
-9 l-116 -7 -7 63 c-4 35 -5 227 -3 428 l3 365 -505 0 c-278 0 -535 -4 -571
-8 l-67 -8 -7 -205 c-5 -123 -3 -289 3 -412 6 -113 10 -207 8 -209 -5 -5
-1076 -26 -1081 -22 -4 4 -19 164 -32 328 l-6 84 24 -7 c13 -4 65 -9 114 -12
70 -5 109 -1 174 14 l84 20 74 -24 c86 -28 102 -29 109 -9 5 12 25 15 97 15
92 0 127 13 127 46 0 27 -75 54 -148 54 -48 0 -81 6 -110 20 -38 19 -45 19
-70 6 -15 -8 -41 -28 -57 -44 -46 -44 -149 -66 -285 -60 -124 5 -140 13 -140
67 0 35 3 38 56 64 67 33 156 114 180 165 26 56 53 168 60 252 15 185 -71 332
-260 439 -77 44 -102 50 -256 61 l-135 9 -61 -28 c-39 -18 -90 -56 -139 -102
-63 -61 -84 -88 -120 -163 -55 -114 -64 -180 -40 -297 29 -145 73 -223 167
-296 32 -24 56 -48 53 -52 -8 -14 -93 -414 -100 -473 l-6 -58 -207 0 c-114 0
-223 -3 -242 -6 l-36 -6 -4 229 c-6 291 -6 437 0 595 5 119 4 128 -15 142 -35
26 -122 29 -470 18 -187 -6 -352 -9 -367 -5 l-28 5 0 -138 c0 -77 -4 -191 -9
-254 -5 -63 -6 -225 -3 -359 l7 -244 -105 7 c-57 4 -105 8 -107 9 -4 5 -8 534
-4 674 2 77 0 146 -3 152 -5 8 -85 11 -252 11 l-244 0 0 2070 0 2070 3105 0
3105 0 0 -1709z m0 -2657 l0 -901 -476 3 c-262 2 -480 6 -483 10 -3 3 -4 155
-1 337 2 183 4 583 5 889 l0 557 45 3 c25 2 240 3 478 3 l432 0 0 -901z
m-3643 815 c79 -13 167 -58 252 -129 125 -104 163 -260 110 -453 -11 -40 -21
-53 -59 -77 -60 -38 -119 -53 -210 -53 -80 0 -192 27 -211 49 -15 18 -39 18
-39 -1 0 -35 102 -73 219 -81 91 -7 191 11 239 43 41 26 34 7 -19 -51 -60 -66
-172 -125 -283 -151 -183 -42 -418 54 -500 205 -38 70 -66 180 -66 263 0 72
29 164 75 237 33 52 155 163 204 186 53 25 184 31 288 13z m-1344 -507 c3 -15
9 -66 13 -113 l7 -86 -39 -6 c-89 -15 -84 -22 -84 113 l0 120 49 0 c45 0 49
-2 54 -28z m341 -109 c-9 -145 -8 -537 2 -710 l6 -103 -147 0 -147 0 7 128 c6
111 5 129 -9 141 -9 7 -25 11 -36 8 -11 -3 -22 -2 -24 1 -2 4 -7 96 -11 205
l-7 197 30 0 c48 0 56 19 48 118 -4 48 -9 102 -12 120 l-6 32 157 0 157 0 -8
-137z m-484 3 l0 -126 26 -10 c14 -6 29 -8 34 -5 5 3 11 2 13 -2 3 -5 8 -96
12 -204 l7 -196 -29 4 c-49 8 -55 -10 -51 -158 l3 -132 -168 6 c-93 3 -170 7
-172 9 -8 8 -8 555 0 733 l8 200 159 3 158 4 0 -126z m3847 0 c1 -1 -1 -69 -4
-152 l-6 -151 -125 -7 c-69 -4 -129 -9 -134 -12 -4 -3 -8 -21 -8 -40 l0 -34
-260 0 -259 0 -7 35 c-3 20 -14 39 -23 44 -9 4 -65 5 -126 1 -60 -3 -116 -4
-124 -1 -12 3 -13 31 -8 154 4 82 8 151 9 153 11 11 342 18 678 16 217 -2 396
-5 397 -6z m-4462 -18 c3 -7 2 -74 -2 -148 l-8 -135 -60 -3 c-68 -4 -85 -14
-85 -52 0 -27 -1 -27 -82 -33 -46 -4 -116 -7 -155 -7 l-73 0 0 190 0 189 108
4 c283 8 353 7 357 -5z m2005 -321 c64 0 108 5 136 15 l42 16 6 -81 c25 -319
50 -526 80 -672 l23 -110 -20 -16 c-49 -40 -229 -65 -392 -55 -133 8 -173 18
-210 52 l-28 26 7 151 c9 193 27 316 76 541 22 98 40 180 40 181 0 1 33 -10
73 -23 55 -19 94 -25 167 -25z m1618 -69 l3 -58 -88 0 c-48 0 -105 3 -125 6
-38 7 -38 7 -38 55 l0 48 98 4 c161 5 147 11 150 -55z m828 25 c-3 -21 -6 -47
-6 -58 0 -19 -6 -20 -110 -17 l-110 3 0 49 c0 57 -2 56 144 59 l89 1 -7 -37z
m-4599 -80 l9 -38 67 -3 67 -3 0 -154 0 -154 -230 -3 -230 -3 0 192 0 192 103
4 c56 1 125 4 154 5 l51 2 9 -37z m4335 0 l3 -28 128 -3 127 -3 0 -62 c0 -34
3 -107 7 -161 l6 -99 -456 6 c-412 5 -458 7 -474 22 -15 16 -18 16 -28 1 -7
-9 -18 -16 -24 -16 -6 0 -3 10 9 22 25 27 26 48 1 48 -11 0 -23 5 -26 10 -4 6
-10 8 -15 5 -5 -3 -20 -1 -35 5 -23 9 -25 13 -15 25 9 11 9 19 2 28 -6 7 -14
47 -18 89 l-7 77 115 -6 c143 -7 164 -3 171 37 l7 30 259 0 260 0 3 -27z
m-3406 -124 c3 -6 3 -62 -1 -125 l-7 -114 -54 0 -54 0 0 125 0 125 54 0 c30 0
58 -5 62 -11z m3954 -306 l0 -58 -342 0 c-189 0 -737 -4 -1219 -9 -858 -9
-877 -9 -882 10 -3 10 -9 35 -12 55 l-7 36 542 7 c298 4 797 5 1108 2 468 -6
671 -2 800 13 8 1 12 -16 12 -56z m-3120 -6 l0 -54 -847 -14 c-838 -14 -1167
-15 -1210 -4 -21 5 -23 12 -23 62 l0 56 577 -4 c318 -3 659 -2 758 1 99 3 307
7 463 8 l282 2 0 -53z m2942 -84 l186 -6 7 -66 c4 -36 12 -69 19 -73 6 -4 39
-8 73 -8 l62 0 3 -32 3 -33 64 -3 64 -3 -7 -106 c-3 -58 -6 -152 -6 -209 l0
-102 -967 -5 c-810 -4 -988 -7 -1088 -21 -88 -11 -204 -16 -432 -16 l-313 0 0
174 c0 95 -3 186 -6 202 -5 27 -2 31 45 52 28 13 55 31 60 40 6 11 4 43 -5 87
-7 39 -13 77 -14 86 0 15 58 17 613 24 539 6 1153 17 1377 23 41 1 159 -1 262
-5z m-2952 -103 c0 -85 1 -91 30 -123 16 -19 43 -40 58 -46 l29 -12 6 -187 c3
-103 4 -188 2 -190 -2 -2 -118 -3 -257 -1 -399 4 -1478 -6 -1760 -17 l-178 -7
0 330 0 329 238 -3 c130 -2 408 0 617 5 209 5 568 10 798 10 l417 2 0 -90z
m3986 -61 c3 -6 4 -12 3 -14 -2 -1 -150 -5 -328 -6 -304 -4 -324 -3 -327 14
-2 16 17 17 322 17 207 -1 326 -5 330 -11z m154 -246 l0 -256 -61 7 c-34 3
-89 6 -123 6 l-61 0 0 215 0 214 60 3 c51 3 60 6 63 23 6 38 10 40 66 42 l56
1 0 -255z m-328 187 l48 0 -2 -212 -3 -213 -197 -3 -197 -2 -3 37 c-2 21 -2
118 0 215 l3 177 77 4 c42 2 110 3 151 1 41 -2 96 -4 123 -4z m-3230 -257 c3
-109 4 -200 2 -202 -5 -6 -408 19 -414 26 -3 2 -6 85 -8 183 l-4 179 134 -5
c73 -3 160 -1 193 4 33 5 67 10 76 11 14 1 17 -22 21 -196z m3461 -219 l97 -7
0 -173 0 -174 -3105 0 -3105 0 0 164 0 165 133 3 c508 14 1549 15 2462 4 549
-6 733 -6 810 4 55 7 235 16 400 20 345 8 2161 3 2308 -6z"/>
<path d="M3510 11617 c-40 -14 -80 -67 -80 -108 0 -38 28 -53 78 -40 20 5 55
11 77 13 34 3 41 0 52 -24 19 -38 2 -75 -43 -94 -35 -15 -39 -14 -65 5 -33 25
-49 27 -49 7 0 -22 49 -56 82 -56 37 0 82 23 102 52 23 32 20 90 -5 122 -23
29 -46 32 -133 15 -31 -7 -59 -9 -62 -6 -9 9 25 66 45 77 33 17 79 12 101 -12
14 -16 23 -19 31 -11 18 18 -7 51 -49 63 -44 12 -38 12 -82 -3z"/>
<path d="M2507 11613 c-4 -8 -3 -105 1 -227 l2 -59 80 5 c45 3 86 10 92 16 17
17 -13 25 -82 20 l-60 -4 0 128 c0 105 -3 128 -14 128 -8 0 -17 -3 -19 -7z"/>
<path d="M2784 11609 c-55 -27 -79 -163 -41 -235 28 -53 113 -49 142 6 18 34
20 152 4 198 -14 40 -59 53 -105 31z m80 -136 c0 -82 -13 -103 -61 -103 -32 0
-46 39 -41 114 4 50 9 63 33 83 l28 25 21 -22 c18 -17 21 -32 20 -97z"/>
<path d="M2979 11605 c-34 -18 -49 -61 -49 -137 0 -98 36 -142 104 -128 65 13
95 116 65 223 -15 54 -65 72 -120 42z m92 -80 c20 -88 -10 -161 -63 -153 -31
4 -51 66 -43 131 8 56 26 77 65 77 26 0 29 -4 41 -55z"/>
<path d="M3177 11613 c-3 -5 -2 -66 2 -138 5 -106 9 -130 21 -130 11 0 15 11
13 48 -1 26 1 47 4 47 3 0 24 -15 47 -34 72 -58 126 -78 126 -46 0 5 -17 19
-37 29 -21 11 -54 34 -73 50 l-35 29 45 40 c25 22 53 54 63 71 17 29 17 32 1
38 -11 4 -20 -1 -27 -13 -5 -10 -33 -41 -61 -68 l-51 -49 -3 44 c-1 24 -5 54
-7 67 -5 22 -19 29 -28 15z"/>
<path d="M4030 11613 c-23 -8 -70 -55 -86 -85 -8 -15 -14 -51 -14 -81 0 -66
24 -102 77 -116 43 -12 114 2 136 28 21 24 29 87 12 101 -20 16 -90 9 -90 -10
0 -11 9 -14 33 -12 30 3 32 1 32 -26 0 -26 -5 -32 -36 -42 -96 -32 -159 33
-123 127 28 76 113 112 137 58 6 -14 16 -25 22 -25 18 0 11 49 -10 70 -19 19
-58 25 -90 13z"/>
<path d="M4272 11592 c-40 -38 -52 -69 -52 -138 0 -48 4 -60 29 -85 33 -33 82
-39 118 -14 35 25 57 95 49 159 -9 67 -29 95 -76 102 -30 5 -41 1 -68 -24z
m98 -38 c15 -38 12 -111 -6 -145 -13 -26 -20 -30 -52 -27 -48 4 -67 39 -57
105 12 81 92 128 115 67z"/>
<path d="M4495 11596 c-53 -53 -59 -182 -10 -223 28 -25 82 -31 116 -13 53 29
64 127 23 197 -38 65 -88 80 -129 39z m103 -61 c52 -91 -15 -196 -88 -137 -19
15 -22 28 -22 70 3 113 62 149 110 67z"/>
<path d="M4706 11612 c-8 -13 -10 -258 -2 -270 4 -7 34 -12 71 -12 57 0 69 3
96 28 60 53 31 131 -80 216 -59 46 -75 53 -85 38z m110 -107 c58 -58 66 -91
30 -122 -20 -17 -39 -23 -72 -23 l-44 0 0 105 c0 105 0 106 21 94 12 -6 41
-31 65 -54z"/>
<path d="M3036 10629 c-40 -31 -56 -71 -56 -138 0 -80 13 -109 54 -126 66 -28
144 14 148 79 6 99 -20 172 -68 192 -43 18 -46 18 -78 -7z m77 -34 c41 -40 48
-165 11 -192 -23 -17 -65 -17 -90 1 -16 12 -19 27 -19 84 0 61 3 74 24 96 28
29 53 33 74 11z"/>
<path d="M2528 10634 c-3 -5 -6 -66 -7 -136 -2 -110 0 -128 13 -128 10 0 16 9
16 24 0 44 10 56 47 56 29 0 42 -8 78 -47 35 -39 46 -46 56 -36 11 11 6 20
-21 48 l-34 35 27 28 c33 35 37 97 8 133 -17 21 -30 24 -99 27 -44 2 -82 0
-84 -4z m158 -49 c19 -25 18 -55 -3 -77 -12 -13 -30 -18 -70 -18 l-53 0 0 61
0 61 56 -4 c40 -3 61 -10 70 -23z"/>
<path d="M2817 10627 c-54 -18 -79 -176 -37 -230 26 -32 79 -51 111 -38 46 17
63 48 67 119 3 62 1 70 -26 108 -32 44 -68 57 -115 41z m77 -52 c57 -61 36
-185 -31 -185 -13 0 -35 12 -50 26 -23 23 -25 30 -18 82 12 99 51 129 99 77z"/>
<path d="M3339 10618 c-17 -34 -79 -108 -90 -108 -5 0 -9 27 -9 60 0 44 -4 60
-14 60 -10 0 -14 -27 -18 -116 -3 -64 -3 -125 0 -136 9 -34 27 -13 30 36 l3
47 47 -34 c51 -37 126 -70 136 -60 14 14 3 25 -46 48 -29 13 -64 33 -77 45
l-23 20 40 47 c60 74 77 113 47 113 -8 0 -20 -10 -26 -22z"/>
<path d="M3537 10633 c-13 -12 -8 -248 5 -261 13 -13 116 -16 156 -6 47 13 15
29 -59 29 l-74 0 -3 47 -3 47 53 3 c39 2 53 7 53 18 0 11 -14 16 -52 18 -51 3
-53 4 -53 33 0 33 3 35 83 44 40 4 57 11 57 21 0 11 -17 14 -78 14 -43 0 -82
-3 -85 -7z"/>
<path d="M4350 10602 c-71 -71 -41 -119 68 -106 46 5 60 3 64 -8 10 -24 -19
-78 -47 -88 -31 -12 -71 -4 -79 16 -7 19 -36 18 -36 -1 0 -30 38 -55 84 -55
53 0 90 26 106 76 25 74 -14 113 -94 96 -69 -14 -87 5 -43 46 30 28 71 28 91
1 15 -21 36 -18 36 5 0 21 -32 44 -73 51 -34 7 -40 4 -77 -33z"/>
<path d="M5287 10629 c-17 -10 -18 -21 -12 -128 4 -64 12 -124 17 -133 7 -15
22 -18 86 -18 42 0 83 4 91 9 29 18 -2 31 -73 31 -79 0 -85 5 -86 68 0 20 5
22 46 22 38 0 45 3 42 18 -2 12 -15 18 -46 20 -41 3 -42 4 -42 41 l0 38 77 7
c82 6 89 9 78 25 -8 14 -154 14 -178 0z"/>
<path d="M3932 10498 c3 -110 6 -133 18 -133 13 0 14 17 11 105 l-3 105 54
-59 54 -60 42 58 41 58 3 -103 c2 -85 6 -104 18 -104 13 0 15 21 15 130 0 124
-1 130 -21 133 -15 2 -30 -11 -57 -53 -21 -30 -41 -55 -47 -55 -5 0 -28 25
-52 55 -23 30 -51 55 -61 55 -16 0 -17 -11 -15 -132z"/>
<path d="M4833 10606 c-27 -23 -28 -28 -31 -131 -3 -71 0 -111 7 -118 17 -17
32 10 29 48 l-3 30 70 0 70 0 5 -44 c3 -25 11 -46 18 -49 15 -5 17 140 2 203
-18 81 -107 113 -167 61z"/>
<path d="M5059 10621 c-2 -6 -2 -68 1 -137 4 -89 9 -129 18 -132 8 -2 12 11
12 48 l0 52 61 -51 c33 -28 67 -51 74 -51 32 0 20 20 -40 69 -61 48 -78 71
-55 71 13 0 100 111 100 128 0 27 -27 9 -73 -48 -26 -33 -52 -60 -57 -60 -5 0
-10 26 -12 57 -3 50 -20 82 -29 54z"/>
<path d="M2796 10102 c-4 -11 -4 -121 -1 -246 6 -267 12 -309 41 -285 7 6 10
16 6 23 -4 6 -9 125 -12 265 -4 181 -8 255 -17 258 -6 2 -14 -4 -17 -15z"/>
<path d="M6187 8683 c-12 -11 -8 -271 4 -278 15 -10 20 -2 26 44 5 38 8 41 37
41 81 0 136 36 136 88 0 36 -27 80 -60 97 -29 15 -131 21 -143 8z"/>
<path d="M6445 8684 c-6 -2 -10 -59 -9 -142 1 -163 0 -158 19 -142 9 8 15 30
15 56 l0 44 49 0 c48 0 51 -2 86 -50 34 -46 65 -65 65 -39 0 6 -14 30 -31 54
l-31 44 21 27 c31 40 27 80 -13 120 -32 32 -38 34 -97 33 -35 0 -68 -2 -74 -5z
m145 -49 c26 -23 26 -71 1 -85 -11 -5 -42 -10 -70 -10 l-51 0 0 53 c0 30 3 57
8 61 12 13 92 -1 112 -19z"/>
<path d="M2902 8397 c-29 -35 -67 -386 -54 -506 l8 -83 -32 -40 c-31 -36 -36
-68 -11 -68 5 0 26 19 45 41 20 23 60 57 89 76 30 19 51 38 48 43 -9 15 -49
12 -71 -5 -10 -8 -22 -15 -26 -15 -5 0 -8 50 -8 112 0 111 10 212 35 358 11
60 11 78 1 88 -10 11 -15 10 -24 -1z"/>
<path d="M660 6930 l0 -150 3098 2 3097 3 -3092 2 -3093 3 0 139 0 140 38 4
37 4 -42 1 -43 2 0 -150z"/>
<path d="M7112 12998 c-17 -17 -17 -6249 0 -6266 9 -9 719 -12 3134 -12 l3123
0 15 22 c14 20 16 333 16 3123 0 2790 -2 3103 -16 3123 l-15 22 -3123 0
c-2415 0 -3125 -3 -3134 -12z m6238 -1743 l0 -1714 -481 -1 c-265 0 -486 -3
-491 -6 -5 -3 -9 -257 -8 -627 1 -552 -7 -888 -20 -900 -16 -15 -425 -23 -850
-15 -296 5 -669 4 -959 -2 -260 -5 -511 -10 -556 -10 l-83 0 -7 78 c-4 42 -10
107 -14 143 l-7 67 35 -19 c42 -23 82 -24 120 -5 30 16 111 100 111 115 0 5 9
12 20 16 23 7 41 76 21 83 -6 2 -11 11 -11 21 0 9 -13 30 -30 46 -16 16 -30
34 -30 41 0 7 -12 27 -27 44 l-27 32 26 47 c53 94 87 286 69 386 -24 127 -89
215 -227 305 -95 62 -118 68 -282 80 -115 8 -140 7 -175 -7 -105 -41 -227
-157 -280 -266 -63 -131 -71 -195 -37 -335 33 -136 78 -209 170 -277 28 -20
48 -40 45 -45 -10 -15 -93 -406 -100 -467 l-7 -63 -229 -2 c-126 -2 -280 -3
-341 -3 l-113 0 -7 105 c-4 58 -2 243 4 412 9 248 9 310 -2 322 -23 29 -1110
19 -1138 -9 -11 -10 -13 -536 -4 -680 5 -82 9 -151 8 -151 0 -1 -67 -4 -148
-8 l-148 -7 0 2495 0 2496 3105 0 3105 0 0 -1715z m0 -2642 c0 -491 0 -896 0
-900 0 -9 -940 -7 -949 2 -3 4 -4 149 -1 323 2 175 4 574 5 889 l0 572 45 3
c25 2 237 3 473 3 l427 0 0 -892z m-3599 804 c127 -25 279 -140 334 -251 50
-102 43 -290 -17 -428 -41 -96 -178 -187 -334 -224 -79 -18 -164 -11 -164 13
0 8 -13 28 -29 44 -24 23 -38 29 -73 29 -24 0 -53 -6 -64 -14 -19 -14 -25 -11
-77 30 -108 84 -150 186 -151 359 -1 108 0 112 37 187 28 57 57 97 109 148 98
96 144 116 266 118 54 1 127 -4 163 -11z m-1549 -607 l340 0 -4 -154 -3 -153
-124 -7 c-69 -4 -128 -9 -133 -12 -4 -3 -8 -21 -8 -40 l0 -34 -259 0 c-278 0
-271 -1 -271 50 0 31 -29 37 -145 30 -60 -3 -116 -4 -122 -2 -10 3 -13 43 -13
153 0 111 3 151 13 154 23 9 272 23 331 19 32 -2 212 -4 398 -4z m1831 -268
c9 -31 15 -66 12 -77 -4 -14 3 -29 24 -49 17 -17 31 -37 31 -47 0 -9 -20 -35
-45 -58 -36 -33 -52 -41 -82 -41 -69 1 -100 47 -112 168 l-7 74 50 25 c28 14
62 34 75 44 13 11 26 19 30 19 3 0 14 -26 24 -58z m-529 12 c9 -3 20 -23 26
-44 l10 -38 68 -7 c63 -6 127 2 184 24 l25 10 7 -87 c24 -325 43 -487 75 -645
l27 -137 -20 -13 c-67 -44 -266 -66 -435 -50 -94 9 -119 15 -153 38 l-41 27 7
160 c4 87 13 206 21 264 21 150 94 466 113 487 15 17 56 22 86 11z m-1799
-124 c4 -16 4 -44 0 -61 l-7 -31 -114 4 c-62 2 -116 7 -119 9 -3 3 -8 26 -11
52 l-7 46 104 4 c57 1 114 4 126 5 16 2 23 -5 28 -28z m831 8 c-3 -13 -6 -39
-6 -58 l0 -35 -110 0 -110 0 0 52 c0 60 -3 59 144 62 87 1 88 1 82 -21z m-266
-98 l0 -30 129 0 129 0 1 -145 c1 -80 4 -151 7 -159 4 -10 -28 -14 -153 -20
-180 -7 -784 4 -778 14 3 4 -2 13 -9 19 -16 13 -32 -2 -21 -19 4 -6 -5 -10
-21 -10 -24 0 -25 2 -13 18 8 9 20 21 27 25 18 12 14 37 -6 37 -10 0 -22 3
-26 7 -4 4 -13 8 -19 9 -7 0 -20 2 -30 2 -12 2 -17 10 -17 30 1 15 -2 64 -6
109 l-7 81 115 -5 c146 -7 168 -2 168 37 l0 30 265 0 265 0 0 -30z m4080 -428
l0 -59 -127 5 c-71 2 -445 -1 -833 -7 -388 -6 -876 -11 -1085 -12 l-380 0 -8
52 c-4 29 -5 55 -2 58 3 3 543 6 1200 6 656 0 1197 4 1201 8 4 4 13 7 21 7 9
0 13 -16 13 -58z m-3100 -5 l0 -53 -857 -15 c-858 -14 -1159 -15 -1220 -4 -33
6 -33 7 -33 62 l0 56 583 -4 c320 -3 663 -2 762 1 99 3 312 7 473 8 l292 2 0
-53z m3108 -92 c2 -2 6 -32 9 -67 3 -35 11 -66 17 -70 6 -4 39 -8 73 -8 l62 0
3 -32 c3 -33 3 -33 66 -36 l62 -3 0 -67 c0 -37 -3 -131 -7 -209 l-6 -141 -966
-5 c-809 -4 -986 -7 -1086 -21 -87 -11 -203 -16 -421 -16 l-301 0 -6 128 c-4
70 -7 161 -7 202 l0 75 50 23 c27 13 54 31 59 40 5 11 2 49 -8 102 l-17 85
566 8 c311 4 738 11 950 16 339 8 899 5 908 -4z m-3118 -99 l0 -94 39 -35 c21
-19 48 -38 58 -41 19 -6 20 -19 26 -193 3 -103 4 -189 2 -191 -2 -2 -122 -3
-267 -1 -336 3 -265 4 -973 -4 -335 -3 -694 -9 -797 -13 l-188 -7 0 330 0 329
248 -3 c136 -2 418 0 627 5 209 5 570 10 803 10 l422 2 0 -94z m3966 -57 c3
-6 4 -12 3 -14 -2 -1 -149 -5 -326 -7 -304 -3 -322 -3 -327 14 -4 18 12 18
320 18 207 -1 326 -5 330 -11z m144 -247 l0 -255 -52 7 c-29 3 -82 6 -118 6
l-66 0 1 213 0 212 60 5 c50 4 60 8 63 25 6 38 10 40 61 41 l51 1 0 -255z
m-317 188 l47 0 0 -215 0 -215 -200 0 -200 0 0 215 0 214 73 4 c39 2 108 3
152 1 44 -2 101 -4 128 -4z m-3213 -262 l0 -201 -127 7 c-256 13 -281 16 -287
40 -3 11 -6 94 -6 183 l0 162 133 -5 c72 -3 157 -1 187 4 30 5 65 10 78 11
l22 1 0 -202z m3443 -214 l87 -7 0 -173 0 -174 -3105 0 -3105 0 0 164 0 164
273 6 c466 10 1590 11 2337 2 560 -7 736 -6 810 4 52 7 230 16 395 20 345 8
2176 3 2308 -6z"/>
<path d="M11764 11740 c-19 -7 -22 -18 -26 -95 -4 -86 3 -169 15 -182 23 -23
187 -20 187 3 0 11 -17 14 -73 14 -84 0 -97 8 -97 62 l0 38 48 0 c26 0 53 4
61 9 26 16 0 31 -55 31 -49 0 -54 2 -54 23 1 60 8 67 75 67 78 0 100 7 84 26
-13 16 -129 19 -165 4z"/>
<path d="M8805 11729 c-12 -19 5 -24 71 -22 l64 3 0 -69 c0 -111 11 -191 26
-191 11 0 14 27 14 130 l0 130 65 0 c51 0 65 3 65 15 0 13 -23 15 -149 15 -95
0 -152 -4 -156 -11z"/>
<path d="M9289 11733 c-1 -4 0 -33 1 -65 l2 -56 -62 -4 c-34 -1 -64 -1 -66 1
-2 2 -4 31 -4 63 0 45 -3 58 -15 58 -13 0 -15 -22 -15 -134 0 -85 4 -137 11
-141 17 -11 23 3 24 58 l0 52 68 3 67 3 0 -61 c0 -47 3 -60 15 -60 17 0 17 2
15 85 -4 116 -15 198 -27 203 -7 2 -14 0 -14 -5z"/>
<path d="M9498 11724 c-33 -18 -48 -43 -48 -82 0 -45 20 -55 89 -47 54 6 60 5
75 -16 51 -73 -36 -148 -101 -87 -18 17 -26 19 -35 10 -9 -9 -6 -18 11 -36 32
-34 70 -40 120 -20 33 13 43 23 52 55 9 29 9 45 0 68 -25 58 -56 70 -156 58
-26 -3 -30 24 -7 53 26 32 78 32 103 -1 13 -18 21 -21 29 -13 16 16 -4 52 -36
64 -35 14 -64 12 -96 -6z"/>
<path d="M9897 11733 c-11 -11 -8 -253 4 -274 16 -32 29 -12 29 47 l0 54 59 0
c65 0 71 -6 71 -66 0 -24 5 -34 15 -34 13 0 15 19 13 133 -2 108 -6 132 -18
132 -11 0 -15 -15 -17 -59 -1 -32 -4 -60 -5 -61 -2 -1 -29 -5 -60 -7 l-58 -5
0 62 c0 59 -16 96 -33 78z"/>
<path d="M10153 11725 c-40 -17 -45 -34 -41 -165 3 -93 5 -105 21 -108 17 -3
19 2 15 45 l-3 48 67 3 67 3 3 -48 c2 -35 7 -48 18 -48 12 0 15 16 14 90 -1
118 -16 163 -60 181 -41 17 -60 17 -101 -1z"/>
<path d="M10782 11728 c3 -8 26 -14 56 -16 l52 -3 -6 -125 c-6 -111 -5 -124 9
-124 20 0 18 -11 26 130 l6 115 53 3 c37 2 52 7 52 18 0 11 -23 14 -126 14
-96 0 -125 -3 -122 -12z"/>
<path d="M11067 11711 c-20 -24 -27 -46 -32 -105 -10 -106 2 -137 61 -156 53
-18 101 -5 124 33 28 46 27 147 -3 207 -21 44 -23 45 -73 48 -47 3 -54 0 -77
-27z m115 -23 c24 -37 32 -130 14 -172 -14 -33 -19 -36 -54 -36 -66 0 -75 14
-71 107 3 62 9 86 23 102 26 28 70 27 88 -1z"/>
<path d="M11464 11714 c-8 -31 0 -251 9 -260 14 -14 152 -16 192 -2 44 14 71
54 60 88 -9 29 -55 80 -71 80 -12 0 -13 8 -8 34 5 29 2 39 -20 60 -22 23 -34
26 -90 26 -62 0 -66 -1 -72 -26z m204 -147 c27 -25 29 -63 3 -77 -11 -5 -54
-10 -95 -10 l-76 0 0 54 0 55 53 3 c68 4 87 0 115 -25z"/>
<path d="M10415 11714 c-62 -32 -84 -90 -43 -118 12 -8 24 -13 28 -11 4 3 31
5 60 6 63 3 84 -17 74 -66 -12 -59 -71 -73 -122 -30 -36 30 -42 31 -42 6 0
-24 41 -57 79 -66 40 -9 99 18 111 50 18 48 12 94 -16 122 -24 24 -30 25 -90
20 -58 -6 -64 -5 -64 13 0 41 102 72 116 35 9 -22 34 -18 34 5 0 21 -45 50
-77 50 -10 0 -31 -7 -48 -16z"/>
<path d="M8800 11342 l-35 -7 -3 -130 c-3 -167 -4 -166 110 -168 109 -2 141
16 146 82 3 37 -1 46 -31 74 -28 27 -33 38 -29 68 8 69 -54 101 -158 81z m158
-169 c12 -10 24 -30 27 -44 10 -41 -24 -59 -112 -59 l-73 0 0 54 0 55 43 4
c86 7 95 7 115 -10z"/>
<path d="M9115 11331 c-11 -5 -29 -19 -40 -31 -18 -19 -20 -36 -20 -136 0 -67
4 -115 10 -116 6 -2 11 18 13 45 l3 47 75 0 74 0 0 -50 c0 -36 4 -50 14 -50
10 0 16 20 21 75 14 145 -14 212 -90 220 -22 3 -49 1 -60 -4z m99 -53 c9 -12
16 -41 16 -63 l0 -40 -72 2 -73 2 1 40 c1 54 26 81 75 81 28 0 42 -6 53 -22z"/>
<path d="M9318 11328 c-2 -7 -2 -76 1 -153 l6 -140 75 0 c92 0 124 17 139 73
21 75 -22 150 -110 194 -71 35 -105 43 -111 26z m110 -66 c75 -40 106 -128 62
-172 -17 -17 -31 -20 -78 -18 l-57 3 -3 112 c-3 127 -9 120 76 75z"/>
<path d="M9843 11329 c-65 -19 -116 -126 -94 -198 17 -58 51 -81 121 -81 38 0
62 5 70 15 19 23 4 35 -30 23 -41 -14 -96 -2 -115 25 -20 28 -19 80 1 124 28
58 63 71 133 52 27 -7 23 27 -4 39 -30 14 -38 14 -82 1z"/>
<path d="M10042 11323 c-46 -22 -72 -78 -72 -150 0 -73 25 -118 72 -131 74
-20 158 55 158 140 0 44 -46 133 -77 147 -31 14 -42 14 -81 -6z m74 -31 c22
-14 44 -71 44 -113 0 -33 -6 -47 -34 -75 -39 -39 -67 -43 -95 -15 -72 72 6
256 85 203z"/>
<path d="M10457 11333 c-4 -3 -7 -61 -7 -128 0 -152 4 -157 106 -153 53 2 69
6 69 18 0 12 -15 16 -66 18 -59 3 -68 5 -73 25 -14 53 -10 57 52 57 64 0 78 6
61 27 -7 8 -32 13 -65 13 l-54 0 0 50 0 50 70 0 c56 0 70 3 70 15 0 12 -15 15
-78 15 -43 0 -82 -3 -85 -7z"/>
<path d="M11278 11318 c-48 -28 -68 -71 -68 -148 0 -57 3 -65 34 -96 28 -28
42 -34 75 -34 23 0 55 7 71 15 28 14 30 20 30 70 0 54 0 55 -29 55 -40 0 -61
-9 -61 -27 0 -12 7 -14 30 -9 28 5 30 3 30 -23 0 -20 -7 -31 -25 -39 -39 -18
-60 -15 -95 15 -31 26 -32 29 -27 87 5 52 10 65 36 88 17 16 40 28 50 28 22 0
51 -30 51 -53 0 -9 7 -17 15 -17 28 0 18 56 -16 84 -37 31 -53 32 -101 4z"/>
<path d="M12012 11330 c-28 -12 -50 -56 -35 -71 8 -8 16 -4 28 15 14 20 25 26
55 26 60 0 81 -34 47 -77 -5 -7 -22 -13 -38 -13 -33 0 -72 -33 -67 -57 5 -25
25 -27 33 -4 5 15 15 21 36 21 61 0 108 77 79 130 -18 33 -90 49 -138 30z"/>
<path d="M10230 11202 c0 -86 4 -132 12 -140 15 -15 112 -16 140 -1 26 14 48
68 48 118 0 31 -7 49 -32 77 -36 41 -98 73 -140 74 l-28 0 0 -128z m133 40
c22 -21 27 -34 27 -74 0 -61 -24 -88 -79 -88 l-38 0 -7 100 c-4 55 -4 105 -1
110 8 13 61 -14 98 -48z"/>
<path d="M10867 11323 c-12 -11 -8 -271 4 -279 17 -10 29 16 26 56 -2 34 -1
35 35 38 33 3 39 -1 66 -41 38 -55 58 -72 67 -57 4 6 -7 32 -24 58 l-31 47 25
18 c27 20 41 72 31 113 -4 16 -19 30 -41 40 -35 14 -146 20 -158 7z"/>
<path d="M11456 11274 c-3 -26 -6 -87 -6 -135 0 -70 3 -89 14 -89 9 0 16 17
21 50 l7 50 54 0 54 0 0 -51 c0 -42 3 -50 17 -47 16 3 18 18 18 132 0 87 -4
130 -11 133 -7 2 -14 -20 -19 -62 -6 -59 -9 -65 -30 -65 -12 0 -37 -3 -54 -6
l-31 -6 0 71 c0 53 -3 71 -14 71 -8 0 -16 -17 -20 -46z"/>
<path d="M11685 11309 c-11 -17 4 -24 53 -24 l47 0 5 -112 c6 -114 10 -130 30
-118 7 4 10 44 8 118 l-3 112 48 3 c33 2 47 7 47 18 0 11 -21 14 -114 14 -71
0 -117 -4 -121 -11z"/>
<path d="M10494 10528 c1 -408 2 -403 -65 -608 -56 -169 -145 -324 -268 -464
-39 -44 -49 -61 -41 -70 9 -8 27 6 72 54 131 143 232 329 293 540 34 116 37
139 46 326 8 195 -1 560 -15 583 -4 6 -11 11 -15 11 -4 0 -7 -168 -7 -372z"/>
<path d="M11143 9440 c-90 -18 -193 -98 -244 -188 -79 -140 -98 -157 -217
-194 -138 -42 -207 -92 -251 -180 -24 -47 -31 -75 -31 -119 0 -79 33 -117 133
-155 107 -40 165 -74 187 -109 12 -19 25 -71 34 -132 16 -117 48 -187 107
-233 48 -39 80 -50 142 -50 65 0 111 22 207 95 146 112 163 112 412 -6 138
-66 198 -80 286 -66 73 10 122 37 170 92 83 95 94 219 30 337 -28 52 -51 76
-129 135 -117 90 -127 109 -105 206 29 128 20 206 -32 260 -42 45 -89 63 -192
76 -113 14 -138 28 -222 123 -101 113 -155 133 -285 108z"/>
<path d="M12729 8560 c-1 -71 -2 -136 -3 -142 -1 -7 6 -13 14 -13 10 0 16 13
18 43 3 40 4 42 36 42 91 0 136 29 136 86 0 79 -44 114 -146 114 l-54 0 -1
-130z m137 82 c20 -13 36 -54 30 -78 -7 -25 -24 -32 -91 -36 l-40 -3 -3 63 -3
62 48 0 c26 0 53 -4 59 -8z"/>
<path d="M12984 8677 c-9 -24 1 -277 11 -277 6 0 11 22 13 50 l3 50 52 -1 c50
0 53 -2 90 -50 20 -27 44 -49 52 -49 23 0 18 13 -20 63 l-36 46 21 21 c22 22
27 78 10 111 -6 10 -24 26 -40 34 -37 19 -149 20 -156 2z m125 -28 c34 -12 51
-35 51 -68 0 -28 -29 -41 -92 -41 l-53 0 1 53 c0 28 1 55 2 60 3 11 54 9 91
-4z"/>
<path d="M9708 8844 c-32 -17 -48 -43 -48 -77 0 -42 21 -50 82 -33 61 18 160
23 201 12 23 -7 27 -5 27 12 0 24 -48 64 -103 87 -46 19 -124 19 -159 -1z"/>
<path d="M9445 8510 c-12 -19 -45 -424 -39 -475 5 -40 3 -59 -10 -76 -19 -27
-21 -62 -5 -92 24 -45 55 -48 92 -12 41 42 28 135 -20 135 -18 0 -17 130 2
315 19 181 19 215 1 215 -8 0 -18 -4 -21 -10z"/>
<path d="M13278 7103 l52 -4 0 -155 0 -154 -3092 -3 -3093 -2 3098 -3 3097 -2
0 165 0 165 -57 -2 -58 -2 53 -3z"/>
<path d="M620 6510 c-20 -20 -20 -33 -20 -3119 0 -1990 3 -3109 10 -3125 l10
-26 3128 0 c2420 0 3131 3 3140 12 9 9 12 719 12 3135 0 3077 0 3122 -19 3133
-14 7 -1005 10 -3130 10 -3098 0 -3111 0 -3131 -20z m1634 -350 c39 -14 59
-64 60 -147 1 -65 -2 -75 -25 -98 -28 -28 -89 -42 -133 -31 -41 10 -59 58 -54
141 5 76 21 110 60 132 28 15 58 16 92 3z m277 -19 c33 -41 16 -138 -27 -155
-13 -5 -8 -12 25 -36 24 -18 41 -38 41 -50 0 -11 -2 -20 -5 -20 -8 0 -115 83
-115 89 0 4 -16 5 -35 3 -34 -4 -35 -5 -35 -48 0 -37 -3 -44 -20 -44 -19 0
-20 7 -20 138 0 76 3 141 6 145 4 3 42 5 86 4 70 -2 82 -5 99 -26z m527 -130
c4 -113 3 -131 -10 -131 -20 0 -28 41 -28 141 0 44 -3 79 -7 79 -5 0 -23 -23
-40 -50 -19 -28 -38 -47 -45 -44 -7 2 -26 23 -43 45 l-30 41 -5 -99 c-4 -78
-8 -98 -20 -98 -29 0 -23 252 6 262 6 2 29 -19 50 -47 21 -27 41 -50 45 -50 4
0 16 15 28 33 11 17 30 43 42 55 19 21 23 22 36 9 11 -11 17 -49 21 -146z
m935 152 c17 -17 -19 -33 -74 -33 l-59 0 0 -40 c0 -39 1 -40 34 -40 33 0 62
-20 49 -33 -3 -4 -23 -7 -43 -7 l-36 0 -1 -51 -1 -50 67 3 c53 2 66 0 66 -12
0 -20 -134 -34 -151 -16 -8 7 -13 61 -15 140 l-4 130 25 7 c33 9 135 11 143 2z
m1052 -7 c41 -17 58 -47 53 -92 -2 -19 0 -34 4 -34 5 0 20 -11 33 -25 35 -34
34 -86 -1 -114 -23 -18 -41 -21 -126 -21 l-100 0 5 143 5 142 28 6 c47 11 63
10 99 -5z m968 -3 c21 -13 -12 -23 -72 -23 l-68 0 -7 -31 c-12 -59 -10 -61 41
-57 39 2 48 0 51 -14 3 -14 -3 -18 -25 -18 -63 0 -72 -8 -75 -66 -2 -30 -7
-54 -13 -54 -11 0 -20 243 -10 268 4 11 21 13 88 7 45 -4 85 -9 90 -12z m144
2 c47 -33 59 -178 20 -236 -44 -66 -138 -42 -152 39 -11 64 10 163 40 190 30
26 62 28 92 7z m250 -5 c51 -31 56 -99 12 -146 l-20 -22 32 -36 c25 -29 29
-40 20 -49 -10 -9 -22 -2 -54 36 -36 40 -47 47 -79 47 -36 0 -37 -1 -40 -42
-2 -33 -8 -44 -22 -46 -18 -4 -19 2 -13 127 4 73 9 136 12 141 11 18 118 11
152 -10z m-3150 -5 c38 -26 52 -110 37 -219 -9 -65 -34 -63 -34 4 l0 50 -42 0
c-78 0 -88 -7 -88 -57 0 -37 -3 -44 -17 -41 -16 3 -18 15 -15 93 3 104 15 149
45 170 28 19 86 19 114 0z m106 -42 c3 -31 12 -60 19 -64 7 -5 37 -9 67 -9
l54 0 -7 66 c-6 60 -5 65 11 62 16 -3 18 -17 21 -116 l3 -113 -30 -29 c-20
-21 -39 -30 -61 -30 -39 0 -80 26 -80 51 0 22 23 25 39 5 6 -8 21 -16 32 -19
28 -7 72 35 67 65 -3 20 -9 22 -67 24 -84 2 -101 20 -101 105 0 43 4 59 14 59
9 0 15 -18 19 -57z m337 42 c31 -16 43 -41 39 -83 -2 -19 6 -36 29 -59 39 -38
41 -75 7 -108 -21 -22 -33 -25 -98 -25 -53 0 -78 4 -86 14 -8 9 -15 67 -18
145 l-6 131 52 0 c29 0 65 -7 81 -15z m788 -3 c9 -10 28 -34 42 -55 14 -20 28
-37 32 -37 4 0 26 25 48 56 23 30 47 53 53 51 8 -2 13 -47 15 -140 2 -117 0
-137 -13 -137 -12 0 -15 16 -17 83 -1 45 -1 93 0 105 1 21 -4 18 -39 -22 -23
-25 -44 -46 -49 -46 -4 0 -23 20 -41 44 l-34 44 -10 -101 c-6 -64 -15 -102
-22 -105 -10 -3 -13 28 -13 131 0 154 6 171 48 129z m825 7 c12 -6 29 -19 35
-30 16 -25 27 -199 14 -218 -15 -21 -32 -3 -32 33 0 37 -15 46 -77 46 -31 0
-32 -1 -35 -47 -2 -35 -7 -48 -18 -48 -12 0 -16 18 -18 85 -4 104 9 155 46
174 33 18 53 19 85 5z m168 -18 c86 -55 116 -114 97 -188 -12 -44 -42 -63
-105 -63 -78 0 -83 9 -83 149 0 65 3 121 7 124 13 14 40 6 84 -22z m-3219
-492 l58 -104 0 98 c0 88 2 98 18 95 15 -3 17 -18 17 -138 0 -112 -3 -135 -15
-137 -9 -2 -25 14 -39 39 -12 24 -36 68 -53 98 -16 30 -34 59 -39 65 -5 5 -9
-34 -9 -98 0 -88 -3 -107 -15 -107 -8 0 -16 10 -17 23 -3 44 4 262 9 270 11
19 30 -5 85 -104z m820 -13 c4 -111 14 -136 54 -136 41 0 57 39 59 148 2 74 6
97 16 97 11 0 15 -23 17 -100 3 -126 -13 -165 -71 -180 -53 -12 -88 8 -103 60
-13 42 -19 217 -7 228 19 20 31 -21 35 -117z m504 78 c85 -57 122 -134 93
-197 -15 -33 -49 -47 -110 -47 -88 0 -89 2 -89 143 0 165 4 169 106 101z m302
24 c3 -16 -6 -18 -72 -18 l-76 0 0 -44 0 -45 43 -3 c52 -4 51 -20 -2 -32 -40
-9 -41 -10 -41 -48 l0 -40 77 3 c54 3 77 0 80 -8 7 -19 -41 -33 -112 -33 -53
0 -66 3 -75 19 -5 11 -10 74 -10 140 l0 120 73 4 c104 5 111 4 115 -15z m223
-7 c35 -36 40 -90 10 -120 -20 -20 -19 -20 24 -68 48 -51 51 -58 34 -69 -6 -3
-36 19 -68 50 -51 51 -61 56 -100 56 l-44 0 6 -41 c6 -47 1 -69 -18 -69 -16 0
-25 67 -25 191 l0 99 76 0 c70 0 78 -2 105 -29z m264 9 c14 -12 22 -60 9 -60
-3 0 -19 11 -36 25 -37 31 -62 32 -93 0 -41 -40 -33 -46 53 -39 l78 7 27 -32
c21 -25 27 -43 27 -78 0 -39 -5 -50 -36 -79 -20 -20 -46 -34 -60 -34 -37 0
-91 26 -103 48 -25 47 -5 55 41 17 56 -47 118 -18 118 55 0 54 -32 76 -87 61
-93 -26 -138 -2 -112 60 20 50 57 72 111 66 26 -2 54 -10 63 -17z m1488 -11
c19 -23 23 -54 7 -64 -5 -3 -16 8 -25 25 -35 68 -103 20 -112 -78 -5 -52 -3
-62 16 -81 17 -17 32 -21 64 -19 39 3 42 5 45 36 3 31 2 32 -32 32 -48 0 -48
25 0 33 56 9 64 2 64 -58 0 -32 -5 -57 -14 -64 -22 -18 -109 -16 -139 3 -64
43 -60 165 9 234 29 29 39 34 67 28 17 -3 40 -16 50 -27z m-3048 1 c0 -11 -14
-16 -52 -18 l-53 -3 0 -120 c0 -112 -1 -119 -20 -119 -19 0 -20 7 -20 120 l0
120 -39 0 c-22 0 -43 5 -46 10 -15 25 10 31 118 28 92 -2 112 -6 112 -18z
m519 -52 c19 -40 47 -89 61 -108 l27 -35 -6 108 c-5 100 -4 108 12 105 20 -4
34 -102 30 -208 -3 -57 -5 -65 -24 -68 -17 -2 -33 15 -78 84 l-56 87 0 -75 c0
-51 -4 -79 -13 -87 -8 -6 -17 -8 -20 -4 -4 3 -7 66 -7 140 0 125 1 133 20 133
14 0 28 -19 54 -72z m1341 52 c0 -11 -14 -16 -54 -18 l-54 -3 6 -109 c4 -73 3
-111 -4 -116 -21 -12 -28 12 -35 119 l-7 107 -43 0 c-30 0 -44 4 -44 13 0 25
14 28 124 25 91 -2 111 -6 111 -18z m184 1 c26 -26 33 -67 29 -166 -2 -63 -6
-80 -18 -80 -10 0 -17 14 -20 46 l-5 46 -60 -1 -60 -1 -5 -49 c-3 -27 -11 -51
-17 -54 -15 -4 -15 -6 -13 112 2 130 25 165 108 166 29 0 48 -6 61 -19z m134
-75 c77 -150 76 -149 77 -18 0 86 3 113 13 110 13 -5 31 -215 22 -255 -12 -52
-60 -15 -116 89 l-34 63 -5 -85 c-4 -67 -8 -85 -20 -85 -13 0 -15 21 -15 125
0 69 2 131 4 138 8 29 29 6 74 -82z m233 67 c68 -36 94 -61 116 -110 22 -49
17 -81 -18 -114 -22 -20 -34 -23 -96 -21 -40 1 -76 6 -81 11 -13 13 4 261 18
261 7 0 34 -12 61 -27z m325 -55 c24 -46 47 -91 51 -100 14 -33 17 -18 16 77
-1 96 2 112 21 100 7 -4 11 -56 11 -141 0 -121 -2 -134 -17 -134 -12 0 -34 30
-67 93 -27 50 -52 96 -57 102 -5 5 -9 -32 -9 -87 0 -89 -9 -124 -25 -98 -5 8
-9 210 -6 263 1 4 9 7 20 7 13 0 31 -24 62 -82z m882 75 c13 -13 -16 -33 -48
-33 -31 0 -32 -1 -39 -52 -3 -29 -6 -81 -6 -115 0 -49 -3 -63 -15 -63 -12 0
-15 19 -15 115 l0 115 -45 0 c-43 0 -58 14 -38 33 8 9 198 9 206 0z m-3888
-34 c34 -38 43 -98 26 -166 -16 -62 -36 -83 -77 -83 -71 0 -109 72 -97 180 8
67 36 100 86 100 25 0 41 -8 62 -31z m2239 -395 c3 -9 6 -86 6 -172 0 -284
-51 -432 -206 -607 -90 -100 -265 -241 -289 -231 -30 11 -13 35 57 82 40 27
112 88 160 136 185 184 234 312 239 628 2 91 5 168 7 173 6 12 20 8 26 -9z
m-1619 -442 c130 -44 353 -152 455 -222 96 -66 336 -304 416 -413 98 -132 158
-290 176 -457 13 -126 -4 -482 -29 -600 -20 -98 -85 -284 -129 -372 -38 -76
-140 -189 -280 -312 -98 -86 -233 -159 -394 -212 l-115 -38 -195 -1 c-213 0
-261 7 -479 70 -131 37 -339 123 -426 176 -68 40 -230 198 -299 289 -83 112
-170 298 -212 459 -70 269 17 698 200 981 228 351 476 569 743 650 110 33 156
38 323 35 141 -3 163 -6 245 -33z m475 -172 c30 -21 80 -50 110 -66 30 -15 60
-33 65 -39 14 -15 93 -65 102 -65 5 0 -17 16 -47 35 -30 19 -49 35 -43 35 5 0
27 -11 47 -25 21 -14 55 -34 77 -46 23 -11 68 -47 102 -79 33 -33 64 -57 69
-54 12 8 49 -16 46 -29 -3 -12 74 -95 117 -127 11 -7 -8 14 -43 48 -34 34 -59
62 -55 62 8 0 59 -51 157 -157 22 -23 40 -50 41 -60 1 -18 55 -105 55 -89 0 5
-12 25 -26 45 l-26 36 29 -31 c52 -57 178 -287 169 -310 -3 -8 -2 -14 2 -14 4
0 8 -12 8 -27 1 -29 53 -168 53 -145 1 8 -11 43 -25 78 -14 36 -24 67 -22 69
7 7 58 -133 58 -159 0 -13 -6 -27 -12 -29 -8 -4 -7 -6 4 -6 17 -1 29 -41 46
-151 16 -101 8 -436 -13 -527 -13 -61 -22 -83 -34 -84 -10 0 -12 -2 -3 -6 6
-2 11 -17 11 -31 -1 -20 -3 -22 -6 -8 -4 14 -11 4 -24 -35 -10 -30 -24 -64
-30 -75 -6 -12 -8 -31 -4 -43 4 -12 2 -21 -4 -21 -10 0 -75 -120 -68 -126 2
-2 18 24 36 58 17 35 29 53 25 40 -11 -43 -96 -192 -126 -223 -17 -16 -28 -33
-24 -36 3 -4 6 0 6 7 0 7 3 11 6 8 7 -8 -106 -158 -120 -158 -5 0 2 13 17 28
15 15 27 31 27 35 0 15 -64 -66 -65 -82 -1 -16 -99 -121 -113 -121 -4 0 18 26
48 58 l55 58 -62 -62 c-34 -34 -66 -58 -69 -55 -4 3 -4 0 0 -7 9 -15 -8 -39
-38 -53 -15 -7 -13 -3 7 15 15 14 24 26 18 26 -6 0 -25 -19 -43 -41 -34 -43
-194 -156 -205 -145 -4 3 -2 6 4 6 6 0 27 14 48 30 21 17 34 30 30 30 -8 0
-59 -37 -88 -66 -31 -30 -67 -47 -102 -49 -23 -2 -49 14 -120 70 -49 40 -95
78 -101 86 -8 9 -13 83 -16 209 l-4 196 90 49 c74 41 117 76 240 197 89 86
165 169 185 202 77 128 171 436 171 560 0 39 5 130 11 202 27 314 -39 565
-202 769 -31 38 -112 128 -180 199 -68 71 -123 134 -121 139 1 4 -2 6 -8 2 -5
-3 -29 9 -53 28 -23 18 -66 48 -94 66 -29 18 -53 35 -53 37 0 7 39 -15 100
-56z m-2026 -986 c-35 -178 -38 -355 -6 -469 34 -121 69 -208 133 -335 46 -91
78 -137 147 -215 118 -133 196 -203 282 -250 l71 -40 -6 -44 c-7 -43 -15 -76
-86 -336 -30 -109 -38 -128 -34 -85 3 31 2 47 -3 37 -8 -18 -9 -18 -22 -1 -12
15 -12 16 -1 9 10 -5 12 -4 7 4 -4 6 -11 9 -16 6 -20 -12 -244 238 -289 323
-19 36 -6 25 23 -19 15 -22 30 -39 32 -36 6 6 -17 37 -56 76 -42 44 -83 110
-76 126 3 8 1 15 -4 15 -13 0 -72 129 -66 143 3 7 5 6 6 -3 1 -20 60 -138 60
-122 0 7 -11 34 -25 60 -14 26 -25 53 -25 60 0 7 -7 15 -15 18 -10 4 -13 14
-9 29 3 13 1 32 -5 42 -9 15 -10 13 -6 -12 2 -16 -9 8 -25 55 -16 47 -29 101
-28 120 1 20 -2 42 -7 50 -10 16 -15 431 -5 445 4 6 10 58 14 117 3 59 17 164
31 235 14 70 25 130 25 132 0 2 2 2 5 0 2 -3 -7 -63 -21 -135z m907 -1478
c114 -38 301 -72 449 -82 157 -10 352 21 478 77 l62 28 0 -147 c0 -81 7 -187
15 -237 7 -49 19 -169 24 -265 6 -96 20 -233 31 -305 11 -71 32 -224 46 -340
14 -116 38 -275 54 -355 15 -80 31 -172 35 -205 3 -33 9 -72 11 -87 l6 -28
-697 0 -698 0 6 508 c6 583 30 966 73 1195 15 80 13 97 -11 97 -18 0 -30 -47
-49 -190 -40 -299 -58 -664 -60 -1187 l-1 -423 -103 0 -103 0 5 442 c4 454 17
635 62 919 18 113 138 575 155 595 10 12 36 19 85 23 12 0 68 -14 125 -33z
m2217 -562 c-7 -64 -15 -95 -29 -109 -19 -19 -19 -19 -19 5 0 14 -7 64 -17
112 -16 84 -15 90 2 142 l18 54 28 -58 c26 -56 27 -60 17 -146z m-17 -539 c6
-33 13 -69 15 -81 7 -28 -30 -44 -75 -32 -38 10 -38 -2 -1 163 31 136 32 138
42 70 4 -33 13 -87 19 -120z"/>
<path d="M2174 6122 c-23 -15 -34 -53 -34 -114 0 -35 4 -70 9 -77 13 -20 73
-19 105 2 23 15 26 24 26 73 0 30 -7 70 -14 89 -13 30 -20 35 -48 35 -18 0
-38 -4 -44 -8z"/>
<path d="M2380 6070 l0 -60 34 0 c77 0 121 43 98 95 -10 23 -17 25 -72 25
l-60 0 0 -60z"/>
<path d="M4950 5950 l0 -50 68 0 c99 0 138 34 92 80 -16 16 -33 20 -90 20
l-70 0 0 -50z"/>
<path d="M6079 6113 c-8 -9 -15 -47 -18 -94 -3 -74 -2 -78 23 -94 34 -22 53
-14 73 32 16 40 13 115 -7 153 -13 24 -52 26 -71 3z"/>
<path d="M6288 6134 c-5 -4 -8 -34 -8 -67 l0 -60 50 5 c27 3 56 11 65 18 19
16 20 74 0 90 -18 15 -97 25 -107 14z"/>
<path d="M5430 6014 l0 -107 47 6 c54 6 73 25 73 74 0 36 -38 86 -89 116 l-31
18 0 -107z"/>
<path d="M3520 5599 l0 -99 46 0 c63 0 84 13 84 54 0 38 -52 106 -100 130
l-30 14 0 -99z"/>
<path d="M5180 5595 l0 -95 53 0 c83 0 108 40 67 107 -18 31 -88 83 -110 83
-6 0 -10 -37 -10 -95z"/>
<path d="M2450 5675 c-16 -20 -18 -134 -2 -162 15 -26 53 -31 72 -8 6 8 14 41
17 73 4 46 2 65 -12 85 -19 30 -55 36 -75 12z"/>
<path d="M3530 4112 c0 -25 122 -148 174 -175 l41 -21 -55 -7 c-123 -14 -316
-158 -271 -202 10 -9 15 -8 26 8 32 46 94 97 151 125 53 26 72 30 143 30 126
0 157 -24 231 -173 25 -50 51 -93 59 -96 19 -5 11 25 -32 124 -38 88 -81 138
-150 175 -141 77 -173 99 -232 162 -67 70 -85 81 -85 50z"/>
<path d="M3050 3994 c-122 -39 -252 -72 -323 -79 -47 -5 -67 -11 -67 -21 0
-19 95 -18 180 1 142 33 310 90 308 104 -4 22 -18 22 -98 -5z"/>
<path d="M2597 3825 c-37 -13 -90 -37 -119 -52 -90 -49 -180 -143 -137 -143 6
0 33 20 59 43 51 46 152 99 235 124 91 28 232 1 326 -62 47 -31 51 -31 47 -3
-4 29 -61 61 -164 93 -100 31 -160 31 -247 0z"/>
<path d="M3555 3682 c-52 -33 -67 -57 -74 -123 -5 -40 -14 -66 -24 -74 -32
-23 -19 -35 41 -35 75 0 382 -27 451 -40 73 -13 91 -13 91 4 0 19 -43 32 -170
53 l-109 18 2 67 c2 65 1 69 -35 104 -31 32 -44 38 -90 41 -40 3 -60 -1 -83
-15z"/>
<path d="M2703 3666 c-73 -34 -99 -92 -73 -160 11 -30 19 -28 -150 -52 -113
-16 -163 -36 -127 -50 9 -3 38 -1 65 5 129 27 598 64 579 44 -5 -4 -23 -13
-40 -19 -39 -13 -50 -44 -15 -44 35 0 85 35 90 64 3 14 3 28 0 31 -3 3 -38 5
-79 5 -72 0 -73 0 -62 21 15 29 6 105 -16 130 -13 14 -104 51 -119 49 -1 0
-24 -11 -53 -24z"/>
<path d="M3330 2674 c-234 -28 -301 -35 -396 -43 -128 -12 -157 -20 -180 -56
-14 -22 -15 -29 -4 -51 12 -22 18 -24 64 -18 28 3 71 9 96 14 45 9 112 15 500
45 113 9 215 21 228 26 26 10 30 50 6 70 -16 13 -233 22 -314 13z"/>
<path d="M7118 6519 c-17 -9 -18 -169 -18 -3132 0 -2416 3 -3126 12 -3135 9
-9 720 -12 3140 -12 l3128 0 10 26 c7 16 10 1135 10 3125 0 3086 0 3099 -20
3119 -20 20 -33 20 -3132 20 -2096 -1 -3119 -4 -3130 -11z m6232 -1738 l0
-1709 -177 -7 c-98 -4 -293 -6 -433 -4 -140 1 -281 2 -313 1 l-59 -2 3 -567
c3 -554 -6 -928 -21 -953 -5 -8 -38 -15 -81 -18 l-74 -4 3 418 c1 230 0 425
-3 432 -4 11 -8 12 -19 3 -11 -9 -15 -9 -18 0 -5 16 -1235 16 -1252 -1 -13
-13 -13 -500 1 -716 l8 -131 -365 -6 c-201 -4 -434 -7 -517 -7 l-153 0 0 28
c0 15 -7 95 -15 177 -19 191 -19 178 4 165 34 -17 94 -11 136 14 35 21 40 22
51 8 16 -22 41 -9 57 30 16 38 21 197 7 233 -16 41 -38 30 -55 -27 -8 -28 -15
-66 -15 -84 0 -18 -5 -36 -11 -39 -6 -4 -7 -19 -4 -35 6 -25 2 -30 -46 -54
-62 -31 -80 -32 -107 -8 -17 14 -42 87 -42 121 0 6 24 22 54 36 114 54 183
139 217 268 72 270 2 449 -227 585 -84 50 -180 72 -318 72 -83 0 -99 -3 -152
-30 -66 -33 -178 -134 -215 -195 -59 -94 -79 -161 -79 -257 0 -192 60 -319
202 -423 l27 -20 -40 -170 c-22 -93 -47 -215 -55 -269 -8 -55 -17 -102 -19
-106 -2 -4 -219 -11 -482 -15 -585 -11 -514 -10 -1115 -7 l-498 2 0 2490 0
2490 3105 0 3105 0 0 -1709z m0 -2646 l0 -905 -470 0 c-425 0 -471 2 -477 16
-7 20 -7 222 0 1104 l6 675 468 5 c257 3 469 6 471 8 1 1 2 -405 2 -903z
m-3548 798 c68 -31 157 -94 203 -144 87 -94 116 -203 91 -345 -10 -59 -21 -93
-32 -101 -39 -28 -133 -55 -210 -60 -89 -6 -213 17 -235 43 -15 19 -39 18 -39
-1 0 -24 54 -51 141 -70 70 -15 92 -15 162 -5 45 6 103 20 130 30 l48 18 -7
-21 c-19 -67 -120 -150 -238 -197 -188 -75 -385 -41 -530 91 -61 56 -90 107
-117 212 -28 108 -25 184 11 274 49 121 127 211 242 279 42 24 48 25 188 21
120 -3 153 -7 192 -24z m2361 -768 c-3 -99 -7 -181 -7 -182 -1 -1 -60 -5 -132
-7 l-129 -5 -3 -34 c-3 -34 -4 -35 -55 -41 -75 -9 -592 -11 -605 -2 -7 4 -12
20 -12 36 0 17 -7 30 -17 34 -9 4 -74 6 -143 5 l-125 -1 -3 186 -2 186 187 3
c104 2 383 3 620 3 l433 -1 -7 -180z m-2725 -135 c94 -36 258 -38 345 -4 13 4
16 -8 21 -73 29 -353 45 -491 75 -643 l29 -145 -21 -17 c-20 -15 -135 -41
-239 -52 -70 -8 -294 11 -326 28 -63 32 -65 41 -58 198 10 191 29 327 77 540
21 98 39 180 39 183 0 7 -1 7 58 -15z m2722 -148 l0 -59 -120 -2 -120 -2 0 43
c0 24 4 48 8 55 8 13 52 19 160 21 l72 2 0 -58z m-982 -4 l-3 -53 -114 -3
c-129 -3 -131 -2 -131 66 l0 42 126 0 125 0 -3 -52z m704 -50 c3 -27 8 -33 38
-41 19 -5 81 -7 138 -5 l102 5 0 -133 0 -132 -42 -4 c-24 -3 -296 -2 -604 0
l-562 5 -6 51 c-3 28 -6 87 -6 131 l0 80 132 0 132 0 9 30 9 30 171 0 c147 0
436 8 474 13 6 1 13 -12 15 -30z m-2652 -398 l0 -60 -327 0 c-181 0 -596 -5
-923 -11 -327 -6 -650 -8 -717 -4 l-123 7 0 53 0 52 91 8 c50 3 316 4 592 1
276 -4 619 -3 762 2 143 5 347 10 453 10 l192 2 0 -60z m3120 3 l0 -56 -147 6
c-82 4 -587 0 -1123 -8 -536 -8 -1018 -15 -1071 -15 l-96 0 -11 53 c-5 28 -8
54 -5 57 2 3 530 6 1171 8 642 2 1169 5 1171 8 2 2 28 4 58 4 l53 0 0 -57z m6
-95 c4 -4 10 -36 13 -70 l6 -63 73 -3 72 -3 0 -29 c0 -36 23 -50 84 -50 l46 0
0 -67 c0 -38 -3 -131 -6 -208 l-7 -141 -851 -2 c-793 -2 -1022 -7 -1316 -31
-63 -5 -230 -8 -370 -7 l-255 3 -5 207 -5 206 52 25 c28 14 54 32 57 40 3 8
-1 49 -9 91 -8 41 -15 80 -15 85 0 5 202 10 488 10 268 1 667 5 887 9 494 9
1051 8 1061 -2z m-3136 -86 c0 -101 8 -118 74 -157 l43 -25 6 -93 c4 -50 7
-139 7 -196 l0 -104 -312 6 c-325 7 -1753 -8 -1845 -19 l-53 -7 0 337 0 337
38 -8 c43 -9 514 -7 1072 5 212 5 517 9 678 10 l292 2 0 -88z m3908 -59 c162
-12 72 -22 -245 -27 -313 -4 -323 -4 -323 15 0 18 10 19 243 19 133 0 279 -3
325 -7z m222 -255 l0 -253 -121 9 -121 9 6 45 c3 25 6 121 6 213 l0 169 60 0
60 0 0 30 c0 30 1 30 55 30 l55 0 0 -252z m-270 -22 c0 -213 0 -214 -22 -220
-30 -8 -173 -8 -286 0 l-92 7 0 207 c0 114 3 210 7 213 3 4 93 7 200 7 l193 0
0 -214z m-3277 -45 c3 -107 4 -197 2 -200 -1 -3 -95 -2 -208 3 l-205 9 -6 51
c-3 28 -6 114 -6 191 l0 140 209 0 208 0 6 -194z m3525 -224 c22 -2 22 -3 22
-184 l0 -183 -3105 0 -3105 0 0 168 0 169 108 7 c299 20 2151 25 2367 6 162
-13 799 -13 905 1 183 24 388 27 1565 23 671 -3 1230 -6 1243 -7z"/>
<path d="M9229 5045 c0 -3 -1 -67 -1 -142 0 -111 2 -138 13 -138 11 0 15 24
17 105 l3 105 40 -85 c40 -86 82 -140 106 -140 22 0 33 46 33 143 0 107 -6
137 -28 137 -13 0 -14 -15 -8 -109 5 -70 3 -111 -3 -115 -12 -8 -47 47 -76
114 -31 74 -66 130 -81 130 -8 0 -14 -2 -15 -5z"/>
<path d="M9783 5041 c-104 -6 -120 -11 -108 -32 5 -8 25 -10 61 -6 l54 6 0
-107 c0 -107 8 -141 29 -128 7 5 11 47 11 116 0 120 -4 112 65 122 26 4 34 39
8 36 -10 -1 -64 -4 -120 -7z"/>
<path d="M10214 5038 c-12 -18 11 -28 60 -28 l54 0 7 -83 c3 -45 6 -87 5 -92
-7 -31 2 -65 15 -65 12 0 15 20 15 120 l0 119 57 3 c46 2 58 7 61 21 3 17 -6
18 -133 15 -75 -2 -139 -6 -141 -10z"/>
<path d="M10568 5034 c-42 -22 -68 -82 -68 -157 0 -76 20 -102 87 -113 38 -6
45 -3 73 24 28 29 30 35 30 112 0 133 -41 178 -122 134z m82 -50 c14 -36 12
-124 -3 -154 -19 -37 -80 -41 -102 -6 -15 22 -16 35 -6 88 12 68 35 98 77 98
17 0 27 -8 34 -26z"/>
<path d="M10735 5040 c-10 -16 -4 -243 7 -264 9 -16 20 -18 85 -14 64 3 78 7
94 27 52 64 -13 176 -138 240 -25 12 -44 17 -48 11z m87 -75 c48 -33 80 -86
76 -127 -3 -32 -4 -33 -61 -38 -32 -3 -60 -3 -63 -1 -7 8 -4 191 4 191 4 0 24
-11 44 -25z"/>
<path d="M9529 5025 c-62 -34 -75 -212 -19 -257 31 -25 82 -23 108 5 27 29 46
106 40 168 -8 85 -63 120 -129 84z m88 -67 c9 -28 10 -52 3 -90 -12 -63 -24
-78 -61 -78 -22 0 -32 6 -39 26 -21 53 -7 157 23 176 7 5 23 7 37 6 19 -2 28
-12 37 -40z"/>
<path d="M11029 5025 c-38 -21 -52 -64 -53 -168 -1 -76 2 -92 14 -92 10 0 17
14 20 45 l5 45 58 3 57 3 0 -51 c0 -38 4 -50 15 -50 12 0 15 19 15 109 0 60
-3 117 -6 126 -8 19 -55 45 -81 45 -10 -1 -30 -7 -44 -15z"/>
<path d="M11200 4970 c0 -62 3 -74 25 -95 20 -21 34 -25 80 -25 41 0 55 -4 55
-14 0 -38 -70 -62 -98 -34 -9 9 -15 9 -24 -1 -11 -10 -8 -16 11 -32 28 -23 62
-24 100 -4 42 21 52 58 49 171 -2 80 -6 99 -18 99 -12 0 -14 -12 -12 -63 5
-75 -6 -92 -57 -92 -59 0 -75 19 -81 91 -3 37 -10 64 -17 67 -10 3 -13 -15
-13 -68z"/>
<path d="M9523 4553 c-4 -49 -8 -210 -8 -359 l0 -270 30 -59 c56 -110 140
-128 339 -76 144 38 210 46 280 31 62 -13 107 -45 133 -94 24 -45 21 -207 -6
-311 -28 -105 -85 -225 -143 -303 -51 -67 -57 -82 -33 -82 42 0 157 199 201
347 31 105 43 265 25 331 -17 61 -71 117 -133 138 -71 23 -214 15 -328 -20
-130 -40 -185 -43 -239 -14 -56 30 -77 70 -92 173 -11 78 -8 324 8 558 5 84 4
97 -10 97 -12 0 -17 -18 -24 -87z"/>
<path d="M8098 2985 c-2 -3 -29 -9 -59 -15 -59 -11 -140 -61 -188 -116 -16
-18 -48 -64 -70 -102 -60 -104 -88 -126 -203 -163 -55 -17 -121 -46 -146 -63
-86 -59 -139 -165 -129 -256 7 -62 57 -107 162 -144 145 -51 171 -83 191 -228
17 -118 41 -173 100 -228 96 -89 214 -76 353 37 134 109 177 110 399 3 132
-62 163 -73 221 -78 129 -9 226 40 289 147 24 41 27 56 27 136 0 135 -34 190
-192 309 -35 26 -68 57 -74 68 -12 22 -8 82 11 187 12 69 -3 141 -38 183 -36
42 -94 66 -194 79 -110 14 -126 21 -189 86 -110 113 -125 126 -164 144 -38 17
-96 25 -107 14z m567 -665 c3 -5 -25 -41 -62 -79 -69 -70 -100 -119 -133 -214
-10 -29 -24 -52 -31 -52 -8 0 -20 32 -31 85 -21 105 -21 110 -3 110 9 0 20
-19 28 -47 l14 -48 21 48 c23 53 78 125 132 174 36 34 54 40 65 23z"/>
<path d="M12728 2104 c-2 -75 0 -141 3 -146 13 -20 29 4 29 41 l0 38 57 6 c74
8 107 32 111 82 7 77 -38 115 -137 115 l-60 0 -3 -136z m142 86 c10 -5 22 -24
25 -42 10 -44 -20 -68 -86 -68 l-49 0 0 60 0 60 46 0 c25 0 54 -4 64 -10z"/>
<path d="M12987 2233 c-4 -3 -7 -69 -7 -145 0 -116 2 -138 15 -138 11 0 15 12
15 49 l0 48 48 6 c44 5 49 3 72 -26 57 -72 68 -82 80 -71 7 7 1 23 -25 57
l-36 46 21 21 c22 22 27 78 10 111 -17 31 -64 49 -128 49 -32 0 -62 -3 -65 -7z
m155 -53 c42 -52 11 -92 -69 -88 l-55 3 -4 49 c-2 27 -1 53 3 58 3 6 28 8 56
5 37 -3 56 -11 69 -27z"/>
<path d="M9395 1988 c-23 -101 -36 -253 -34 -416 1 -183 1 -183 -24 -210 -29
-32 -40 -62 -28 -81 12 -19 41 -6 41 18 0 21 62 81 109 106 17 8 31 20 31 26
0 16 -30 22 -56 11 -21 -10 -24 -9 -30 15 -11 42 4 341 21 437 9 49 14 95 11
102 -8 22 -35 16 -41 -8z"/>
<path d="M7150 450 l0 -160 3088 2 3087 3 -3082 2 -3083 3 0 150 0 149 83 4
82 3 -87 2 -88 2 0 -160z"/>
</g>
</svg>
