<?xml version="1.0" standalone="no"?>
<!DOCTYPE svg PUBLIC "-//W3C//DTD SVG 20010904//EN"
 "http://www.w3.org/TR/2001/REC-SVG-20010904/DTD/svg10.dtd">
<svg version="1.0" xmlns="http://www.w3.org/2000/svg"
 width="405.000000pt" height="563.000000pt" viewBox="0 0 405.000000 563.000000"
 preserveAspectRatio="xMidYMid meet">
<metadata>
Created by potrace 1.16, written by Peter Selinger 2001-2019
</metadata>
<g transform="translate(0.000000,563.000000) scale(0.100000,-0.100000)"
fill="#000000" stroke="none">
<path d="M690 5375 c0 -22 -3 -25 -25 -19 -35 9 -65 -20 -65 -62 0 -45 21 -62
75 -62 l45 1 0 84 c0 67 -3 83 -15 83 -9 0 -15 -9 -15 -25z"/>
<path d="M2455 4799 c-96 -7 -243 -32 -275 -49 -8 -4 -31 -10 -50 -14 -45 -8
-120 -72 -169 -145 -54 -80 -103 -234 -105 -337 -1 -11 -7 -28 -14 -36 -10
-12 -10 -18 2 -27 7 -6 17 -37 20 -69 11 -91 50 -205 95 -277 13 -22 24 -44
24 -50 -1 -5 -9 -66 -18 -135 -13 -92 -16 -162 -12 -265 6 -146 20 -287 32
-317 7 -16 -1 -18 -83 -18 l-91 0 -3 33 c-2 21 -8 31 -17 29 -7 -2 -42 7 -77
18 -53 18 -70 20 -96 11 -39 -14 -678 -15 -678 -2 0 40 4 41 236 41 l223 0 64
60 64 60 -8 47 c-13 84 -20 118 -25 136 -3 10 -7 32 -9 49 -3 17 -9 45 -14 62
-5 17 -13 51 -17 76 -4 25 -8 47 -9 50 -10 46 -18 90 -20 110 -2 14 -16 84
-30 155 -33 158 -30 145 -56 280 -13 69 -27 115 -37 123 -12 9 -130 12 -510
12 l-494 0 -51 -45 c-29 -25 -55 -45 -59 -45 -11 0 -1 -222 10 -229 10 -6 20
-33 27 -73 3 -13 8 -36 12 -53 9 -38 8 -33 17 -75 11 -54 46 -201 57 -244 6
-22 12 -49 15 -60 10 -56 37 -175 49 -212 10 -33 10 -60 -2 -150 -8 -60 -16
-119 -19 -131 -4 -23 -6 -23 -179 -23 -148 0 -175 -2 -175 -15 0 -12 27 -15
160 -17 l161 -3 -29 -35 c-18 -21 -27 -41 -24 -53 5 -19 14 -19 311 -12 168 4
314 11 323 16 9 5 104 9 212 9 134 0 195 3 198 11 3 8 45 11 131 10 160 -2
367 18 367 35 0 9 102 12 458 13 384 1 461 -1 477 -13 17 -12 23 -12 35 -1 11
9 82 15 270 20 276 7 308 0 130 -30 -125 -21 -158 -27 -315 -55 -66 -12 -145
-25 -175 -30 -54 -9 -73 -12 -250 -44 -73 -14 -247 -16 -1262 -16 -779 0
-1178 -3 -1178 -10 0 -7 682 -10 2025 -10 1324 0 2025 3 2025 10 0 6 -114 11
-307 12 l-308 3 -5 95 -5 95 -172 2 c-95 1 -177 4 -181 7 -9 5 -13 30 -32 200
-10 91 -25 140 -86 286 -24 58 -44 115 -44 128 0 13 -5 32 -11 43 -9 18 0 31
73 107 65 68 94 108 133 185 l50 98 2 122 c3 167 -18 256 -83 354 -31 47 -116
123 -170 151 -99 52 -255 73 -449 61z m257 -33 c112 -23 170 -47 238 -97 72
-53 117 -114 152 -204 20 -52 23 -78 23 -201 l0 -141 -49 -98 c-39 -80 -65
-115 -134 -187 -80 -82 -193 -167 -215 -160 -5 2 -17 -3 -26 -11 -9 -8 -37
-21 -62 -30 l-46 -15 -37 49 c-20 27 -36 51 -36 55 0 23 -125 160 -165 181
-29 16 -257 34 -275 23 -5 -3 -22 -22 -38 -43 -44 -55 -57 -49 -95 50 -14 38
-29 79 -33 93 -6 22 -5 23 10 11 23 -19 96 -9 135 19 25 19 31 31 31 60 0 26
7 43 25 60 19 18 22 27 14 41 -13 24 -29 24 -29 0 0 -27 -25 -33 -89 -21 -31
5 -72 11 -91 12 l-35 3 4 70 c6 135 95 320 184 388 19 15 57 32 84 38 26 6 55
15 63 19 8 4 44 12 80 19 36 6 85 15 110 20 71 14 229 12 302 -3z m-1422 -394
c0 -4 9 -50 19 -102 11 -52 32 -156 46 -230 15 -74 28 -142 30 -150 20 -96 35
-171 40 -200 3 -19 17 -91 31 -160 14 -69 28 -136 30 -150 3 -14 7 -32 9 -40
5 -16 -70 -99 -79 -89 -3 3 -8 20 -11 38 -3 19 -8 37 -10 40 -2 4 -6 26 -10
50 -3 24 -10 53 -14 65 -5 11 -12 44 -16 71 -5 28 -9 52 -10 55 -4 16 -16 68
-19 85 -2 11 -14 65 -26 120 -12 55 -35 164 -51 242 -17 78 -38 173 -47 210
l-17 68 -484 3 -483 2 43 40 44 39 493 1 c270 0 492 -4 492 -8z m-167 -172
c-21 -39 -47 -82 -59 -97 l-20 -26 -405 13 c-222 7 -407 15 -411 19 -3 3 -9
41 -13 84 l-7 77 476 0 477 0 -38 -70z m66 -40 c6 -30 15 -75 21 -100 12 -56
69 -326 76 -360 2 -14 7 -32 10 -40 3 -8 16 -69 30 -135 37 -187 53 -255 59
-264 3 -6 2 -12 -2 -14 -9 -6 -103 10 -111 18 -2 2 -15 53 -27 112 -12 59 -30
138 -39 176 -15 64 -31 132 -61 262 -8 33 -23 99 -34 147 -12 47 -21 94 -21
103 0 21 78 161 85 153 2 -1 8 -28 14 -58z m809 14 c68 -7 79 -17 68 -59 -12
-48 -90 -69 -146 -40 -27 14 -30 20 -30 66 0 48 1 51 23 46 12 -3 51 -9 85
-13z m-1299 -116 c236 -8 364 -16 366 -22 1 -6 12 -51 23 -101 12 -49 30 -128
40 -175 11 -47 34 -148 52 -225 17 -77 40 -174 50 -215 10 -41 16 -78 14 -82
-7 -11 -282 -10 -288 1 -3 5 -2 33 3 62 6 30 15 92 21 139 6 47 16 114 22 150
8 52 7 85 -7 165 -9 55 -20 103 -23 107 -12 13 -52 -4 -52 -21 0 -9 -5 -54
-10 -101 -11 -90 -29 -250 -35 -312 -2 -20 -6 -56 -10 -80 -3 -23 -7 -61 -9
-83 -2 -22 -7 -62 -11 -90 -5 -27 -8 -59 -9 -70 -1 -19 -8 -20 -220 -23 -121
-1 -223 1 -228 6 -4 4 -4 33 1 63 16 89 31 191 36 239 4 43 15 124 36 270 5
36 12 91 15 123 l7 57 213 0 c118 0 214 4 214 9 0 7 -377 26 -435 23 -14 -1
-27 -71 -51 -277 -2 -22 -10 -71 -17 -110 l-13 -70 -28 120 c-15 66 -45 194
-66 285 -22 91 -42 184 -46 208 l-7 42 44 0 c24 0 208 -5 408 -12z m1588 -195
c12 -15 38 -9 28 7 -3 4 11 3 30 -3 22 -6 44 -24 61 -49 15 -21 30 -38 35 -38
5 0 33 -37 63 -82 64 -97 65 -96 -67 -97 -137 -1 -249 41 -350 133 -39 36 -55
57 -52 71 2 11 4 28 4 38 1 23 51 43 62 25 6 -9 13 -9 31 0 46 23 135 20 155
-5z m-1318 -283 c-14 -131 -18 -157 -28 -220 -5 -30 -15 -101 -22 -158 -11
-83 -16 -102 -29 -100 -22 5 -19 80 11 323 5 44 14 114 19 155 5 41 15 118 22
170 l12 95 13 -85 c10 -65 11 -107 2 -180z m1206 52 c80 -42 130 -52 276 -52
139 0 149 -3 149 -40 0 -25 -207 -231 -340 -338 -161 -130 -179 -142 -209
-142 -28 0 -30 3 -44 68 -8 37 -15 91 -16 121 -1 29 -4 58 -7 63 -8 13 -7 198
2 276 4 37 7 71 5 76 -1 5 3 31 9 56 l11 47 57 -55 c31 -30 79 -66 107 -80z
m685 31 c27 -46 28 -80 7 -238 -19 -141 -29 -189 -57 -270 -12 -33 -24 -68
-27 -77 -3 -10 -10 -18 -15 -18 -6 0 -8 6 -6 13 5 12 -5 104 -15 142 -3 11
-14 56 -25 100 -19 76 -36 123 -68 189 -14 27 -13 31 12 67 14 21 33 44 42 51
11 10 113 71 129 77 0 1 11 -16 23 -36z m88 -175 c46 -121 68 -218 79 -350 l6
-78 -112 0 c-61 0 -111 2 -111 5 0 4 6 18 14 33 20 40 54 186 66 282 16 134
21 160 30 160 4 0 17 -24 28 -52z m-313 -10 c3 -13 14 -43 25 -68 10 -25 23
-63 28 -85 33 -126 42 -165 48 -212 l7 -53 -309 0 c-295 0 -307 1 -284 17 86
60 234 188 341 296 68 69 127 126 131 127 4 0 9 -10 13 -22z m-1035 -413 l0
-55 -138 0 -138 0 -29 30 c-16 17 -32 30 -37 30 -16 0 -7 -27 17 -50 13 -12
22 -27 19 -31 -3 -5 -92 -9 -199 -9 l-194 0 -3 37 c-2 20 -9 38 -15 40 -14 5
-13 -52 1 -75 4 -7 2 -14 -6 -17 -13 -5 -578 -12 -578 -8 0 1 14 23 32 48 23
33 39 45 57 45 14 1 123 1 240 1 174 0 218 2 231 14 12 11 55 15 193 17 208 3
241 20 55 28 -82 4 -21 7 185 8 l307 2 0 -55z m1808 -131 l-3 -69 -425 -2
c-252 0 -413 2 -395 8 17 4 86 18 155 29 69 12 145 25 170 30 25 4 77 13 115
20 39 6 138 24 220 39 83 15 154 25 158 21 4 -4 7 -38 5 -76z"/>
<path d="M2243 4244 c-3 -9 5 -26 19 -42 18 -19 27 -42 31 -77 10 -97 98 -133
244 -100 61 14 77 22 107 56 29 32 36 47 36 81 0 24 -7 49 -16 59 -17 19 -13
19 -224 -2 -122 -12 -170 -5 -170 26 0 20 -19 19 -27 -1z m408 -60 c5 -15 7
-35 4 -45 -9 -26 -71 -78 -103 -84 -15 -3 -43 -10 -62 -15 -40 -10 -122 7
-144 31 -19 19 -38 91 -27 102 5 5 57 13 117 18 60 6 111 12 113 15 2 2 24 4
48 4 38 0 45 -3 54 -26z"/>
<path d="M2370 1965 c-136 -22 -151 -25 -170 -35 -10 -6 -27 -10 -37 -10 -10
-1 -34 -9 -53 -20 -19 -10 -45 -23 -57 -29 -26 -12 -107 -119 -130 -171 -41
-93 -64 -183 -67 -272 -1 -15 -7 -33 -13 -39 -9 -9 -8 -15 3 -26 8 -8 14 -23
14 -34 0 -77 52 -237 103 -317 15 -23 25 -47 22 -51 -17 -29 -37 -267 -32
-391 6 -145 21 -294 32 -322 7 -16 -1 -18 -84 -18 l-91 0 0 36 c0 28 -3 35
-15 31 -8 -4 -46 5 -84 18 -41 13 -73 20 -76 14 -4 -5 -148 -9 -351 -9 -324 0
-345 1 -342 17 3 16 23 18 226 21 158 2 228 6 239 15 63 51 112 102 115 120 2
12 0 36 -4 52 -4 17 -10 46 -13 65 -3 19 -8 42 -10 50 -2 8 -7 31 -10 50 -3
19 -8 42 -10 50 -2 8 -6 26 -9 40 -6 34 -32 165 -68 345 -35 176 -32 160 -59
300 -13 69 -27 115 -37 123 -12 9 -130 12 -510 12 l-494 0 -59 -47 -59 -48 4
-100 c3 -60 11 -112 20 -130 8 -16 17 -41 19 -55 6 -32 14 -66 38 -170 11 -47
24 -103 29 -125 17 -76 49 -210 71 -295 12 -47 21 -98 21 -115 -1 -52 -23
-219 -31 -235 -7 -12 -39 -15 -180 -18 -103 -1 -171 -6 -171 -12 0 -6 63 -10
160 -10 88 0 160 -3 160 -6 0 -3 -11 -20 -24 -37 -13 -18 -26 -41 -28 -52 -3
-20 2 -20 307 -17 171 2 314 8 320 13 5 5 100 9 212 9 177 0 203 2 203 15 0
14 22 16 163 15 206 -2 337 8 337 26 0 18 895 20 935 2 19 -8 28 -9 33 -1 5 7
102 13 282 17 151 3 271 4 265 2 -9 -4 -124 -25 -255 -46 -30 -5 -80 -14 -110
-19 -30 -6 -107 -19 -170 -30 -63 -11 -167 -30 -230 -43 l-115 -23 -1222 -2
c-1074 -3 -1223 -5 -1223 -18 0 -13 241 -15 2025 -15 1793 0 2025 2 2025 15 0
13 -41 15 -310 15 l-310 0 0 94 c0 80 -3 95 -17 101 -10 3 -91 5 -180 4 -90
-1 -166 0 -169 4 -3 3 -7 27 -9 54 -6 95 -24 214 -44 276 -21 69 -65 180 -83
212 -6 11 -15 38 -18 60 -4 22 -10 47 -14 55 -4 10 19 41 72 95 80 82 122 147
166 254 23 56 24 72 22 194 -4 154 -23 227 -85 322 -42 66 -142 142 -223 171
-121 43 -318 55 -478 29z m368 -31 c180 -37 303 -135 358 -284 26 -73 29 -98
29 -232 l0 -126 -50 -98 c-42 -83 -66 -115 -145 -195 -89 -90 -164 -144 -201
-144 -9 -1 -23 -7 -31 -16 -9 -8 -35 -21 -58 -29 -42 -14 -43 -14 -67 15 -14
17 -51 68 -83 113 -33 46 -80 100 -106 120 -47 37 -47 37 -168 42 -134 6 -156
4 -156 -15 0 -7 -14 -25 -32 -40 l-32 -27 -15 22 c-17 25 -56 118 -65 153 -5
21 -3 22 53 19 50 -3 61 0 89 23 26 22 32 34 32 66 0 28 5 41 21 49 13 7 19
19 17 32 -4 29 -28 36 -28 9 0 -25 -29 -27 -145 -10 l-77 12 7 61 c6 56 24
131 44 181 5 11 14 34 21 50 18 46 100 150 135 171 49 30 230 77 330 87 105
10 252 6 323 -9z m-1439 -441 c7 -32 15 -67 17 -78 3 -11 12 -58 20 -105 9
-47 19 -106 24 -132 5 -27 11 -52 14 -56 3 -5 8 -31 12 -58 3 -27 8 -51 9 -54
2 -3 6 -25 10 -50 4 -25 8 -47 10 -50 2 -3 6 -23 9 -45 4 -22 21 -113 39 -203
l33 -163 -34 -39 c-18 -22 -37 -38 -41 -36 -7 4 -19 49 -35 131 -3 11 -13 58
-24 105 -11 47 -23 105 -27 130 -4 25 -18 88 -30 140 -20 80 -43 187 -95 445
-5 22 -13 52 -19 68 l-11 27 -480 0 c-264 0 -480 3 -480 8 1 4 20 21 43 39
l42 32 491 0 491 1 12 -57z m-139 -49 c0 -11 -102 -184 -113 -191 -17 -11
-807 20 -817 32 -5 6 -12 45 -16 88 l-7 77 477 0 c262 0 476 -3 476 -6z m20
-58 c0 -6 39 -196 51 -251 5 -22 16 -76 24 -119 8 -43 17 -87 20 -97 3 -9 8
-26 10 -36 2 -10 11 -49 20 -88 9 -38 23 -104 31 -145 19 -102 31 -159 43
-197 5 -17 7 -33 5 -36 -6 -5 -95 15 -111 26 -7 5 -13 18 -13 29 0 12 -7 50
-15 85 -8 35 -22 92 -30 128 -8 36 -22 93 -29 128 -8 34 -25 105 -37 157 -11
52 -31 136 -43 186 l-22 91 40 71 c35 60 56 86 56 68z m833 -41 c55 -6 57 -8
57 -35 0 -19 -9 -36 -27 -49 -37 -30 -68 -35 -111 -19 -35 13 -37 17 -42 66
l-6 53 36 -5 c19 -3 61 -8 93 -11z m-955 -120 c3 -2 16 -58 46 -187 9 -38 23
-96 31 -130 50 -219 89 -388 96 -423 4 -22 11 -48 14 -58 7 -16 -4 -17 -145
-17 l-152 0 6 27 c4 16 11 62 16 103 6 41 15 113 22 160 15 109 15 167 -1 260
-14 81 -26 104 -41 80 -5 -8 -10 -11 -10 -5 0 6 -3 6 -9 0 -6 -6 -15 -55 -20
-110 -6 -55 -15 -138 -21 -185 -5 -47 -11 -103 -14 -125 -2 -22 -9 -87 -16
-145 -7 -58 -15 -130 -19 -160 l-6 -55 -225 0 c-219 0 -225 1 -224 20 2 21 17
140 34 260 5 39 14 105 20 148 5 42 15 112 21 155 6 42 14 100 17 127 l7 50
206 -4 c144 -2 209 0 213 8 12 18 -9 20 -230 23 l-212 3 -12 -85 c-6 -47 -16
-109 -21 -138 -5 -29 -8 -56 -7 -60 3 -9 -25 -173 -28 -169 -1 1 -17 65 -34
142 -17 77 -47 203 -65 280 -19 77 -37 159 -41 182 l-7 43 404 -6 c222 -4 405
-8 407 -9z m1048 -182 c12 -16 15 -16 23 -3 14 21 140 19 155 -2 12 -16 40
-13 30 3 -7 12 -2 11 31 -1 15 -6 48 -33 73 -62 57 -63 142 -185 134 -192 -10
-11 -228 -6 -263 5 -58 18 -139 63 -167 91 -15 15 -31 28 -35 28 -4 0 -18 12
-31 27 -28 33 -25 81 7 105 27 22 27 22 43 1z m-1137 -134 c13 -83 9 -124 -35
-409 -8 -52 -17 -122 -20 -155 -6 -56 -18 -80 -35 -69 -11 7 -3 108 31 399 5
44 14 121 20 170 11 94 19 145 25 145 1 0 8 -36 14 -81z m1133 -53 c53 -39
131 -81 174 -93 16 -4 90 -8 165 -9 75 0 141 -4 148 -8 6 -4 11 -16 11 -27 0
-25 -210 -242 -315 -325 -44 -35 -87 -70 -95 -78 -72 -68 -170 -105 -175 -66
-2 8 -7 40 -13 70 -6 30 -11 74 -11 97 -1 24 -4 60 -9 80 -11 52 4 329 23 413
l8 34 21 -26 c11 -14 42 -42 68 -62z m767 -38 c17 -39 21 -62 16 -88 -4 -19
-8 -46 -9 -60 -2 -14 -6 -43 -9 -65 -4 -22 -9 -62 -12 -90 -7 -60 -21 -125
-34 -157 -5 -13 -17 -44 -26 -70 -9 -27 -20 -48 -23 -48 -4 0 -8 19 -8 43 -2
44 -61 294 -74 312 -4 6 -13 28 -20 50 -7 22 -16 45 -21 51 -17 21 47 96 118
135 37 21 71 39 74 39 3 0 16 -24 28 -52z m79 -160 c48 -124 65 -200 78 -344
l7 -71 -108 -6 c-60 -4 -109 -6 -111 -4 -1 1 7 29 18 62 32 95 45 153 57 255
16 136 21 160 30 160 5 0 18 -24 29 -52z m-308 -19 c0 -11 9 -36 20 -56 11
-21 20 -44 20 -52 0 -8 4 -28 10 -45 19 -61 50 -200 50 -228 l0 -28 -307 1
c-293 0 -307 1 -283 17 13 9 43 33 66 52 22 19 59 49 82 65 22 17 103 93 179
170 136 138 163 155 163 104z m-1040 -404 l0 -55 -137 0 -138 0 -31 37 c-43
51 -65 35 -23 -18 l31 -39 -201 0 -201 0 0 35 c0 24 -5 35 -15 35 -10 0 -14
-9 -12 -33 2 -18 6 -37 10 -43 5 -8 -76 -13 -284 -19 -160 -4 -292 -5 -295 -3
-2 3 12 26 33 52 l36 47 240 -1 c162 -1 242 2 247 9 4 7 68 11 180 12 95 0
179 3 187 6 38 15 -1 23 -129 26 -79 1 2 4 180 5 l322 2 0 -55z m1810 -120 l0
-75 -427 1 c-386 1 -420 3 -348 14 70 11 161 27 375 66 30 6 80 14 110 19 30
5 82 14 115 20 33 6 83 15 110 19 28 5 53 9 58 10 4 0 7 -33 7 -74z"/>
<path d="M2243 1413 c-4 -11 3 -23 20 -37 19 -15 27 -31 27 -53 0 -72 27 -107
101 -129 89 -27 218 8 269 73 23 30 27 100 6 128 -14 20 -41 19 -259 -4 -94
-10 -137 -3 -137 24 0 20 -19 19 -27 -2z m404 -109 c-21 -42 -54 -63 -125 -80
-72 -17 -144 -9 -170 20 -17 18 -42 76 -42 96 0 9 112 26 235 37 88 8 90 8
104 -16 11 -21 11 -29 -2 -57z"/>
</g>
</svg>
