<?xml version="1.0" standalone="no"?>
<!DOCTYPE svg PUBLIC "-//W3C//DTD SVG 20010904//EN"
 "http://www.w3.org/TR/2001/REC-SVG-20010904/DTD/svg10.dtd">
<svg version="1.0" xmlns="http://www.w3.org/2000/svg"
 width="531.000000pt" height="578.000000pt" viewBox="0 0 531.000000 578.000000"
 preserveAspectRatio="xMidYMid meet">
<metadata>
Created by potrace 1.16, written by Peter Selinger 2001-2019
</metadata>
<g transform="translate(0.000000,578.000000) scale(0.100000,-0.100000)"
fill="#000000" stroke="none">
<path d="M1290 5586 c0 -46 -3 -98 -6 -115 l-7 -32 64 3 c57 3 65 6 78 29 22
39 0 102 -54 156 -65 65 -75 60 -75 -41z m90 14 c9 -14 23 -42 30 -63 10 -32
9 -41 -4 -62 -13 -20 -25 -25 -61 -25 l-45 0 0 106 0 105 31 -18 c17 -10 39
-29 49 -43z"/>
<path d="M1923 5655 c-23 -16 -53 -93 -53 -137 0 -34 39 -78 69 -78 11 0 32
11 48 24 25 22 28 30 26 84 -2 101 -38 144 -90 107z m62 -29 c11 -17 15 -42
13 -82 -3 -48 -7 -60 -30 -77 -25 -19 -28 -19 -52 -3 -33 21 -41 55 -26 103
27 83 64 107 95 59z"/>
<path d="M2039 5603 c0 -38 -2 -89 -4 -115 -2 -27 0 -48 5 -48 6 0 10 18 10
40 0 39 1 40 34 40 21 0 40 -7 48 -17 25 -33 70 -69 63 -51 -4 9 -18 24 -31
33 -29 19 -31 41 -4 48 44 11 32 104 -16 126 -14 6 -43 11 -64 11 l-40 0 -1
-67z"/>
<path d="M70 4100 l0 -1270 1270 0 1270 0 0 1270 0 1270 -1270 0 -1270 0 0
-1270z m2525 70 l0 -1185 -167 -3 c-93 -1 -168 0 -168 2 0 3 13 54 30 113 45
162 80 400 80 540 0 103 -3 125 -22 163 l-23 45 -88 5 -89 5 -3 53 c-8 120
-117 270 -219 305 -68 23 -178 22 -260 -4 -56 -17 -77 -30 -130 -82 -107 -105
-144 -218 -112 -333 26 -89 76 -159 150 -206 63 -40 64 -41 70 -95 6 -50 3
-61 -34 -134 -22 -43 -51 -97 -66 -120 -14 -22 -23 -43 -21 -45 5 -5 51 66 92
141 l27 50 -6 -62 c-6 -69 -47 -204 -77 -252 -18 -29 -22 -31 -79 -31 -68 0
-79 15 -30 43 17 10 30 22 30 28 0 5 9 9 21 9 19 0 20 4 16 38 -3 20 -54 235
-114 477 l-108 440 -548 3 c-516 2 -547 1 -547 -15 1 -10 49 -225 108 -478
l108 -460 116 -3 116 -3 6 -30 c3 -17 20 -49 37 -70 l31 -39 -321 0 -321 0 0
1183 c0 651 3 1187 7 1190 3 4 569 6 1257 5 l1251 -3 0 -1185z m-643 18 c61
-37 114 -98 150 -175 28 -59 30 -70 26 -151 -4 -75 -9 -97 -41 -158 -58 -115
-153 -174 -276 -174 -99 0 -238 56 -295 119 -16 18 -15 18 36 5 80 -21 232
-18 298 7 30 11 61 21 68 21 14 2 15 8 2 28 -7 11 -10 11 -10 2 0 -7 -21 -23
-47 -35 -41 -19 -65 -22 -173 -22 -107 0 -132 3 -171 21 -42 20 -49 28 -69 80
-47 125 -20 242 81 349 81 86 158 114 305 111 56 -2 80 -7 116 -28z m-928
-127 l180 -6 18 -70 c10 -38 62 -244 117 -457 l99 -388 -179 0 -179 0 0 23 c0
12 9 33 20 47 39 50 36 51 -192 48 l-212 -3 -23 -34 c-13 -19 -23 -45 -23 -58
l0 -24 -112 3 -112 3 -102 435 c-56 239 -105 447 -108 463 l-5 27 317 -1 c174
-1 398 -4 496 -8z m1273 -243 c-3 -13 -9 -108 -12 -213 -9 -265 -21 -393 -52
-517 -23 -96 -29 -108 -47 -108 -21 0 -22 3 -18 123 6 169 -14 270 -79 400
-43 87 -47 102 -35 116 25 29 75 139 82 180 l7 41 79 0 c78 0 80 -1 75 -22z
m-222 -318 c25 -50 53 -121 61 -158 17 -72 24 -288 11 -334 l-7 -28 -100 0
-99 0 -3 28 c-3 26 -5 27 -72 30 -51 2 -73 7 -82 20 -9 12 -9 20 -1 30 8 11
13 9 22 -8 10 -19 13 -20 24 -6 15 17 5 40 -12 30 -7 -4 -8 -3 -4 2 15 16 42
10 47 -11 5 -18 8 -16 22 13 16 32 16 32 -8 32 -22 0 -19 6 41 85 75 99 115
173 115 212 -1 22 -4 18 -18 -22 -10 -28 -28 -66 -42 -85 -76 -111 -138 -186
-173 -211 -37 -27 -41 -27 -67 -14 -26 14 -32 12 -87 -17 -32 -17 -59 -34 -61
-39 -2 -5 -8 -9 -12 -9 -5 0 4 28 19 63 50 110 66 190 66 322 l0 121 39 -14
c22 -7 75 -13 119 -14 72 0 86 3 146 35 36 19 67 35 68 36 2 1 23 -40 48 -89z
m-995 -292 c-39 -65 -18 -185 38 -218 12 -6 -47 -9 -180 -10 l-197 0 -37 46
c-34 41 -38 52 -39 103 0 38 6 66 18 84 l17 27 200 0 200 0 -20 -32z m90 -88
c0 -5 -6 -10 -14 -10 -20 0 -31 -19 -18 -32 6 -6 15 -4 25 6 10 10 18 12 22 6
4 -6 12 -5 21 5 9 8 12 19 9 25 -3 5 1 10 9 10 10 0 13 -6 10 -15 -4 -9 0 -15
10 -15 9 0 16 7 16 15 0 13 15 14 103 9 56 -4 103 -8 104 -9 2 -1 -10 -11 -27
-23 -22 -17 -35 -20 -52 -13 -95 36 -97 36 -137 -3 -34 -34 -41 -36 -100 -36
-53 0 -62 2 -57 16 3 9 6 21 6 27 0 6 7 2 16 -9 14 -18 15 -18 8 6 -9 35 -14
38 -28 17 -18 -24 -26 -21 -26 8 0 23 3 25 50 25 28 0 50 -4 50 -10z m756
-102 c2 -3 2 -13 -2 -22 -6 -14 -39 -16 -334 -16 -282 0 -329 2 -334 15 -4 11
-21 15 -63 15 -32 0 -65 5 -73 11 -11 7 105 9 393 6 224 -2 410 -7 413 -9z
m672 -110 l-3 -63 -1255 0 -1255 0 -3 63 -3 62 1261 0 1261 0 -3 -62z"/>
<path d="M2670 4100 l0 -1270 1270 0 1270 0 0 1270 0 1270 -1270 0 -1270 0 0
-1270z m2530 70 l0 -1190 -166 0 -166 0 7 33 c19 87 37 131 215 537 69 158 72
167 68 230 -2 36 -10 79 -19 95 -13 28 -19 30 -74 33 -84 3 -105 9 -105 31 0
32 -60 140 -105 185 -49 51 -102 81 -161 90 -57 10 -200 -10 -251 -35 -62 -30
-138 -111 -176 -188 -27 -55 -32 -76 -31 -131 2 -98 34 -172 106 -243 l59 -57
-11 -58 c-7 -42 -25 -79 -67 -142 -76 -115 -137 -194 -202 -262 l-54 -58 -182
0 c-200 0 -195 -2 -195 62 l0 31 225 -7 c124 -4 225 -5 225 -2 0 7 -218 911
-226 939 -5 16 -40 17 -555 17 -302 0 -549 -1 -549 -2 0 -14 220 -940 225
-948 4 -6 53 -10 121 -10 108 0 114 -1 114 -20 0 -26 23 -72 44 -89 9 -8 16
-17 16 -22 0 -5 -143 -9 -320 -9 l-320 0 0 1190 0 1190 1255 0 1255 0 0 -1190z
m-432 4 c62 -31 112 -87 154 -171 28 -57 30 -68 27 -150 -4 -79 -8 -98 -41
-165 -59 -119 -144 -170 -277 -170 -90 1 -167 26 -248 80 -52 34 -70 59 -35
48 116 -37 250 -31 373 16 34 13 36 15 23 33 -11 14 -14 15 -14 4 0 -41 -163
-74 -289 -58 -109 13 -141 32 -168 99 -46 113 -24 230 62 334 75 92 150 124
291 125 78 1 97 -3 142 -25z m-951 -118 c4 -4 233 -895 233 -908 0 -5 -81 -8
-180 -8 -118 0 -180 4 -180 10 0 6 9 28 20 50 11 22 20 44 20 50 0 6 -70 10
-207 10 l-208 0 -21 -33 c-12 -17 -25 -44 -28 -59 l-6 -28 -110 0 c-61 0 -110
3 -110 6 0 3 -47 208 -105 455 -58 248 -105 455 -105 461 0 8 134 10 491 5
271 -4 494 -8 496 -11z m1276 -162 c3 -3 -4 -27 -15 -52 -37 -84 -78 -215
-114 -354 -18 -75 -50 -190 -70 -255 -20 -65 -44 -147 -54 -183 -15 -57 -20
-65 -44 -68 -14 -2 -26 -1 -26 3 0 3 11 33 25 68 50 120 70 272 57 429 -6 82
-5 98 8 106 41 25 110 201 110 279 l0 33 58 0 c32 0 61 -3 65 -6z m-468 -389
c77 0 98 4 147 27 31 14 59 24 62 20 3 -3 6 -65 6 -138 0 -170 -18 -265 -74
-396 l-16 -37 -24 24 -24 24 30 83 c34 94 82 338 70 350 -4 4 -16 -43 -26
-104 -18 -112 -55 -247 -82 -300 -12 -23 -21 -28 -50 -28 -25 0 -42 -7 -59
-26 -14 -15 -25 -23 -26 -18 -1 5 -2 18 -3 29 -1 19 -10 20 -189 25 l-188 5
51 64 c28 35 61 84 74 110 39 77 94 234 101 287 l7 51 62 -26 c49 -20 78 -25
151 -26z m-915 -274 c0 -6 -4 -13 -10 -16 -17 -10 -32 -86 -25 -127 4 -22 20
-54 37 -74 l30 -34 -189 0 -189 0 -31 33 c-43 45 -53 69 -53 125 0 35 6 57 21
76 l20 26 195 0 c114 0 194 -4 194 -9z m688 -208 c129 -6 142 -8 142 -25 0
-17 -16 -18 -335 -18 -291 0 -335 2 -335 15 0 12 -13 15 -57 16 -32 0 -67 4
-78 9 -24 10 457 13 663 3z m802 -118 l0 -65 -1255 0 -1255 0 0 65 0 65 1255
0 1255 0 0 -65z"/>
<path d="M75 2738 c-3 -7 -4 -580 -3 -1273 l3 -1260 2565 0 2565 0 0 1270 0
1270 -2563 3 c-2045 2 -2564 0 -2567 -10z m5125 -1263 l0 -1255 -2560 0 -2560
0 0 1255 0 1255 2560 0 2560 0 0 -1255z"/>
<path d="M2022 2542 l-12 -40 -45 14 c-55 16 -39 48 -131 -263 -57 -197 -71
-233 -87 -233 -10 0 -32 -13 -48 -29 -35 -35 -39 -86 -10 -123 20 -25 20 -25
-20 -158 -22 -74 -37 -139 -35 -146 2 -6 18 -14 35 -17 24 -5 29 -11 25 -24
-5 -16 -4 -16 8 -2 12 14 27 12 164 -24 134 -35 151 -42 147 -58 -3 -11 -13
-19 -23 -19 -24 0 -34 -28 -12 -34 105 -31 312 -86 324 -86 21 0 32 29 13 36
-14 6 -22 44 -9 44 16 0 100 -24 108 -30 4 -5 3 -40 -4 -79 l-12 -71 -39 0
c-28 0 -39 4 -39 15 0 13 -44 15 -340 15 -296 0 -340 -2 -340 -15 0 -12 -19
-15 -115 -15 l-115 0 0 -25 c0 -20 5 -25 25 -25 l25 0 0 -350 c0 -372 -2 -357
48 -344 l22 6 0 345 0 344 434 -2 434 -1 5 -44 c6 -53 28 -90 68 -112 27 -15
30 -21 25 -52 -12 -69 -17 -406 -8 -465 7 -44 8 -10 5 130 -3 127 0 218 9 275
12 77 15 85 33 80 31 -8 187 -5 221 4 l31 8 12 -104 c16 -128 67 -383 81 -406
10 -14 10 -13 6 8 -29 127 -67 333 -77 412 l-11 98 30 35 c17 19 36 54 42 77
6 24 13 49 15 55 3 8 23 13 55 13 l50 0 0 -123 0 -123 -41 -39 c-43 -42 -76
-95 -60 -95 5 0 12 8 15 18 4 10 24 36 46 57 49 48 55 26 10 -37 -16 -22 -30
-48 -30 -57 0 -9 13 4 28 29 l27 45 3 -192 c3 -203 2 -200 49 -187 22 6 23 8
25 227 l3 221 82 41 c45 22 82 45 83 51 0 7 21 16 48 22 37 7 40 10 17 11 -16
0 -68 -13 -115 -30 -47 -16 -93 -32 -102 -35 -16 -6 -18 3 -18 95 l0 101 30 0
c23 0 30 4 30 20 0 18 -8 20 -112 22 l-113 3 -6 100 c-6 97 -25 170 -64 245
-14 28 -15 39 -5 76 7 24 20 49 29 57 80 72 91 86 91 117 0 32 -15 70 -32 81
-11 7 18 115 33 125 18 11 19 -2 3 -50 -9 -26 -14 -49 -11 -52 3 -3 13 19 22
48 10 29 20 56 24 60 3 4 60 16 126 28 180 31 215 40 215 56 0 21 -45 35 -138
41 -46 3 -79 10 -75 14 4 4 64 24 133 45 117 35 156 51 146 61 -2 2 -12 0 -23
-6 -10 -5 -58 -22 -108 -36 -124 -37 -195 -65 -195 -76 0 -5 24 -9 53 -9 64 0
179 -18 191 -30 8 -8 -21 -15 -189 -45 -49 -9 -100 -19 -112 -21 -21 -6 -21
-3 13 103 19 59 33 115 31 123 -1 8 -19 -40 -40 -107 -34 -110 -50 -143 -63
-131 -2 3 8 44 22 92 14 48 22 91 18 96 -5 4 -218 69 -474 144 -256 75 -470
139 -477 141 -9 3 -10 12 -2 34 6 17 9 36 7 42 -2 7 -9 -6 -16 -29z m-70 -57
c-2 -11 -40 -138 -84 -282 -62 -201 -84 -260 -95 -256 -8 3 -12 11 -10 17 2 6
40 132 83 279 61 210 82 267 94 264 9 -1 14 -11 12 -22z m568 -298 c134 -68
188 -157 178 -290 -7 -77 -33 -130 -91 -184 -125 -116 -369 -86 -459 56 -26
42 -27 46 -11 55 27 15 105 10 141 -8 68 -35 132 -11 132 49 0 62 -60 85 -155
60 -33 -9 -79 -27 -102 -41 l-43 -25 0 57 c0 115 101 262 205 296 81 26 112
22 205 -25z m-760 -188 c0 -6 -5 -19 -10 -29 -8 -15 -6 -21 9 -30 30 -15 40
-12 47 15 7 28 31 34 40 10 4 -9 1 -29 -6 -46 -24 -57 -114 -80 -144 -37 -23
32 -20 62 10 97 25 31 54 41 54 20z m946 -306 c99 -121 124 -167 155 -284 35
-136 14 -324 -43 -386 -12 -12 -24 -20 -28 -18 -5 3 -10 -1 -13 -9 -12 -30
-147 -46 -219 -25 -29 7 -38 15 -38 32 -1 21 -1 21 -14 4 -13 -17 -16 -17 -45
10 -46 42 -58 103 -41 205 7 46 15 134 17 196 l5 112 29 0 c16 0 29 5 29 10 0
6 -13 10 -30 10 -25 0 -30 4 -30 24 0 13 -2 31 -6 39 -4 10 6 16 38 21 61 10
119 38 153 74 17 18 33 32 36 32 3 0 24 -21 45 -47z m-306 -518 c0 -13 -57
-15 -452 -15 -249 0 -470 3 -490 6 -107 18 7 24 452 24 429 0 490 -2 490 -15z
m-880 -365 l0 -340 -25 0 -25 0 0 340 0 340 25 0 25 0 0 -340z m1530 -135 l0
-205 -25 0 -25 0 0 187 c0 159 2 189 17 205 9 10 20 18 25 18 4 0 8 -92 8
-205z"/>
<path d="M3992 2438 c3 -56 5 -63 25 -66 14 -2 32 6 48 22 16 16 25 20 25 11
0 -19 38 -29 55 -15 19 16 19 84 1 99 -20 17 -46 2 -53 -30 -5 -27 -23 -41
-23 -19 0 17 -47 60 -65 60 -13 0 -15 -11 -13 -62z"/>
<path d="M3544 1025 c-12 -19 -16 -53 -17 -154 l-1 -130 -54 -7 c-36 -4 -62
-3 -74 5 -10 6 -49 11 -88 11 l-70 0 0 64 c0 36 5 68 10 71 14 9 12 42 -2 48
-18 6 -48 -11 -48 -27 0 -8 7 -19 15 -26 21 -18 21 -296 0 -324 -18 -24 -3
-46 30 -46 30 0 42 30 19 47 -11 8 -18 31 -21 68 l-4 55 44 0 c24 0 91 3 149
6 l105 7 19 -124 19 -124 405 0 c401 0 405 0 408 21 2 11 -7 29 -19 40 -20 18
-36 19 -223 18 -176 -1 -401 -20 -483 -40 -21 -6 -20 -3 12 58 49 92 62 167
48 277 -13 101 -36 154 -88 199 -43 38 -69 40 -91 7z"/>
</g>
</svg>
