<?xml version="1.0" standalone="no"?>
<!DOCTYPE svg PUBLIC "-//W3C//DTD SVG 20010904//EN"
 "http://www.w3.org/TR/2001/REC-SVG-20010904/DTD/svg10.dtd">
<svg version="1.0" xmlns="http://www.w3.org/2000/svg"
 width="680.000000pt" height="680.000000pt" viewBox="0 0 680.000000 680.000000"
 preserveAspectRatio="xMidYMid meet">
<metadata>
Created by potrace 1.16, written by Peter Selinger 2001-2019
</metadata>
<g transform="translate(0.000000,680.000000) scale(0.100000,-0.100000)"
fill="#000000" stroke="none">
<path d="M0 3395 l0 -3385 3400 0 3400 0 0 3385 0 3385 -1556 0 -1557 0 41
-32 c117 -94 168 -248 159 -477 -8 -219 -71 -382 -191 -502 -37 -37 -128 -79
-171 -79 -16 0 -30 -11 -45 -35 -25 -40 -45 -46 -36 -11 13 51 6 54 -147 54
-272 0 -973 21 -1057 32 -159 20 -222 46 -348 140 -69 52 -144 169 -171 267
-27 100 -27 177 0 301 28 130 58 190 138 273 l66 69 -962 0 -963 0 0 -3385z
m6634 3027 c22 -469 31 -912 18 -912 -4 0 -45 34 -90 75 l-83 75 -113 0 c-63
0 -121 3 -130 6 -19 7 -22 73 -3 79 6 2 85 6 174 9 90 2 167 8 173 11 6 4 10
104 10 271 0 286 -3 307 -55 354 -26 25 -29 25 -203 25 -98 0 -384 4 -637 8
-482 9 -1578 -12 -1597 -31 -4 -4 -7 -143 -6 -307 l3 -299 35 -20 c32 -19 50
-21 208 -19 l173 2 -3 -52 -3 -52 -205 -6 c-113 -3 -206 -6 -207 -7 -1 -1 -1
-194 0 -428 l2 -427 -37 -13 c-20 -7 -66 -26 -102 -43 -37 -17 -104 -44 -149
-60 -102 -36 -220 -88 -270 -118 -21 -13 -42 -21 -47 -18 -5 3 6 36 24 73 19
37 39 84 46 106 30 93 1 300 -61 431 -32 69 -117 175 -180 228 -161 131 -434
163 -657 77 -150 -58 -294 -200 -376 -370 -39 -81 -41 -90 -45 -197 -4 -124 8
-173 63 -275 59 -110 197 -227 309 -264 29 -9 53 -18 54 -18 2 -1 -6 -27 -17
-56 -11 -30 -23 -82 -26 -116 -10 -100 21 -167 107 -228 42 -31 46 -38 57 -98
23 -125 17 -179 -30 -270 l-41 -80 -226 6 c-124 4 -353 8 -509 9 -155 1 -282
5 -282 10 0 4 12 12 27 18 16 6 45 20 66 30 22 11 51 19 67 19 38 0 54 22 47
68 -24 158 -131 504 -197 637 -30 62 -36 82 -26 90 48 38 66 56 109 106 84
100 139 311 121 469 -18 170 -111 391 -207 496 -68 75 -158 137 -264 183 -127
55 -184 65 -373 66 -151 0 -174 -3 -265 -28 -220 -62 -314 -113 -440 -242
-131 -133 -164 -223 -164 -445 -1 -206 27 -297 128 -418 28 -33 80 -82 116
-109 36 -26 65 -50 65 -53 0 -3 -12 -19 -27 -36 -128 -140 -234 -302 -288
-437 -20 -51 -38 -93 -38 -94 -1 -1 -2 605 -2 1345 l0 1347 450 7 c396 6 1074
2 1083 -7 2 -1 -4 -40 -12 -85 -29 -150 -15 -268 45 -397 45 -94 98 -154 194
-218 188 -125 151 -121 1305 -149 l175 -4 -3 -41 c-3 -29 1 -43 11 -47 22 -8
71 20 104 59 19 24 40 37 67 41 75 14 116 38 175 102 32 36 75 95 95 133 79
151 114 384 82 552 -9 47 -16 90 -16 96 0 7 131 11 417 12 229 0 418 3 421 6
2 2 426 4 942 4 l937 0 7 -147z m-799 -62 c127 -6 327 -12 445 -13 l215 -2 3
-257 2 -257 -267 1 c-558 2 -1814 -9 -1950 -17 -136 -7 -143 -7 -144 11 0 11
0 134 0 274 l0 254 498 4 c274 2 503 5 508 7 22 8 474 4 690 -5z m283 -624 c1
-3 2 -19 2 -35 l0 -29 -447 -6 c-247 -3 -586 -8 -755 -11 l-308 -6 0 49 0 49
753 -2 c413 -1 753 -5 755 -9z m-4906 -126 c185 -21 369 -117 471 -245 109
-137 195 -413 173 -559 l-7 -45 -52 2 c-29 1 -54 -2 -57 -8 -2 -5 19 -18 48
-29 29 -10 52 -25 52 -32 0 -8 -12 -44 -26 -80 -30 -74 -118 -188 -170 -220
-19 -11 -36 -23 -39 -26 -3 -3 10 -31 30 -63 66 -110 156 -372 205 -599 24
-107 23 -96 7 -96 -7 0 -32 -9 -55 -20 -22 -11 -46 -20 -52 -20 -7 0 -25 -8
-41 -17 -15 -9 -31 -14 -34 -11 -3 3 -19 74 -35 159 -35 181 -77 311 -100 307
-13 -3 -15 -38 -13 -264 l3 -260 -353 -10 c-193 -5 -401 -8 -461 -6 l-109 3 7
157 c3 86 9 208 12 269 6 99 5 113 -10 119 -22 9 -36 -5 -107 -105 -64 -88
-126 -204 -149 -276 -17 -54 -23 -59 -45 -35 -10 11 -26 20 -36 20 -10 0 -23
9 -29 20 -6 11 -20 20 -30 20 -17 0 -20 7 -20 40 0 42 53 196 98 285 25 51
126 204 159 240 114 129 144 167 139 180 -3 8 -23 23 -46 35 -54 28 -171 139
-211 201 -50 79 -69 163 -69 312 0 172 17 245 78 333 83 120 248 236 397 280
175 51 309 63 477 44z m1886 -186 c104 -27 177 -71 251 -150 88 -94 133 -175
161 -289 51 -202 24 -328 -104 -489 -16 -20 -26 -39 -22 -43 3 -4 55 15 114
41 187 83 551 230 610 246 38 10 46 9 56 -5 6 -9 20 -17 31 -19 13 -2 21 -11
22 -27 1 -13 7 -53 13 -88 6 -35 7 -67 3 -71 -4 -4 -33 -15 -63 -25 -30 -10
-134 -49 -230 -87 -96 -39 -229 -89 -295 -113 -173 -62 -193 -73 -166 -90 9
-5 48 -83 93 -185 47 -105 118 -402 118 -493 0 -79 3 -77 -136 -77 l-124 0 0
33 c0 17 -4 37 -8 43 -4 7 -73 13 -194 16 -167 5 -189 3 -203 -12 -8 -9 -15
-21 -15 -26 0 -5 -7 -17 -15 -28 -12 -16 -27 -18 -112 -17 -53 1 -99 3 -100 5
-2 2 13 37 32 78 l36 75 -15 100 c-8 55 -16 106 -18 114 -4 18 20 16 107 -12
57 -18 95 -22 205 -23 167 -1 192 5 189 42 -2 15 4 38 14 52 21 30 21 44 1 61
-11 9 -14 23 -11 46 4 24 0 44 -15 68 l-20 35 -101 0 c-56 0 -120 5 -142 11
-50 14 -122 63 -130 89 -7 21 -35 28 -35 9 0 -37 54 -89 130 -126 45 -22 73
-28 153 -31 111 -5 109 -3 120 -97 5 -45 2 -54 -23 -84 -28 -33 -28 -33 -117
-33 -206 1 -421 90 -463 192 -31 74 15 280 62 280 43 0 8 25 -52 37 -87 18
-154 50 -226 110 -76 64 -123 127 -159 218 -24 58 -28 85 -29 160 0 112 26
195 93 297 138 210 351 317 596 301 44 -3 104 -12 133 -19z m987 -1478 l1
-473 -169 -7 c-93 -4 -172 -5 -174 -2 -3 2 -7 40 -9 83 -10 162 -89 440 -170
593 -21 41 -33 75 -28 79 5 5 59 25 119 44 61 19 178 62 260 96 83 33 155 61
160 61 7 0 10 -165 10 -474z m1452 380 c1 0 5 -70 9 -153 8 -171 14 -157 -74
-168 -51 -6 -53 -5 -47 15 16 51 -43 133 -120 166 -78 32 -173 19 -227 -33
-23 -22 -40 -28 -100 -32 -67 -6 -72 -8 -81 -34 -13 -39 0 -98 22 -104 14 -3
20 -18 24 -58 3 -29 13 -67 22 -85 l17 -32 101 4 102 3 24 -70 c19 -54 25 -91
25 -162 0 -51 -2 -95 -6 -98 -3 -3 -93 -9 -200 -12 l-195 -6 -6 219 c-4 120
-7 316 -7 435 l0 216 358 -5 c196 -2 358 -5 359 -6z m-297 -151 c0 -3 -11 -10
-25 -15 -38 -14 -30 -30 16 -30 36 0 40 2 34 20 -12 37 54 20 100 -25 35 -36
46 -68 39 -115 l-6 -38 62 15 c35 8 79 13 98 11 29 -2 37 -8 43 -30 10 -37 -4
-45 -84 -50 -78 -5 -89 -14 -75 -67 13 -49 83 -197 97 -205 6 -4 11 -32 11
-62 0 -67 -11 -67 -55 -1 -16 25 -37 46 -45 46 -9 1 -36 -9 -60 -21 -43 -22
-45 -25 -46 -68 -1 -35 -1 -37 3 -10 6 45 14 54 65 69 35 11 43 11 47 0 2 -7
24 -34 48 -60 23 -25 43 -49 43 -53 0 -3 -68 -6 -151 -5 l-150 0 6 67 c5 51 2
86 -13 147 -39 153 -44 159 -128 145 -101 -17 -121 -14 -139 20 -8 16 -15 47
-15 69 0 40 0 40 33 35 17 -4 38 -15 46 -25 10 -14 26 -19 62 -19 29 0 49 5
49 11 0 7 -18 10 -47 7 -43 -3 -48 -1 -51 20 -2 14 3 24 15 29 10 3 28 15 40
26 15 13 31 18 52 15 28 -4 31 -2 31 22 0 14 5 31 10 36 7 7 -6 9 -45 6 -60
-5 -66 0 -32 29 21 18 21 18 2 19 -12 0 -26 -5 -33 -12 -9 -9 -12 -9 -12 0 0
10 36 30 80 45 20 7 80 8 80 2z m-4674 -297 c-4 -18 -9 -117 -13 -220 l-6
-188 -62 0 c-34 0 -123 3 -198 7 l-137 6 0 71 c0 54 3 67 12 58 7 -7 19 -12
28 -12 8 0 23 -9 33 -20 10 -12 22 -18 27 -15 5 3 25 -6 46 -20 43 -29 62 -32
71 -7 35 105 93 230 136 294 28 43 56 78 61 78 5 0 6 -15 2 -32z m2680 -376
c114 -6 139 -10 139 -22 0 -13 -25 -15 -155 -18 -164 -3 -204 1 -197 21 5 16
47 36 62 31 7 -3 75 -8 151 -12z m-901 -293 c451 -6 826 -12 834 -15 12 -4 13
-82 6 -506 -4 -276 -9 -506 -11 -512 -3 -7 -40 -10 -110 -8 -133 4 -262 -27
-409 -97 -188 -90 -311 -208 -438 -419 -83 -139 -112 -202 -154 -339 -25 -82
-27 -101 -27 -278 -1 -153 2 -203 17 -255 23 -82 73 -193 112 -245 17 -22 42
-58 58 -81 15 -22 41 -53 57 -69 17 -16 30 -34 29 -39 0 -6 -34 -39 -75 -74
l-74 -63 -12 28 c-49 117 -93 199 -145 268 -65 87 -185 205 -208 205 -19 0
-19 0 1 68 22 75 15 244 -14 324 -35 98 -102 190 -189 259 -96 77 -163 108
-256 120 -123 17 -249 -3 -352 -54 -198 -98 -308 -213 -368 -382 -17 -50 -21
-84 -21 -195 0 -116 3 -143 22 -191 30 -77 97 -170 160 -224 70 -59 199 -122
292 -141 41 -8 76 -17 78 -18 1 -2 -6 -28 -16 -57 l-18 -54 -155 -6 c-220 -9
-533 -10 -683 -2 l-129 6 7 566 c4 311 11 665 16 786 18 413 23 845 11 1085
-6 129 -14 324 -17 434 l-7 198 684 -6 c376 -3 1053 -11 1504 -17z m2646 -10
c206 -7 501 -10 767 -6 426 5 811 0 831 -12 11 -7 38 -328 28 -337 -3 -4 -23
7 -44 23 -57 45 -57 45 -116 17 -51 -23 -58 -24 -79 -10 -13 8 -42 22 -66 32
-42 16 -44 16 -65 -4 -32 -30 -94 -35 -135 -10 -28 17 -38 19 -58 9 -19 -8
-41 -8 -92 3 -136 29 -146 28 -190 -14 l-39 -39 -42 21 c-37 18 -48 19 -80 9
-66 -19 -112 -14 -155 19 -22 17 -47 30 -56 30 -9 0 -37 -20 -62 -45 -53 -51
-82 -57 -141 -25 -47 25 -78 25 -99 1 -10 -12 -35 -22 -65 -26 -26 -3 -77 -10
-112 -15 -59 -8 -66 -7 -78 10 -18 26 -44 25 -77 -1 -22 -17 -38 -20 -90 -18
-45 3 -68 0 -81 -11 -9 -8 -45 -24 -79 -35 -57 -19 -61 -22 -64 -53 -3 -29 -9
-36 -48 -52 -42 -19 -44 -21 -44 -62 0 -24 -7 -54 -17 -67 -9 -13 -16 -40 -15
-60 1 -23 -7 -49 -23 -73 -31 -46 -31 -65 -4 -94 21 -22 21 -24 5 -65 -17 -41
-17 -43 3 -70 26 -35 26 -50 1 -99 -26 -51 -25 -62 5 -98 17 -21 25 -42 25
-69 0 -29 9 -52 33 -84 30 -41 32 -49 31 -118 l-2 -73 45 6 c42 5 46 4 92 -39
26 -25 53 -45 60 -45 6 0 30 9 52 21 38 19 42 19 59 4 13 -12 34 -15 74 -14
42 2 61 -2 76 -16 20 -18 22 -18 67 4 l46 22 26 -30 c44 -50 60 -53 112 -23
46 25 48 25 87 10 39 -15 43 -15 79 4 l37 20 78 -22 c73 -21 79 -21 100 -6 74
53 66 50 103 30 32 -17 38 -17 77 -3 25 9 54 13 68 9 14 -4 39 -5 56 -2 37 5
34 15 64 -185 22 -150 41 -206 64 -197 14 5 16 31 17 168 1 223 3 234 37 203
24 -22 31 -21 58 4 19 18 27 19 60 10 58 -16 119 -14 135 5 14 17 29 16 119
-10 65 -18 148 -12 200 16 19 10 43 18 54 18 18 0 19 -15 11 -672 -8 -752 -8
-745 -17 -753 -3 -3 -72 -9 -152 -12 l-146 -6 0 76 c0 88 -22 212 -45 257 -9
18 -15 33 -13 35 8 8 27 -12 47 -52 11 -23 25 -44 30 -48 6 -3 24 7 42 23 l32
28 -18 35 c-51 98 -88 129 -151 129 -28 0 -28 2 -9 58 28 78 -20 190 -100 237
-92 55 -279 33 -357 -42 -62 -60 -82 -187 -39 -257 13 -21 37 -46 52 -55 l29
-18 -30 -40 c-17 -22 -45 -52 -64 -67 l-35 -26 -17 30 c-10 16 -34 36 -54 44
-23 9 -43 27 -55 50 -21 39 -26 41 -56 26 -25 -14 -24 -28 3 -57 14 -15 22
-37 23 -65 1 -34 12 -58 56 -120 68 -97 83 -106 135 -81 33 16 39 23 39 50 0
26 8 38 42 63 23 17 51 47 63 67 20 35 23 36 33 18 6 -11 13 -63 15 -116 4
-82 1 -101 -17 -136 l-20 -41 -103 -6 c-135 -7 -749 -15 -765 -9 -7 3 -13 17
-13 33 0 26 2 28 36 25 l37 -2 -7 97 c-6 94 -36 271 -57 338 -10 30 -8 35 16
58 14 13 38 50 53 82 24 50 27 69 27 162 0 98 -2 109 -33 171 -69 140 -184
209 -346 209 -135 0 -234 -39 -312 -122 -121 -128 -145 -300 -63 -445 17 -29
43 -63 59 -77 17 -14 30 -28 30 -32 0 -3 -28 -36 -62 -72 -87 -94 -169 -280
-138 -317 7 -8 16 -12 21 -9 5 3 12 -2 15 -10 3 -9 12 -16 19 -16 7 0 26 -7
41 -15 16 -8 34 -15 39 -15 6 0 23 39 38 88 15 48 37 98 48 112 l20 25 -7 -45
c-4 -25 -9 -79 -13 -120 l-6 -75 -145 0 -145 0 -16 160 c-9 88 -19 183 -23
210 -7 48 -6 51 22 67 79 47 138 195 130 323 -10 152 -128 320 -278 393 -52
25 -63 27 -196 27 l-141 0 -89 -44 c-63 -31 -105 -61 -145 -101 l-56 -57 -6
266 c-4 146 -4 610 -1 1031 3 421 5 767 5 770 -2 10 1310 1 1640 -11z m449
-351 c36 -26 122 -35 174 -18 32 10 40 9 71 -10 31 -19 40 -20 64 -10 16 6 39
22 52 36 27 29 58 30 160 9 40 -9 87 -13 104 -9 19 3 35 1 39 -5 11 -17 111
-13 150 6 35 16 37 16 91 -12 l55 -28 51 22 c63 26 71 26 93 2 10 -11 31 -25
47 -31 l29 -12 0 -579 0 -579 -33 0 c-18 0 -41 -6 -52 -14 -11 -7 -49 -16 -85
-20 -52 -5 -77 -3 -125 13 -75 26 -80 26 -115 0 -27 -20 -32 -21 -94 -9 -58
11 -69 10 -91 -4 -23 -15 -28 -15 -47 -1 -13 8 -33 15 -45 15 -22 0 -23 -4
-23 -69 0 -39 -4 -72 -9 -75 -9 -6 -12 2 -31 96 -6 32 -15 60 -20 63 -4 3 -22
-1 -40 -9 -19 -8 -51 -11 -76 -8 -24 2 -57 -1 -73 -8 -26 -10 -33 -9 -59 10
-28 21 -30 21 -63 5 -19 -10 -44 -26 -55 -37 -21 -19 -22 -19 -84 1 -76 25
-83 25 -126 5 -33 -16 -37 -16 -76 2 -43 19 -42 20 -116 -27 -21 -13 -25 -12
-57 24 -38 41 -52 44 -101 21 -30 -14 -35 -14 -55 -1 -16 12 -35 14 -72 10
-40 -5 -51 -3 -59 10 -12 23 -42 21 -96 -5 l-44 -23 -37 42 c-30 33 -45 42
-77 45 l-39 3 -3 63 c-2 47 -9 72 -27 99 -17 24 -25 50 -25 78 0 28 -7 48 -21
64 -23 24 -22 36 7 113 l18 47 -23 25 c-21 22 -23 29 -13 51 16 35 15 62 -4
94 -16 27 -15 30 11 75 19 32 25 54 21 71 -4 16 1 39 14 65 11 21 20 48 20 59
0 11 14 27 36 40 20 12 41 35 47 51 9 24 21 33 64 45 28 8 55 20 58 25 3 6 33
10 66 10 33 0 70 5 81 11 15 8 26 8 44 -1 15 -9 39 -10 71 -6 26 4 83 11 126
16 43 5 90 17 106 26 27 16 31 16 64 1 65 -31 151 -13 201 42 23 26 20 26 56
-1z m-2272 -743 c3 -3 0 -359 -7 -793 -6 -433 -11 -866 -11 -963 l0 -176 -467
-5 c-258 -3 -470 -4 -472 -2 -5 4 45 53 117 114 34 29 62 59 62 67 0 8 -24 40
-53 71 -108 114 -189 249 -222 368 -9 34 -19 117 -22 199 -6 155 9 264 54 385
14 36 27 74 30 85 5 17 31 63 80 141 7 10 27 46 45 79 21 37 73 100 138 166
88 89 119 112 195 151 173 88 333 131 459 123 37 -2 71 -7 74 -10z m-1761
-680 c73 -22 219 -137 269 -212 74 -112 88 -161 89 -308 0 -71 -4 -146 -8
-165 -8 -34 -6 -36 40 -70 81 -59 206 -219 263 -336 28 -57 54 -119 57 -139
l6 -35 -64 0 c-35 0 -70 4 -78 9 -7 5 -22 35 -33 67 -28 85 -93 216 -117 238
-26 24 -40 13 -21 -17 49 -77 120 -239 120 -273 0 -8 -82 -12 -280 -12 -268
-1 -280 -1 -280 17 0 26 -10 51 -21 51 -4 0 -11 -16 -15 -35 l-6 -35 -85 0
-85 0 7 33 c4 17 16 49 26 70 l20 37 -26 10 c-15 6 -43 10 -64 10 -51 0 -143
31 -225 77 -86 48 -173 140 -218 230 -31 63 -33 76 -37 184 -4 136 7 198 52
288 65 133 273 289 432 324 51 12 234 6 282 -8z m2565 -153 c78 -38 158 -119
205 -207 39 -75 52 -135 29 -135 -21 0 -21 -16 0 -24 11 -4 14 -12 9 -24 -4
-9 -7 -29 -6 -44 1 -15 -11 -57 -25 -93 -24 -60 -50 -92 -100 -121 -18 -11
-18 -17 5 -222 26 -238 25 -245 -35 -232 -20 5 -38 11 -41 14 -4 3 -11 51 -17
105 -18 161 -41 152 -45 -16 -1 -59 -4 -110 -6 -113 -2 -3 -125 -7 -274 -9
-268 -3 -271 -3 -271 18 0 34 38 187 57 225 12 27 14 39 6 47 -9 9 -23 2 -56
-25 -24 -20 -47 -36 -51 -36 -3 0 -6 43 -6 95 0 102 7 117 73 151 33 18 35 43
3 73 -46 43 -69 116 -74 229 -4 97 -3 105 24 158 47 93 165 182 279 211 28 7
94 11 151 10 90 -2 107 -6 166 -35z m869 -9 c75 -24 167 -115 197 -196 46
-123 23 -298 -50 -374 -28 -29 -29 -34 -19 -65 17 -53 49 -257 53 -338 2 -63
0 -75 -14 -78 -9 -2 -20 3 -24 10 -9 13 -10 23 -19 180 -4 62 -11 108 -17 108
-6 0 -8 -20 -4 -53 3 -28 9 -112 12 -186 l7 -134 -149 7 c-82 3 -195 9 -251
13 l-103 6 0 32 c0 17 7 82 15 145 8 62 13 116 10 118 -18 18 -89 -105 -116
-198 -17 -60 -21 -64 -50 -43 -13 10 -37 25 -52 33 -27 13 -28 18 -22 55 12
75 71 181 145 258 39 39 70 73 70 74 0 1 -24 26 -53 55 -43 43 -58 67 -75 120
-25 76 -27 105 -11 180 16 74 43 125 98 181 76 80 141 105 277 106 61 1 110
-5 145 -16z m1199 -333 c70 -13 117 -50 147 -117 29 -63 26 -124 -8 -167 l-20
-26 23 0 c14 0 47 -7 74 -15 50 -14 70 -36 101 -107 9 -22 9 -29 -6 -42 -25
-23 -37 -20 -51 14 -14 35 -55 70 -80 70 -14 0 -13 -8 12 -57 35 -72 48 -141
48 -250 l0 -84 -47 3 -48 3 -3 49 -3 49 -46 -7 c-25 -3 -58 -6 -74 -6 -23 0
-29 -6 -41 -42 l-15 -43 -58 -3 c-64 -3 -62 -9 -31 75 12 33 14 57 6 122 -8
68 -31 141 -44 141 -3 0 -18 -22 -34 -49 -29 -47 -78 -91 -102 -91 -13 0 -49
40 -49 55 0 6 18 24 40 40 23 17 53 50 67 74 25 43 25 45 7 55 -39 22 -84 77
-91 111 -15 80 28 175 95 213 24 14 70 27 109 32 37 4 68 8 68 9 1 0 25 -4 54
-9z m-505 -401 c9 -17 31 -37 50 -45 23 -9 46 -33 70 -69 19 -31 35 -60 35
-66 0 -5 8 -21 17 -36 16 -24 16 -26 -2 -40 -34 -24 -58 -10 -117 67 -47 61
-58 82 -58 113 0 23 -8 51 -20 67 -18 25 -18 40 1 40 5 0 16 -14 24 -31z"/>
<path d="M5680 6053 c0 -62 4 -103 10 -103 6 0 10 13 10 29 0 27 2 28 41 27
32 0 45 5 60 23 23 28 25 79 3 109 -13 19 -23 22 -70 20 l-54 -2 0 -103z"/>
<path d="M2609 4819 c-10 -10 -19 -27 -19 -38 0 -25 35 -68 70 -86 43 -22 147
-20 187 5 64 39 80 99 33 128 -18 11 -35 11 -96 1 -55 -10 -85 -10 -115 -2
-36 9 -44 8 -60 -8z m277 -24 c9 -38 -5 -64 -46 -85 -96 -49 -237 -1 -228 77
l3 28 80 -3 c44 -1 96 1 115 6 47 11 69 4 76 -23z"/>
<path d="M6026 1967 c-27 -20 -34 -108 -12 -142 20 -30 65 -34 89 -7 25 28 23
116 -3 142 -23 23 -49 26 -74 7z"/>
<path d="M1347 1034 c-4 -4 -46 -16 -94 -28 -49 -11 -88 -25 -88 -31 0 -11 19
-12 90 -2 l50 7 -36 -19 c-44 -25 -63 -46 -55 -66 11 -30 133 -13 215 29 62
32 62 86 0 86 -19 0 -29 5 -29 15 0 15 -40 21 -53 9z"/>
<path d="M945 792 c-59 -6 -132 -32 -151 -53 -19 -21 -19 -21 6 -41 21 -17 35
-19 85 -15 114 10 182 50 152 90 -13 18 -46 25 -92 19z"/>
<path d="M2665 6353 c-35 -53 -34 -106 4 -144 16 -16 39 -29 51 -29 12 0 35
13 51 29 23 23 29 38 29 71 0 72 -31 109 -92 110 -10 0 -29 -17 -43 -37z"/>
<path d="M2875 6383 c-11 -3 -23 -8 -27 -12 -10 -9 -12 -166 -3 -181 12 -19
35 9 35 44 l1 31 22 -26 c12 -14 27 -35 33 -45 10 -16 14 -17 25 -6 12 11 10
20 -8 54 -22 40 -22 41 -4 64 17 22 19 59 2 68 -14 8 -57 13 -76 9z"/>
<path d="M2350 6359 c-18 -33 -60 -148 -60 -164 0 -27 20 -16 37 20 22 47 62
49 94 4 16 -22 24 -28 32 -20 22 22 -48 181 -78 181 -8 0 -19 -9 -25 -21z"/>
<path d="M3320 6365 c-6 -8 -16 -48 -22 -90 -13 -97 -7 -105 79 -105 56 0 64
2 61 18 -2 13 -15 18 -51 20 -39 3 -47 6 -47 23 0 15 7 19 36 19 28 0 35 3 32
17 -2 10 -12 19 -23 21 -42 7 -46 11 -35 32 8 15 21 20 54 20 49 0 61 7 45 27
-16 18 -113 17 -129 -2z"/>
</g>
</svg>
