<?xml version="1.0" standalone="no"?>
<!DOCTYPE svg PUBLIC "-//W3C//DTD SVG 20010904//EN"
 "http://www.w3.org/TR/2001/REC-SVG-20010904/DTD/svg10.dtd">
<svg version="1.0" xmlns="http://www.w3.org/2000/svg"
 width="2398.000000pt" height="2440.000000pt" viewBox="0 0 2398.000000 2440.000000"
 preserveAspectRatio="xMidYMid meet">
<metadata>
Created by potrace 1.16, written by Peter Selinger 2001-2019
</metadata>
<g transform="translate(0.000000,2440.000000) scale(0.100000,-0.100000)"
fill="#000000" stroke="none">
<path d="M13490 24086 c-66 -19 -86 -34 -112 -90 -20 -44 -23 -62 -20 -152 l3
-102 -68 -7 c-76 -8 -93 -17 -93 -50 0 -38 23 -48 99 -42 l68 6 13 -112 c7
-62 14 -163 15 -224 2 -62 6 -117 10 -123 9 -15 66 -12 85 5 19 17 19 37 -1
308 -6 81 -9 150 -7 152 3 3 40 10 83 15 43 5 84 15 91 21 22 18 16 47 -12 66
-23 15 -34 15 -93 5 -37 -6 -70 -7 -75 -2 -14 14 -19 135 -7 173 10 28 21 39
61 56 27 12 57 21 68 21 27 0 44 24 40 57 -3 26 -6 28 -53 30 -27 1 -70 -4
-95 -11z"/>
<path d="M14652 24085 c-68 -21 -89 -40 -112 -102 -19 -50 -21 -69 -15 -149
l7 -92 -68 -7 c-77 -8 -94 -17 -94 -50 0 -38 23 -48 98 -42 l68 6 13 -124 c7
-68 12 -168 12 -221 -1 -58 4 -102 10 -111 15 -18 74 -17 89 2 10 12 12 51 7
163 -3 81 -8 157 -11 168 -2 12 -6 45 -7 74 -3 62 3 67 92 71 71 3 89 13 89
50 0 43 -32 55 -112 42 -42 -7 -67 -7 -75 -1 -16 13 -18 145 -3 183 10 28 83
65 125 65 29 0 49 32 41 66 -6 22 -12 24 -59 23 -28 0 -71 -6 -95 -14z"/>
<path d="M7478 23970 c-21 -13 -24 -63 -5 -78 6 -6 26 -12 42 -14 29 -3 30 -5
37 -73 9 -91 11 -370 2 -455 l-6 -65 -47 -15 c-41 -13 -46 -19 -49 -48 -2 -23
2 -34 14 -39 24 -9 255 15 271 28 31 26 -3 79 -52 79 -19 0 -20 6 -20 217 0
120 -2 252 -5 293 l-5 75 40 0 c32 0 42 5 52 25 17 34 16 48 -5 59 -29 15
-244 24 -264 11z"/>
<path d="M15056 23908 c-23 -32 -20 -65 9 -94 19 -19 31 -23 52 -18 60 13 85
87 41 118 -33 24 -84 20 -102 -6z"/>
<path d="M9536 23775 c-43 -15 -125 -89 -161 -146 -32 -50 -55 -132 -55 -198
1 -143 106 -231 277 -231 85 0 133 17 181 63 46 44 54 61 43 90 -16 43 -47 43
-92 2 -67 -60 -98 -71 -165 -56 -42 10 -68 23 -98 51 -39 36 -41 42 -40 92 3
98 63 195 142 230 37 17 50 18 97 8 71 -15 95 -3 95 46 0 31 -4 37 -35 50 -43
18 -138 18 -189 -1z"/>
<path d="M10280 23760 c-14 -11 -32 -20 -41 -20 -8 0 -43 -9 -77 -21 -48 -16
-70 -30 -96 -62 -89 -110 -127 -268 -85 -349 18 -34 113 -97 157 -104 87 -14
180 53 213 153 l11 35 32 -56 c30 -56 76 -96 107 -96 18 0 59 41 59 59 0 7
-20 30 -44 52 -59 54 -75 95 -116 309 -21 109 -64 144 -120 100z m19 -138 c24
-89 24 -101 -4 -178 -31 -84 -79 -144 -116 -144 -32 0 -85 38 -102 75 -38 79
48 247 139 275 59 17 72 13 83 -28z"/>
<path d="M10855 23771 c-42 -4 -74 -15 -108 -36 -55 -35 -72 -73 -64 -144 7
-61 55 -104 149 -132 121 -37 173 -90 144 -146 -19 -37 -47 -62 -82 -72 -36
-10 -150 9 -224 38 l-55 21 -24 -24 c-44 -45 -9 -76 131 -112 99 -26 137 -26
233 1 43 13 55 22 89 71 91 132 34 240 -160 300 -54 17 -88 33 -95 46 -17 31
-7 71 21 85 35 18 127 16 183 -3 58 -20 80 -8 75 40 -3 28 -9 33 -63 53 -33
12 -67 21 -75 21 -8 -1 -42 -4 -75 -7z"/>
<path d="M11510 23729 c-25 -5 -55 -11 -67 -14 -34 -8 -92 -63 -131 -125 -30
-46 -36 -65 -40 -126 -6 -98 2 -133 48 -201 56 -84 101 -115 182 -129 106 -18
169 -1 271 73 40 30 47 40 47 69 0 53 -35 56 -107 8 -138 -91 -244 -72 -308
55 -20 40 -11 51 45 51 46 0 216 46 255 68 38 22 65 75 65 128 0 36 -6 47 -46
83 -73 68 -114 79 -214 60z m125 -110 c19 -17 35 -35 35 -41 0 -5 -13 -22 -28
-38 -28 -28 -66 -37 -215 -54 l-47 -6 6 28 c16 68 47 101 120 127 61 22 89 18
129 -16z"/>
<path d="M16201 23729 c-82 -14 -131 -48 -184 -126 -41 -61 -46 -76 -52 -143
-8 -98 15 -163 85 -242 53 -60 76 -72 160 -87 97 -17 187 13 275 91 74 64 19
133 -59 74 -137 -104 -257 -91 -321 34 -27 54 -23 60 38 60 46 0 191 37 235
59 54 28 74 54 83 113 l9 53 -53 53 c-69 70 -103 80 -216 61z m129 -105 c23
-20 30 -34 28 -52 -5 -46 -69 -70 -227 -86 l-53 -5 7 37 c18 101 172 167 245
106z"/>
<path d="M8025 23716 c-18 -13 -18 -18 -7 -64 10 -37 11 -69 3 -128 -31 -243
-24 -338 26 -350 51 -13 58 2 59 133 1 137 8 182 35 235 25 49 69 72 123 65
77 -11 103 -77 109 -287 2 -53 6 -101 11 -108 4 -6 20 -12 36 -12 64 0 75 76
41 279 -16 94 -24 120 -49 150 -49 61 -170 89 -247 57 -34 -14 -35 -14 -55 15
-23 32 -55 38 -85 15z"/>
<path d="M15635 23704 c-16 -8 -44 -26 -61 -39 l-31 -24 -23 24 c-30 32 -75
33 -91 4 -7 -15 -8 -34 -1 -63 5 -22 10 -99 11 -171 3 -224 13 -265 66 -265
50 0 54 16 48 185 l-6 156 39 41 c58 61 92 72 156 53 46 -13 54 -13 75 0 23
16 31 57 15 82 -9 14 -83 32 -132 33 -19 0 -48 -7 -65 -16z"/>
<path d="M12774 23680 c-35 -11 -119 -96 -134 -135 -18 -48 -12 -146 14 -200
68 -146 182 -199 326 -149 49 17 58 24 80 69 49 98 34 256 -31 340 -46 58
-181 98 -255 75z m144 -110 c83 -51 98 -239 23 -280 -11 -5 -43 -10 -71 -10
-45 0 -56 4 -85 33 -51 51 -68 136 -41 201 30 72 107 97 174 56z"/>
<path d="M15047 23663 c-3 -5 -13 -49 -23 -98 -22 -113 -25 -314 -5 -338 16
-20 54 -22 69 -4 5 6 12 68 15 137 4 69 10 152 14 185 13 116 13 120 -29 123
-20 2 -38 -1 -41 -5z"/>
<path d="M925 22558 c-3 -7 -4 -2432 -3 -5388 l3 -5375 5390 0 5390 0 0 5385
0 5385 -5388 3 c-4305 2 -5389 0 -5392 -10z m10735 -4584 l0 -4546 -22 6 c-13
3 -491 145 -1063 316 -793 236 -1052 310 -1092 310 -29 0 -53 2 -53 4 0 4 111
475 190 806 35 145 38 167 26 185 -14 22 -15 22 -668 28 -978 11 -1788 9
-1802 -2 -7 -6 -43 -114 -81 -240 -38 -127 -72 -227 -76 -223 -4 4 -24 52 -45
107 -145 391 -357 766 -526 936 l-78 78 60 32 c156 83 321 256 409 428 90 178
116 290 115 496 -1 127 -5 165 -27 247 -52 198 -151 363 -302 506 -202 190
-438 284 -715 285 -401 1 -751 -211 -935 -564 -101 -196 -130 -320 -123 -530
5 -123 9 -144 46 -255 22 -66 50 -141 62 -165 72 -141 209 -303 330 -387 36
-25 69 -49 74 -53 5 -4 -1 -20 -12 -36 -69 -98 -246 -508 -342 -792 -44 -131
-68 -214 -131 -461 -9 -36 -33 -235 -45 -371 l-6 -77 -282 -6 c-154 -3 -877
-8 -1606 -11 -1165 -4 -1364 -2 -1645 13 l-320 17 -3 4233 -2 4232 5345 0
5345 0 0 -4546z m-5540 -310 c269 -55 529 -249 664 -496 377 -685 -145 -1524
-924 -1485 -254 13 -470 107 -653 286 -248 240 -352 583 -282 921 88 417 437
736 865 790 83 11 234 3 330 -16z m3692 -3738 c976 -290 1831 -547 1839 -552
5 -3 9 -119 9 -260 l0 -254 -4145 0 -4146 0 -712 352 c-391 194 -908 450
-1147 570 l-435 218 95 -5 c52 -2 149 -7 215 -10 66 -3 163 -8 215 -11 52 -3
1077 0 2276 6 l2182 11 57 -40 58 -41 -173 0 c-210 0 -210 0 -210 -100 0 -51
4 -71 18 -82 9 -9 242 -141 516 -293 l500 -278 1209 -9 c1011 -8 1211 -8 1223
3 9 10 15 56 19 149 6 118 15 169 71 410 36 151 67 281 69 288 11 31 112 13
397 -72z m-2972 71 c0 -2 -7 -25 -16 -52 l-17 -48 -273 6 -273 5 -55 39 -55
38 307 5 c169 3 324 6 345 8 20 1 37 1 37 -1z m4812 -1427 l3 -240 -4138 0
-4138 0 6 128 c3 70 5 178 5 240 l0 112 4130 0 4129 0 3 -240z"/>
<path d="M4228 16746 c-95 -34 -133 -91 -126 -192 7 -111 85 -188 189 -188
136 0 232 160 170 282 -24 47 -45 66 -101 91 -52 24 -81 25 -132 7z"/>
<path d="M5728 16725 c-77 -43 -74 -160 4 -201 57 -30 121 -5 155 60 45 88
-71 191 -159 141z"/>
<path d="M6380 16733 c-52 -19 -88 -91 -70 -139 35 -91 142 -111 200 -36 24
30 26 98 4 130 -28 41 -89 61 -134 45z"/>
<path d="M12265 22558 c-3 -7 -4 -2432 -3 -5388 l3 -5375 5388 -3 5387 -2 -2
5387 -3 5388 -5383 3 c-4301 2 -5384 0 -5387 -10z m10735 -4583 c0 -3130 -3
-4545 -10 -4545 -6 0 -122 33 -258 74 -136 41 -375 113 -532 160 -157 46 -519
155 -806 240 -379 114 -535 156 -573 156 -37 0 -51 4 -51 14 0 7 50 222 110
476 61 254 110 473 110 486 0 13 -9 28 -19 34 -13 7 -426 12 -1239 17 l-1219
6 -16 -44 c-10 -24 -42 -127 -72 -229 -31 -102 -58 -192 -61 -200 -3 -8 -39
68 -80 170 -158 396 -335 703 -494 862 -73 74 -84 89 -68 94 51 16 203 131
281 214 182 191 278 415 290 680 9 182 -28 349 -113 517 -111 219 -265 369
-493 479 -113 54 -216 81 -368 96 -102 10 -132 9 -225 -7 -397 -65 -689 -298
-837 -670 -59 -147 -62 -165 -62 -365 0 -197 8 -243 75 -410 68 -172 206 -343
367 -457 l70 -49 -25 -39 c-14 -22 -61 -116 -104 -208 -138 -298 -250 -599
-308 -832 -17 -71 -36 -139 -40 -150 -5 -11 -11 -29 -14 -40 -10 -37 -46 -359
-46 -411 l0 -52 -292 -6 c-161 -3 -898 -7 -1638 -8 -1051 -2 -1409 0 -1637 11
l-293 14 0 4234 0 4233 5345 0 5345 0 0 -4545z m-5550 -310 c190 -41 360 -133
501 -274 328 -329 389 -837 147 -1232 -70 -113 -225 -267 -336 -333 -176 -104
-368 -153 -567 -142 -148 7 -258 36 -390 101 -450 221 -667 723 -518 1200 115
369 455 652 838 695 87 10 239 3 325 -15z m4485 -3973 l1060 -317 0 -255 0
-255 -4147 -3 -4147 -2 -548 273 c-301 150 -816 405 -1144 567 -328 162 -595
296 -594 298 2 2 95 -3 206 -10 222 -14 1307 -15 3564 -3 l1210 6 54 -40 55
-41 -170 0 c-122 0 -175 -4 -188 -13 -14 -10 -16 -26 -14 -91 l3 -79 513 -285
512 -285 1196 -9 c657 -6 1206 -7 1219 -4 30 8 33 19 39 175 4 110 12 158 72
408 l67 283 61 -1 c50 0 254 -58 1121 -317z m-3765 297 c0 -7 -5 -30 -12 -52
l-12 -40 -271 5 -272 6 -58 38 -58 39 309 5 c170 3 324 6 342 8 18 1 32 -3 32
-9z m4820 -1419 l0 -240 -4135 0 -4135 0 0 234 c1 128 4 236 7 240 4 3 1864 6
4135 6 l4128 0 0 -240z"/>
<path d="M15815 22363 c-180 -25 -332 -122 -397 -253 -48 -96 -62 -171 -61
-320 2 -374 125 -599 373 -683 62 -20 79 -21 380 -19 348 3 415 10 645 68 176
44 272 46 500 10 322 -51 557 -55 1050 -16 611 48 883 51 1120 10 442 -75 571
46 505 475 -11 77 -25 183 -31 235 -27 252 -57 349 -128 420 -57 57 -108 73
-217 68 -102 -6 -370 -28 -979 -83 -622 -57 -764 -65 -1121 -65 -418 0 -633
20 -999 95 -93 19 -215 42 -270 50 -91 14 -297 18 -370 8z m375 -59 c58 -9
155 -26 216 -39 345 -74 547 -96 949 -102 414 -7 588 3 1430 82 644 60 839 72
889 55 90 -29 146 -155 170 -387 8 -76 23 -181 33 -233 10 -58 17 -144 18
-220 0 -111 -3 -130 -23 -167 -56 -105 -191 -129 -462 -82 -196 34 -582 32
-1010 -5 -549 -48 -809 -46 -1150 9 -228 37 -317 34 -517 -14 -222 -54 -266
-59 -593 -65 -317 -7 -378 0 -472 51 -140 76 -218 214 -253 448 -63 421 94
655 460 684 99 8 180 4 315 -15z"/>
<path d="M16525 21946 c-9 -14 -19 -50 -22 -80 l-6 -56 -37 0 c-41 0 -66 -20
-56 -45 4 -11 17 -15 48 -13 l42 3 -2 -77 c-4 -95 13 -139 58 -158 22 -9 37
-10 48 -3 28 17 24 33 -12 48 l-37 16 3 92 c2 73 6 92 18 94 77 10 90 15 90
33 0 17 -7 20 -53 20 l-54 0 9 62 c12 89 -4 115 -37 64z"/>
<path d="M19310 21951 c-6 -12 -14 -47 -18 -79 l-7 -57 -43 -6 c-48 -6 -68
-25 -50 -47 8 -9 23 -11 50 -7 l38 7 0 -89 c0 -69 4 -95 19 -120 23 -36 75
-54 97 -32 16 17 8 31 -29 47 l-28 12 3 92 3 93 48 7 c56 8 62 11 54 33 -5 11
-20 15 -56 15 l-49 0 6 43 c11 74 8 101 -10 105 -9 2 -22 -6 -28 -17z"/>
<path d="M17193 21839 c-55 -16 -123 -118 -123 -186 0 -99 127 -164 227 -116
41 19 63 57 44 76 -9 9 -15 9 -29 -1 -67 -48 -105 -51 -155 -11 -33 25 -35 64
-7 119 28 54 60 74 109 66 65 -10 84 45 19 58 -37 7 -44 7 -85 -5z"/>
<path d="M17808 21823 c-2 -5 -3 -71 -3 -148 0 -138 0 -140 23 -143 12 -2 23
0 23 5 1 4 2 42 3 83 3 112 42 169 95 141 31 -17 44 -74 38 -168 -4 -67 -2
-86 9 -90 27 -10 41 17 47 91 8 92 21 122 60 136 41 14 51 13 78 -9 18 -15 25
-35 34 -97 9 -70 13 -79 33 -82 20 -3 22 1 21 45 -1 146 -38 203 -128 203 -34
0 -58 -7 -83 -24 l-35 -23 -10 28 c-7 17 -25 35 -46 45 -32 15 -37 15 -68 0
-29 -14 -34 -14 -49 -1 -18 16 -37 20 -42 8z"/>
<path d="M18413 21819 c-8 -8 -8 -20 -3 -35 6 -15 6 -44 0 -75 -11 -58 -13
-123 -4 -156 4 -16 14 -23 30 -23 23 0 24 2 24 80 0 110 32 169 84 156 35 -9
48 -52 49 -163 2 -84 4 -98 19 -101 24 -5 38 35 38 104 0 71 20 109 65 124 27
9 40 9 62 -2 29 -14 40 -41 42 -103 2 -65 11 -86 35 -83 20 3 21 8 17 83 -5
125 -36 165 -127 165 -41 0 -59 -5 -82 -25 l-30 -25 -12 29 c-7 17 -27 37 -47
46 -33 16 -38 16 -70 1 -31 -14 -36 -15 -49 -1 -18 18 -26 19 -41 4z"/>
<path d="M16040 21802 c0 -5 -27 -6 -59 -4 -48 3 -68 0 -106 -19 -58 -29 -95
-71 -95 -108 0 -33 33 -86 72 -114 25 -19 30 -19 85 -5 32 8 65 18 74 22 15 6
16 1 12 -41 -11 -111 -40 -146 -119 -146 -34 0 -55 7 -89 32 -50 36 -78 35
-73 -1 4 -32 87 -80 146 -85 74 -7 121 14 155 68 26 43 29 57 39 211 6 91 8
173 5 182 -6 16 -47 23 -47 8z m-29 -62 c22 -13 26 -65 5 -92 -16 -22 -77 -48
-111 -48 -18 0 -31 10 -45 33 -26 42 -26 43 12 77 41 38 100 50 139 30z"/>
<path d="M17466 21750 c-44 -49 -48 -100 -14 -162 32 -56 78 -82 135 -75 66 7
86 32 91 109 5 105 -47 168 -139 168 -30 0 -43 -7 -73 -40z m135 -39 c22 -23
29 -39 29 -68 0 -54 -19 -77 -65 -77 -50 0 -75 30 -75 90 0 80 57 108 111 55z"/>
<path d="M15557 16745 c-22 -7 -50 -24 -64 -37 -32 -29 -62 -94 -63 -132 0
-87 69 -184 147 -205 116 -31 244 73 243 199 -1 69 -75 159 -147 179 -49 14
-69 13 -116 -4z"/>
<path d="M17624 17045 c-23 -58 164 -165 285 -165 53 0 76 12 68 33 -4 10 -27
16 -79 19 -85 6 -154 36 -207 92 -37 39 -58 45 -67 21z"/>
<path d="M17074 17003 c-37 -116 -95 -152 -259 -162 -91 -5 -100 -8 -100 -26
0 -19 6 -20 105 -19 126 1 188 23 249 89 54 58 68 135 25 135 -8 0 -17 -8 -20
-17z"/>
<path d="M17075 16731 c-50 -21 -81 -87 -65 -136 42 -129 220 -98 220 37 0 75
-84 128 -155 99z"/>
<path d="M17698 16724 c-15 -8 -35 -28 -43 -44 -59 -115 88 -225 179 -134 93
93 -20 241 -136 178z"/>
<path d="M17332 16164 c-52 -26 -152 -108 -152 -125 0 -5 101 -9 235 -9 135 0
235 4 235 9 0 21 -83 112 -120 131 -57 29 -133 27 -198 -6z"/>
<path d="M927 11203 c-4 -3 -7 -2423 -7 -5378 0 -4164 3 -5374 12 -5383 19
-19 10751 -17 10767 2 8 10 10 1422 9 5387 l-3 5374 -5386 3 c-2962 1 -5389
-1 -5392 -5z m10731 -4587 c2 -4006 0 -4547 -13 -4542 -8 3 -483 145 -1055
316 -870 259 -1051 310 -1102 310 l-61 0 6 28 c4 15 55 233 115 486 60 252
107 467 105 477 -3 10 -12 21 -21 24 -10 4 -291 8 -627 11 -335 2 -638 6 -672
8 -59 3 -63 2 -63 -18 0 -32 -24 -61 -44 -53 -9 4 -16 15 -16 26 0 39 -11 51
-49 51 -63 0 -101 -58 -121 -186 -14 -87 -23 -98 -60 -79 -24 12 -49 40 -87
94 -2 3 -13 -5 -26 -17 -27 -26 -73 -28 -105 -6 l-22 15 21 30 c29 41 40 95
27 125 -9 20 -19 24 -56 24 -43 0 -44 -1 -37 -27 21 -85 19 -99 -20 -129 l-37
-28 6 -63 c4 -35 4 -63 2 -63 -3 0 -20 13 -38 30 -18 16 -47 35 -65 41 -25 8
-33 16 -33 35 0 13 -13 57 -29 97 -16 39 -32 80 -35 90 -3 11 -16 17 -34 17
l-29 0 -5 -87 c-4 -75 -8 -88 -28 -105 -34 -27 -52 -19 -83 39 -29 55 -36 93
-23 131 7 20 4 22 -23 22 -17 0 -39 -8 -48 -18 -10 -10 -47 -118 -83 -239 -35
-122 -66 -220 -68 -218 -2 2 -31 70 -63 152 -33 81 -109 247 -169 368 -125
254 -234 418 -346 525 -40 38 -70 71 -66 74 4 2 30 16 57 31 112 62 272 213
350 330 112 169 174 375 175 575 1 496 -350 933 -831 1037 -125 27 -354 24
-474 -6 -105 -26 -271 -102 -361 -166 -211 -151 -378 -409 -430 -666 -12 -60
-15 -117 -12 -222 4 -130 7 -152 41 -257 80 -251 214 -439 417 -581 l59 -42
-19 -27 c-16 -23 -170 -344 -170 -355 0 -2 -13 -32 -29 -67 -48 -104 -90 -214
-147 -384 -95 -287 -141 -503 -165 -766 l-12 -138 -273 0 -274 0 0 -25 0 -25
589 0 c325 0 592 3 595 8 4 8 -8 198 -19 283 l-7 46 37 7 c20 4 39 14 42 22 3
9 -8 75 -26 146 -17 72 -30 133 -27 135 2 2 51 -55 110 -128 l106 -131 -6
-161 c-3 -89 -6 -175 -7 -192 -2 -29 -2 -29 53 -28 61 1 57 -6 47 81 -2 18 2
40 8 49 11 14 14 13 28 -8 10 -13 17 -38 17 -55 0 -63 2 -64 120 -64 107 0
108 0 161 -36 30 -20 58 -41 64 -46 6 -5 -53 -8 -150 -7 l-160 1 -3 -33 c-4
-35 16 -170 27 -186 3 -6 218 -127 476 -271 l470 -261 825 -5 c454 -4 994 -9
1200 -12 355 -5 377 -5 398 13 19 16 22 30 27 143 4 107 15 167 73 417 l67
293 64 0 c35 0 96 -9 135 -21 39 -11 242 -72 451 -134 1213 -362 1457 -435
1523 -454 l72 -22 0 -254 0 -255 -2762 -2 -2763 -3 0 -25 0 -25 2758 -3 2757
-2 0 -240 0 -240 -2760 0 c-1518 0 -2760 -2 -2760 -4 0 -2 5 -48 10 -103 10
-94 9 -118 -17 -335 l-6 -48 -1048 0 c-833 0 -1049 3 -1048 13 0 6 4 33 8 60
4 26 5 47 1 47 -7 0 -45 -48 -72 -92 -15 -24 -24 -28 -62 -28 -36 0 -50 6 -74
30 -41 40 -66 40 -57 0 l7 -30 -345 0 -345 0 -15 22 -16 23 -7 -22 c-5 -20
-13 -23 -54 -23 l-48 0 0 48 c0 50 -18 98 -46 122 -13 10 -16 32 -14 112 l3
99 -37 35 -38 34 0 160 c0 147 -2 166 -24 218 -13 31 -27 77 -31 102 -10 65
-24 85 -25 35 0 -29 -9 -53 -34 -88 -49 -68 -54 -98 -22 -131 24 -23 26 -33
26 -107 0 -87 20 -179 51 -242 24 -45 19 -54 -19 -41 -19 7 -28 17 -30 37 -2
18 -13 32 -32 42 -23 12 -33 29 -50 81 -11 36 -20 77 -20 90 0 15 -16 40 -42
67 -24 23 -48 51 -54 62 -11 20 -12 20 -30 -2 -27 -33 -74 -39 -103 -16 l-24
20 27 45 c14 24 26 56 26 69 0 36 -36 88 -65 95 -41 10 -51 -8 -37 -61 20 -77
16 -99 -24 -130 l-36 -28 7 -66 7 -66 -37 35 c-36 34 -37 34 -32 10 36 -152
30 -205 -33 -292 -68 -93 -92 -137 -97 -181 -7 -55 -19 -77 -42 -77 -20 0 -27
28 -30 110 -2 44 -24 78 -57 86 -33 8 -36 3 -23 -35 14 -40 6 -71 -30 -121
-16 -22 -34 -60 -40 -85 l-11 -45 -144 0 -143 0 24 49 c28 56 24 87 -14 126
-27 27 -70 33 -79 12 -2 -7 2 -32 11 -56 20 -59 19 -80 -7 -108 -19 -20 -31
-23 -102 -23 l-81 1 -27 62 c-15 34 -35 95 -44 135 -8 39 -19 72 -23 72 -18 0
-33 -62 -38 -162 l-6 -108 -47 0 c-43 0 -47 2 -63 35 -25 52 -21 100 14 171
37 75 34 120 -12 183 -27 38 -28 45 -26 130 2 79 -1 93 -20 120 -22 29 -23 37
-23 261 0 126 3 230 6 230 3 0 14 -10 25 -23 10 -12 19 -17 19 -12 5 78 21
148 35 159 11 8 19 29 20 54 1 27 13 57 30 82 36 51 35 81 -4 125 -17 20 -31
47 -31 60 0 14 2 25 4 25 2 0 11 3 20 6 10 4 20 -5 31 -25 15 -29 18 -31 61
-27 78 8 86 26 58 124 -24 80 -24 186 -1 209 18 17 19 17 38 -7 18 -21 20 -33
14 -100 -9 -105 0 -125 70 -145 63 -19 85 -37 85 -69 0 -28 30 -130 36 -123 3
2 6 45 7 95 2 75 6 95 24 120 18 24 21 40 18 91 -4 65 3 75 37 44 10 -9 18
-12 18 -7 0 5 7 30 15 57 l14 47 -49 25 c-61 31 -64 31 -78 0 -23 -50 -72 -25
-72 37 l0 39 -172 84 c-95 47 -168 86 -163 86 13 2 0 2 173 -6 l154 -6 -7 23
c-4 13 -8 24 -10 26 -2 2 -361 21 -412 22 -10 0 -13 852 -13 4228 0 2326 3
4231 6 4235 3 3 2408 5 5343 4 l5336 -2 3 -4549z m-5507 -314 c231 -61 452
-214 578 -401 63 -92 127 -234 153 -337 32 -123 32 -361 0 -476 -151 -555
-698 -875 -1242 -727 -163 44 -317 135 -441 258 -393 393 -393 1025 -1 1418
147 147 356 252 567 286 72 12 311 -1 386 -21z m675 -3704 l-12 -43 -272 -3
-273 -2 -55 36 c-30 20 -57 40 -60 45 -3 5 137 9 340 9 l345 0 -13 -42z"/>
<path d="M6425 10993 c-145 -10 -417 -37 -630 -64 -385 -48 -705 -87 -780 -94
-210 -20 -400 -123 -460 -250 -27 -58 -33 -205 -11 -295 58 -236 206 -438 394
-538 142 -75 273 -99 627 -112 264 -10 351 -17 830 -71 708 -78 754 -82 975
-76 203 6 307 21 448 68 196 64 361 189 428 324 31 63 37 86 41 162 8 138 -31
282 -115 428 -50 86 -227 258 -328 317 -183 107 -411 168 -744 198 -104 9
-552 11 -675 3z m840 -72 c376 -57 567 -142 751 -333 93 -97 151 -189 191
-303 23 -69 27 -96 28 -195 0 -110 -1 -118 -33 -182 -57 -116 -204 -232 -368
-291 -39 -14 -118 -36 -175 -49 -95 -21 -127 -23 -369 -23 -253 1 -285 3 -720
53 -635 72 -731 81 -1020 92 -338 13 -427 29 -575 100 -192 92 -350 317 -392
557 -31 180 23 285 186 367 94 48 154 63 326 81 83 9 326 38 540 65 677 85
875 99 1255 89 161 -4 279 -13 375 -28z"/>
<path d="M7369 10548 c-6 -12 -16 -91 -21 -177 -14 -255 -14 -261 1 -270 28
-18 41 0 42 53 1 112 21 152 85 170 43 13 58 -14 65 -119 8 -104 18 -127 47
-109 18 12 19 49 6 173 -10 97 -83 138 -166 95 l-31 -16 7 33 c4 19 10 69 13
112 6 74 5 77 -15 77 -12 0 -27 -10 -33 -22z"/>
<path d="M5646 10528 c-9 -12 -18 -48 -22 -80 -6 -52 -9 -58 -30 -58 -41 0
-74 -18 -74 -41 0 -20 4 -21 51 -16 l50 6 -6 -77 c-9 -93 8 -146 51 -163 65
-24 96 9 40 42 l-36 21 0 89 0 88 38 6 c20 4 44 7 52 8 8 1 15 11 15 22 0 17
-8 20 -49 23 l-48 3 6 68 c6 56 4 70 -8 74 -9 4 -22 -3 -30 -15z"/>
<path d="M7077 10410 c-21 -4 -50 -19 -64 -33 -21 -21 -24 -31 -19 -60 7 -39
31 -59 94 -78 57 -17 78 -42 66 -77 -14 -41 -53 -50 -131 -29 -50 13 -69 14
-79 6 -22 -18 0 -37 64 -55 64 -19 136 -13 165 14 23 20 47 65 47 86 0 32 -61
86 -116 102 -46 13 -54 19 -54 40 0 35 41 49 99 34 46 -11 65 -2 55 25 -4 10
-73 38 -85 34 -2 -1 -21 -5 -42 -9z"/>
<path d="M6832 10398 c-7 -7 -12 -28 -12 -47 -1 -78 -17 -124 -54 -158 -44
-40 -79 -43 -102 -8 -15 23 -15 35 -5 95 16 97 15 110 -9 110 -38 0 -67 -172
-39 -234 23 -50 117 -60 164 -16 28 26 33 25 37 -7 2 -20 9 -29 26 -31 21 -3
22 0 22 65 0 37 5 95 10 128 15 92 -2 139 -38 103z"/>
<path d="M5165 10381 c-3 -6 -28 -7 -55 -4 -66 8 -128 -16 -174 -68 -41 -44
-42 -53 -21 -107 24 -58 67 -86 121 -78 25 3 58 13 75 22 17 8 32 14 34 12 2
-2 0 -31 -4 -66 -10 -82 -34 -114 -94 -126 -43 -9 -50 -7 -104 26 -31 20 -63
33 -71 31 -24 -10 -7 -47 36 -77 54 -39 147 -47 202 -19 64 33 81 82 93 268 6
89 7 170 4 179 -7 17 -32 22 -42 7z m-41 -61 c21 -8 26 -16 26 -45 0 -45 -34
-81 -83 -90 -51 -10 -69 -4 -89 32 l-19 32 28 31 c23 26 57 42 105 49 4 1 18
-3 32 -9z"/>
<path d="M6219 10358 c-2 -7 -2 -110 1 -228 5 -206 6 -215 25 -215 23 0 33 43
34 138 1 31 3 57 5 57 29 0 116 25 142 40 73 45 81 170 14 205 -34 17 -97 20
-136 5 -19 -8 -30 -8 -38 0 -14 14 -43 13 -47 -2z m192 -48 c52 -29 -3 -140
-69 -140 -17 0 -37 -3 -46 -6 -14 -5 -16 4 -16 63 0 63 2 71 23 81 29 14 83
15 108 2z"/>
<path d="M4219 5389 c-15 -5 -47 -37 -73 -69 -41 -53 -46 -66 -46 -110 0 -58
24 -111 67 -152 70 -67 175 -64 251 6 71 63 82 182 26 253 -55 69 -150 99
-225 72z"/>
<path d="M1630 2644 c0 -28 30 -34 179 -34 107 0 117 2 129 21 7 12 12 22 10
24 -2 1 -74 5 -160 7 -157 4 -158 4 -158 -18z"/>
<path d="M2066 1096 c-20 -35 -56 -85 -81 -110 -48 -50 -65 -76 -65 -100 0
-14 7 -13 53 4 28 11 53 20 55 20 1 0 -4 -11 -13 -24 -18 -28 -10 -60 14 -51
9 4 29 9 44 12 46 9 55 35 59 181 3 119 2 132 -13 132 -11 0 -31 -24 -53 -64z"/>
<path d="M3918 835 c-14 -22 -40 -55 -57 -74 -53 -56 -71 -83 -71 -102 0 -18
2 -18 53 1 28 11 53 20 55 20 1 0 -5 -11 -14 -25 -27 -42 -14 -55 43 -41 58
15 59 17 35 156 l-18 105 -26 -40z"/>
<path d="M5742 5777 c-5 -7 -15 -29 -22 -50 -23 -73 -103 -161 -180 -199 -54
-26 -64 -38 -46 -56 37 -37 202 92 256 201 16 33 30 70 30 83 0 25 -24 39 -38
21z"/>
<path d="M6295 5770 c-16 -26 79 -119 161 -157 72 -33 193 -43 213 -19 22 26
2 37 -77 40 -89 4 -163 38 -221 101 -41 44 -64 55 -76 35z"/>
<path d="M5704 5346 c-28 -28 -34 -42 -34 -76 0 -34 6 -48 34 -76 29 -29 41
-34 79 -34 54 0 91 26 107 75 25 75 -27 145 -107 145 -38 0 -50 -5 -79 -34z"/>
<path d="M6362 5367 c-64 -36 -75 -123 -21 -176 25 -26 39 -31 76 -31 38 0 50
5 79 34 39 39 45 89 17 136 -28 48 -100 65 -151 37z"/>
<path d="M5980 4896 c-111 -29 -170 -100 -173 -205 0 -33 1 -62 4 -65 3 -3 31
3 62 14 154 54 315 46 488 -25 12 -5 20 4 33 35 37 93 9 165 -83 211 -94 47
-233 62 -331 35z"/>
<path d="M12262 5823 l3 -5388 5385 0 5385 0 3 5388 2 5387 -5390 0 -5390 0 2
-5387z m2048 2 l0 -5345 -1000 0 -1000 0 0 5345 0 5345 1000 0 1000 0 0 -5345z
m4688 5228 l3 -113 -1651 0 -1650 0 0 108 c0 60 3 112 7 115 3 4 745 6 1647 5
l1641 -3 3 -112z m4000 0 l3 -113 -971 0 -970 0 0 115 0 115 968 -2 967 -3 3
-112z m-7970 -10546 l627 -2 -632 -3 -633 -2 2 5328 3 5327 2 -5322 3 -5323
628 -3z m2757 10298 c424 -83 623 -107 880 -107 161 0 212 4 335 26 382 69
365 67 580 67 113 0 261 -5 330 -11 69 -5 243 -17 386 -25 144 -8 297 -22 340
-31 270 -55 540 -250 650 -466 36 -70 57 -173 49 -236 -9 -71 -81 -307 -106
-348 -54 -89 -203 -185 -339 -220 -85 -21 -198 -15 -345 21 -298 72 -588 73
-1020 5 -436 -69 -634 -68 -1090 11 -187 32 -244 36 -610 43 -174 4 -278 13
-495 41 -151 19 -414 51 -583 70 -577 66 -731 108 -872 236 -70 65 -120 142
-171 264 -52 127 -68 192 -62 261 19 226 398 345 1288 404 91 6 217 15 280 20
194 14 426 5 575 -25z m-465 -2033 c0 -5 -9 -35 -20 -66 -25 -74 -45 -213 -36
-260 l7 -36 882 -2 882 -3 -883 -5 c-485 -3 -882 -8 -882 -12 0 -5 0 -15 0
-23 0 -13 105 -15 863 -17 l862 -3 3 -862 c2 -723 4 -863 16 -863 7 0 18 6 24
13 7 8 10 293 9 889 -1 482 1 874 5 870 5 -5 9 -292 10 -639 l3 -631 68 61
c61 57 68 67 83 126 17 68 24 251 11 291 -6 19 3 13 41 -27 32 -33 52 -64 56
-87 4 -19 27 -78 52 -130 57 -122 77 -210 78 -361 1 -143 -8 -168 -107 -285
-35 -41 -80 -97 -99 -125 -73 -106 -555 -445 -901 -634 -208 -113 -189 -109
-301 -71 l-96 32 39 46 c140 167 228 404 236 631 4 126 -7 214 -41 335 -22 79
-30 95 -73 137 l-49 48 34 -78 c58 -135 78 -236 78 -401 0 -162 -19 -261 -75
-396 -93 -223 -308 -441 -529 -535 -164 -70 -355 -99 -515 -79 -423 52 -747
326 -871 736 -24 80 -27 105 -28 249 -1 88 3 185 7 215 14 92 -3 49 -30 -77
-35 -166 -37 -206 -18 -307 51 -273 221 -537 441 -683 30 -20 54 -37 54 -39 0
-13 -370 167 -537 262 -62 35 -119 61 -127 58 -8 -3 -25 1 -38 9 -371 232
-775 518 -792 560 -16 41 -35 142 -35 187 -1 49 25 116 53 139 15 12 25 13 62
3 47 -13 97 -16 106 -6 3 3 -1 26 -8 51 -20 65 -18 152 3 175 25 28 74 23 107
-11 23 -24 30 -42 36 -101 9 -82 20 -97 93 -128 l47 -21 0 37 c0 52 25 164 45
203 10 17 30 43 46 56 l29 25 2 566 3 567 683 3 682 2 0 25 0 25 -702 2 -703
3 694 2 c541 3 697 6 703 16 4 6 8 26 8 43 0 48 36 141 75 194 36 48 62 70
125 102 40 20 50 22 50 10z m5162 -369 c-272 -2 -713 -2 -980 0 -268 1 -46 2
493 2 539 0 758 -1 487 -2z m-237 -207 c56 -27 100 -67 189 -174 139 -169 379
-312 522 -312 l32 0 4 -422 c4 -599 -2 -1369 -12 -1363 -26 16 -31 -115 -6
-163 14 -27 16 -77 16 -372 l0 -342 -627 5 -628 4 -115 33 c-145 41 -194 65
-252 128 -44 46 -96 135 -113 192 l-7 25 23 -21 c50 -45 88 -56 228 -65 138
-9 215 -26 283 -60 72 -37 71 -35 -94 215 -136 205 -197 265 -356 345 -130 66
-193 153 -238 329 -13 52 -24 101 -24 109 0 7 21 -10 47 -39 47 -54 234 -231
237 -226 1 2 0 40 -3 85 -5 72 -10 87 -40 130 -82 115 -102 148 -117 201 -16
55 -14 87 10 143 5 12 -15 30 -86 76 -51 33 -109 69 -128 78 -72 37 -200 125
-239 165 -50 51 -74 115 -96 250 -30 183 -76 342 -131 453 -22 43 -23 47 -6
47 26 0 100 -50 149 -100 57 -59 89 -128 113 -240 25 -118 45 -163 86 -199 49
-43 155 -78 274 -91 166 -17 238 -43 298 -108 30 -34 32 -35 32 -12 0 40 -37
101 -110 185 -107 121 -154 238 -130 325 l6 25 17 -32 c26 -49 122 -147 182
-188 56 -37 180 -88 198 -82 5 1 -23 22 -64 46 -85 50 -124 84 -146 125 -14
28 -14 29 24 59 103 82 186 188 268 342 97 181 171 267 260 300 l42 17 -5 44
c-6 53 11 96 50 129 40 34 114 34 183 1z m-3139 -1824 c-2 -4 -27 -24 -55 -42
l-51 -35 0 -452 c0 -249 -3 -453 -6 -453 -3 0 -31 20 -62 44 -158 121 -359
236 -577 330 -69 29 -125 57 -123 61 2 5 41 28 88 52 47 25 164 92 260 149
153 92 248 156 473 316 55 39 61 43 53 30z m-3205 -353 c210 -126 576 -310
723 -364 82 -30 103 -35 121 -25 14 8 29 8 46 1 l26 -9 -20 -74 c-21 -80 -29
-304 -14 -431 l8 -67 -543 2 -543 3 0 537 c0 296 3 538 6 538 3 0 89 -50 190
-111z m5323 -313 c36 -14 74 -30 86 -36 20 -11 20 -12 3 -40 l-17 -30 46 -47
c44 -45 47 -50 41 -91 l-6 -42 -43 40 c-24 22 -69 52 -99 66 -66 31 -91 60
-100 114 -6 33 -12 41 -41 52 -39 14 -43 25 -11 31 49 10 79 6 141 -17z m276
-188 c16 2 59 -8 96 -23 36 -15 73 -24 81 -21 8 3 0 -12 -17 -34 -35 -44 -37
-45 -108 -29 -57 12 -77 30 -123 114 l-32 60 37 -35 c28 -26 44 -34 66 -32z
m1487 -2016 c-1 -273 -2 -47 -2 503 0 550 1 774 2 497 2 -277 2 -727 0 -1000z
m-2954 -2995 l972 -2 -977 -3 -978 -2 2 1003 3 1002 2 -997 3 -998 973 -3z
m-1033 963 l0 -990 -1650 0 -1650 0 0 990 0 990 1650 0 1650 0 0 -990z m4000
0 l0 -990 -970 0 -970 0 0 990 0 990 970 0 970 0 0 -990z"/>
<path d="M19667 10383 c-4 -3 -7 -50 -7 -103 l0 -97 -52 4 c-119 9 -199 -94
-158 -201 16 -42 66 -67 130 -65 30 1 63 -1 73 -6 12 -5 23 -3 31 6 29 32 50
431 24 457 -13 13 -31 16 -41 5z m-36 -253 c28 -15 27 -112 -1 -140 -26 -26
-70 -26 -104 1 -75 59 20 184 105 139z"/>
<path d="M16106 10348 c-14 -65 -33 -282 -30 -342 3 -77 18 -102 54 -91 17 5
20 11 14 28 -16 46 -15 184 1 290 9 59 14 115 11 123 -9 23 -45 17 -50 -8z"/>
<path d="M19266 10353 c-11 -35 -33 -279 -31 -346 2 -77 18 -104 55 -92 17 5
20 11 14 28 -16 47 -15 194 1 295 9 56 14 109 11 117 -8 21 -43 19 -50 -2z"/>
<path d="M18200 10345 c-9 -11 -10 -26 -1 -62 12 -55 29 -199 35 -293 l4 -65
39 -1 c21 -1 43 -3 48 -4 53 -13 138 57 150 123 20 104 -60 172 -157 133 -23
-9 -42 -15 -43 -13 -1 1 -6 42 -12 91 -6 54 -16 92 -24 97 -19 12 -25 11 -39
-6z m196 -213 c58 -38 12 -162 -60 -162 -34 0 -46 20 -46 77 0 49 2 55 33 73
34 21 55 24 73 12z"/>
<path d="M16855 10230 c-3 -5 -25 -14 -48 -21 -68 -18 -116 -76 -131 -160 -8
-46 6 -78 48 -107 60 -41 128 -20 156 48 l13 31 17 -28 c23 -38 47 -56 65 -49
28 10 29 35 2 56 -28 22 -41 55 -57 139 -14 77 -46 121 -65 91z m10 -104 c8
-48 -16 -118 -49 -146 -16 -12 -21 -12 -44 1 -40 22 -49 60 -27 109 22 48 58
80 91 80 19 0 24 -7 29 -44z"/>
<path d="M17302 10198 c-11 -18 -33 -64 -48 -103 -30 -75 -52 -115 -64 -115
-13 0 -58 113 -65 162 -8 52 -24 72 -50 62 -18 -7 -18 -7 5 -117 5 -27 24 -76
42 -110 26 -49 38 -63 60 -65 35 -4 62 33 129 175 43 93 50 115 39 128 -18 22
-26 19 -48 -17z"/>
<path d="M18833 10223 c-7 -2 -13 -19 -13 -36 0 -18 -7 -59 -14 -92 -17 -70
-58 -115 -105 -115 -46 0 -55 20 -46 103 12 122 12 122 -10 122 -28 0 -48 -62
-49 -153 -1 -70 1 -75 28 -99 25 -21 37 -24 78 -21 26 3 56 12 66 22 24 21 30
20 34 -6 2 -17 10 -23 27 -23 23 0 24 3 29 90 11 207 9 222 -25 208z"/>
<path d="M16370 10197 c-13 -7 -39 -32 -57 -55 -55 -72 -45 -159 25 -226 35
-33 99 -48 146 -35 43 12 107 66 99 84 -7 21 -25 19 -74 -10 -59 -33 -93 -32
-130 4 -41 41 -37 57 14 65 57 9 135 35 143 48 4 6 10 26 14 44 7 30 4 37 -26
64 -28 24 -44 30 -82 30 -26 0 -58 -6 -72 -13z"/>
<path d="M17530 10197 c-13 -7 -39 -32 -57 -55 -55 -72 -42 -165 31 -230 36
-31 59 -37 121 -33 49 4 128 62 118 87 -7 20 -25 17 -74 -11 -59 -33 -93 -32
-130 4 -41 41 -37 57 14 65 69 11 137 36 147 56 34 64 -16 130 -98 130 -26 0
-58 -6 -72 -13z"/>
<path d="M20102 10203 c-8 -3 -11 -16 -7 -36 3 -18 2 -71 -4 -118 -12 -102 -4
-143 27 -147 12 -2 22 0 22 5 1 4 3 46 5 92 4 98 23 134 73 139 45 5 61 -27
69 -132 6 -82 7 -86 29 -86 17 0 25 7 30 26 7 26 -11 148 -27 192 -12 32 -73
56 -125 48 -30 -4 -46 -1 -54 9 -13 16 -17 17 -38 8z"/>
<path d="M20725 10200 c-3 -5 -25 -7 -50 -3 -57 7 -124 -17 -177 -65 -43 -38
-47 -64 -22 -118 39 -82 93 -92 215 -40 13 6 14 -2 8 -60 -8 -82 -31 -116 -87
-128 -50 -11 -82 -3 -120 29 -55 46 -105 20 -54 -28 50 -46 89 -59 163 -55
125 7 151 59 164 332 5 102 4 131 -7 137 -17 11 -26 11 -33 -1z m-22 -67 c10
-6 9 -61 -3 -84 -12 -22 -52 -44 -97 -52 -27 -5 -36 -2 -57 24 -33 39 -32 49
2 81 41 39 114 54 155 31z"/>
<path d="M17517 7203 c-4 -3 -7 -12 -7 -20 0 -9 18 -13 66 -13 37 0 85 -5 106
-12 64 -19 136 -92 175 -175 24 -53 37 -71 48 -67 22 9 19 24 -20 102 -42 84
-113 153 -182 176 -46 16 -173 22 -186 9z"/>
<path d="M16448 6794 c-80 -43 -74 -166 9 -201 78 -32 155 18 157 102 1 41 -3
50 -36 81 -42 38 -83 44 -130 18z"/>
<path d="M17414 6801 c-67 -29 -87 -130 -35 -181 51 -52 111 -52 162 0 63 63
23 176 -66 185 -22 3 -50 1 -61 -4z"/>
<path d="M16845 6520 c-38 -4 -108 -8 -153 -9 -97 -1 -145 -19 -168 -63 -20
-39 -12 -61 52 -136 30 -35 54 -69 54 -77 0 -21 50 -186 67 -222 8 -18 19 -33
25 -33 5 0 17 17 26 38 20 44 119 137 168 158 115 48 261 -16 450 -198 45 -43
84 -78 87 -78 3 0 -3 25 -13 56 -13 38 -23 108 -30 209 -12 173 -28 241 -71
289 -50 58 -93 69 -269 72 -85 1 -186 -2 -225 -6z"/>
<path d="M22170 6693 c0 -15 100 -123 152 -164 37 -30 40 -31 53 -13 7 10 19
36 25 58 12 39 11 39 -33 83 -44 44 -44 45 -120 46 -54 1 -77 -2 -77 -10z"/>
</g>
</svg>
