<?xml version="1.0" standalone="no"?>
<!DOCTYPE svg PUBLIC "-//W3C//DTD SVG 20010904//EN"
 "http://www.w3.org/TR/2001/REC-SVG-20010904/DTD/svg10.dtd">
<svg version="1.0" xmlns="http://www.w3.org/2000/svg"
 width="280.000000pt" height="280.000000pt" viewBox="0 0 280.000000 280.000000"
 preserveAspectRatio="xMidYMid meet">
<metadata>
Created by potrace 1.16, written by Peter Selinger 2001-2019
</metadata>
<g transform="translate(0.000000,280.000000) scale(0.100000,-0.100000)"
fill="#000000" stroke="none">
<path d="M410 2364 c-19 -8 -47 -29 -62 -46 -27 -31 -52 -105 -44 -130 2 -7 7
-25 10 -40 7 -30 48 -83 78 -99 15 -8 19 -8 14 0 -12 19 10 12 30 -10 16 -17
16 -22 4 -29 -8 -6 -22 -10 -31 -10 -21 0 -38 -20 -49 -60 -11 -39 -5 -34 18
12 13 26 25 34 52 38 28 4 34 9 32 25 -2 17 4 20 45 21 40 1 44 0 26 -9 -37
-17 -30 -53 15 -76 21 -11 44 -26 50 -34 20 -24 57 -252 45 -282 -9 -25 -99
-18 -117 10 -9 14 -11 27 -5 37 6 11 4 21 -7 32 -9 10 -11 16 -4 16 7 0 24
-13 38 -30 44 -50 52 -41 52 58 0 48 -5 94 -11 102 -7 11 -9 -12 -7 -78 2 -50
0 -92 -3 -92 -4 0 -13 10 -21 23 -12 16 -26 22 -54 23 -38 0 -39 0 -40 -38 -1
-21 2 -38 7 -38 5 0 6 -6 4 -12 -11 -30 -14 -79 -15 -202 -2 -171 -2 -173 -53
-185 -38 -8 -39 -9 -12 -10 17 -1 41 6 53 15 21 14 22 22 23 152 1 144 11 238
22 212 8 -18 14 -346 7 -375 -4 -17 0 -20 25 -18 52 4 61 27 69 173 9 164 12
184 39 195 29 13 32 47 12 175 -17 115 -28 138 -85 176 -46 31 -44 49 11 71
39 15 90 65 88 86 0 7 -5 3 -10 -9 -19 -37 -62 -54 -138 -54 -68 0 -72 1 -111
38 -44 43 -51 44 -20 5 31 -40 12 -42 -21 -3 -39 47 -45 71 -24 86 9 7 15 19
12 26 -4 10 -6 10 -6 1 -2 -28 -21 -11 -21 17 0 58 35 104 106 140 46 23 34
26 -16 4z m168 -764 c15 0 15 -39 2 -203 -8 -104 -12 -121 -31 -138 -12 -10
-25 -19 -28 -19 -3 0 -6 87 -6 193 l0 193 25 -13 c14 -7 31 -13 38 -13z"/>
<path d="M1687 2035 c-100 -35 -167 -146 -151 -252 13 -92 61 -155 147 -193
38 -17 47 -26 47 -45 0 -18 -5 -25 -19 -25 -28 0 -79 -46 -85 -78 -12 -65 -18
-117 -12 -111 4 4 11 32 16 64 11 66 29 91 83 112 36 15 46 35 29 59 -4 6 -32
22 -63 36 -41 19 -65 38 -88 71 -35 51 -37 60 -17 76 12 10 18 6 31 -23 35
-74 119 -126 203 -126 22 0 32 -5 32 -15 0 -8 -7 -15 -15 -15 -8 0 -15 -6 -15
-14 0 -18 27 -46 45 -46 28 0 71 -51 110 -129 21 -44 42 -81 46 -81 9 0 -43
108 -80 165 -14 22 -25 43 -24 46 1 4 -16 9 -37 13 -26 4 -40 12 -40 21 0 20
29 19 36 0 4 -8 11 -15 17 -15 5 0 2 10 -9 21 l-19 21 42 -4 c30 -2 44 1 48
11 6 15 -12 41 -29 41 -6 0 -3 -5 7 -11 30 -17 19 -29 -28 -29 -48 0 -61 16
-21 26 16 4 26 15 30 35 6 34 26 38 44 9 7 -11 16 -20 20 -20 18 0 52 92 51
138 l-2 47 -6 -51 c-5 -44 -32 -104 -46 -104 -3 0 -14 5 -24 12 -23 14 -51 -4
-51 -32 0 -24 -38 -32 -103 -24 -67 9 -95 23 -140 73 -42 47 -61 107 -52 165
9 51 43 109 61 102 8 -3 11 0 8 9 -8 20 79 55 138 55 94 0 159 -59 198 -180 7
-20 8 -21 9 -5 1 28 -31 94 -64 133 -35 42 -68 58 -130 67 -28 3 -59 8 -70 10
-11 2 -37 -2 -58 -10z"/>
<path d="M375 1908 c-3 -18 -6 -62 -8 -97 -2 -62 -2 -64 -16 -37 -12 21 -13
37 -5 76 6 28 7 50 2 50 -4 0 -8 -11 -8 -25 0 -15 -6 -25 -14 -25 -10 0 -12 7
-9 23 5 22 5 22 -10 2 -18 -22 -22 -55 -7 -55 5 0 7 7 4 15 -5 11 -2 13 10 9
10 -4 14 -13 11 -24 -6 -18 23 -90 36 -90 4 0 6 -11 5 -25 0 -15 -7 -25 -17
-25 -18 0 -42 32 -84 112 -29 56 -29 58 -11 75 17 17 18 17 11 -4 -10 -36 10
-27 23 10 7 18 12 36 12 40 0 12 -28 8 -36 -5 -4 -7 -3 -8 4 -4 7 4 12 2 12
-3 0 -6 -5 -11 -11 -11 -15 0 -39 -26 -39 -42 1 -7 20 -49 44 -93 35 -66 47
-81 69 -83 25 -3 27 -7 28 -55 0 -29 4 -74 9 -102 4 -31 6 22 4 135 -1 102 1
209 5 238 8 56 -4 74 -14 20z"/>
<path d="M885 1640 c1 -32 -3 -67 -11 -82 -8 -15 -12 -38 -9 -50 2 -13 -1 -63
-8 -113 -12 -90 -13 -90 -40 -88 -18 1 -27 -2 -24 -10 5 -14 48 -11 57 3 3 6
12 52 19 102 6 51 17 116 23 144 l11 51 46 -5 c25 -2 48 -6 50 -8 2 -2 -10
-41 -27 -86 -17 -46 -41 -117 -53 -158 -13 -41 -26 -79 -30 -84 -5 -5 -19 -2
-33 8 -35 22 -46 20 -17 -4 48 -40 54 -32 111 140 28 88 56 162 60 165 5 3 12
-5 15 -17 13 -40 68 -169 71 -165 2 2 -9 37 -25 78 -49 126 -49 119 1 119 l43
0 23 -76 c13 -42 25 -74 28 -71 2 2 -5 33 -15 68 -11 35 -21 80 -21 99 -3 95
-1 89 -19 71 -13 -12 -14 -19 -5 -26 6 -5 14 -18 17 -27 9 -25 -28 -32 -115
-24 -102 11 -116 18 -121 63 -2 21 -3 13 -2 -17z"/>
<path d="M353 750 c-13 -5 -23 -16 -23 -24 0 -16 26 -46 40 -46 18 0 19 -34 0
-68 -10 -20 -19 -33 -20 -29 0 4 7 22 16 38 20 40 12 48 -12 12 -20 -30 -32
-140 -19 -170 5 -10 7 -22 6 -26 -7 -34 80 -127 148 -158 28 -12 51 -28 51
-36 0 -7 -15 -19 -33 -27 -19 -7 -45 -25 -59 -39 -28 -28 -53 -89 -45 -110 2
-6 8 5 12 25 9 45 50 93 97 112 19 9 38 24 41 35 4 17 -6 26 -59 52 -65 32
-102 66 -130 120 -13 26 -13 29 1 29 8 0 15 3 16 8 0 4 2 19 4 35 2 15 -1 27
-6 27 -5 0 -9 -11 -9 -25 0 -23 -10 -32 -22 -20 -7 7 26 114 47 156 12 22 21
29 33 24 29 -11 184 -43 246 -51 35 -4 68 -14 79 -24 15 -15 25 -16 53 -8 27
7 38 6 50 -6 8 -9 20 -16 26 -16 6 0 -1 9 -15 21 -22 17 -32 19 -61 10 -27 -7
-38 -6 -47 5 -12 14 -11 15 31 27 8 2 25 0 37 -4 17 -6 21 -5 16 6 -3 8 -11
15 -19 15 -25 0 -15 15 22 35 36 19 36 19 47 0 16 -29 66 -74 101 -91 17 -8
22 -9 11 -2 -11 7 -42 36 -70 63 -27 28 -63 55 -80 61 -16 7 -52 21 -80 32
-27 11 -66 22 -85 26 -19 3 1 -7 45 -22 44 -16 89 -33 99 -39 18 -10 18 -11
-7 -28 -15 -9 -27 -24 -27 -31 0 -22 -148 -18 -260 7 -101 21 -193 64 -198 90
-2 10 8 19 30 26 18 6 26 11 18 11 -8 1 -25 -3 -37 -8z"/>
<path d="M2431 690 c0 -27 2 -31 8 -15 7 18 10 17 26 -15 15 -28 16 -39 6 -66
-11 -29 -9 -39 18 -93 33 -65 53 -135 44 -158 -3 -7 -24 -23 -47 -35 -22 -11
-38 -17 -34 -13 4 4 -4 22 -17 40 -27 34 -32 84 -15 130 8 21 7 27 -8 31 -45
14 -69 33 -88 72 l-20 43 -12 -38 c-6 -21 -21 -44 -33 -51 -18 -12 -21 -12
-17 0 3 7 9 23 13 36 6 21 5 22 -14 10 -15 -9 -19 -19 -14 -38 8 -33 6 -32 39
-20 23 9 41 8 84 -5 l55 -17 1 -71 c0 -40 3 -84 6 -99 3 -15 1 -25 -3 -22 -5
3 -9 -4 -9 -16 0 -15 -12 -26 -45 -41 -47 -21 -55 -34 -30 -53 13 -10 13 -16
-5 -52 -25 -50 -62 -73 -85 -54 -13 11 -14 10 -9 -4 15 -40 82 -1 108 64 9 22
18 40 21 40 15 0 69 -60 106 -117 23 -35 44 -62 46 -59 7 7 -72 118 -109 153
-18 17 -42 33 -52 35 -30 5 -30 25 -1 32 15 4 44 18 66 31 21 14 43 25 48 25
24 0 59 24 75 50 21 36 9 99 -34 178 -24 44 -27 56 -18 80 14 36 5 73 -27 109
l-24 28 0 -35z"/>
<path d="M1593 649 c-98 -49 -139 -158 -94 -254 24 -52 74 -99 134 -125 56
-25 60 -45 13 -80 -49 -36 -74 -81 -80 -142 -6 -55 -1 -45 22 45 5 17 14 31
20 30 6 -2 9 3 6 11 -3 7 6 20 19 29 40 26 57 47 57 71 0 19 4 22 29 18 22 -3
28 -8 24 -22 -3 -13 4 -23 24 -33 53 -28 95 -89 108 -160 4 -20 11 -37 16 -37
11 0 3 38 -19 90 -21 51 -59 98 -95 116 l-31 17 22 17 c28 23 28 30 1 23 -21
-6 -133 17 -125 25 3 2 -9 16 -25 29 -70 60 -91 166 -47 245 31 58 91 88 173
88 42 0 56 3 45 10 -29 19 -152 12 -197 -11z"/>
<path d="M1560 465 c0 -25 5 -45 10 -45 6 0 10 9 10 20 0 11 7 20 15 20 8 0
15 -9 15 -20 0 -11 5 -20 10 -20 6 0 10 16 10 35 0 24 5 35 15 35 10 0 15 -11
15 -35 0 -19 5 -35 10 -35 6 0 10 16 10 35 0 24 5 35 15 35 10 0 15 -11 15
-35 0 -19 5 -35 10 -35 6 0 10 6 10 13 0 8 4 7 10 -3 9 -13 11 -13 20 0 5 8
10 10 10 4 0 -7 20 -14 45 -16 25 -2 45 -1 45 2 0 3 12 6 28 5 37 0 45 41 10
54 l-23 10 25 0 c18 1 21 4 13 12 -7 7 -19 9 -27 6 -20 -8 -21 -47 -1 -47 8 0
15 -8 15 -17 0 -13 -3 -14 -12 -5 -8 8 -15 9 -25 1 -23 -20 -43 -2 -43 38 0
46 -17 33 -23 -17 -4 -33 -4 -33 -5 8 -2 47 -18 56 -28 16 l-7 -26 -15 24
c-10 17 -24 25 -46 26 -48 2 -86 -8 -86 -24 0 -8 -7 -14 -15 -14 -8 0 -15 9
-15 20 0 11 -4 20 -10 20 -5 0 -10 -20 -10 -45z"/>
</g>
</svg>
