<?xml version="1.0" standalone="no"?>
<!DOCTYPE svg PUBLIC "-//W3C//DTD SVG 20010904//EN"
 "http://www.w3.org/TR/2001/REC-SVG-20010904/DTD/svg10.dtd">
<svg version="1.0" xmlns="http://www.w3.org/2000/svg"
 width="500.000000pt" height="574.000000pt" viewBox="0 0 500.000000 574.000000"
 preserveAspectRatio="xMidYMid meet">
<metadata>
Created by potrace 1.16, written by Peter Selinger 2001-2019
</metadata>
<g transform="translate(0.000000,574.000000) scale(0.100000,-0.100000)"
fill="#000000" stroke="none">
<path d="M109 5083 c0 -285 -2 -657 -4 -828 -2 -170 -5 -1025 -6 -1900 l-2
-1590 2386 -1 c1313 0 2392 3 2399 7 10 7 14 484 17 2419 l3 2410 -2396 0
-2396 0 -1 -517z m1946 443 c19 -29 45 -161 45 -230 0 -107 -57 -204 -145
-246 -35 -17 -71 -23 -151 -28 -78 -4 -107 -9 -111 -19 -6 -16 40 -187 68
-252 11 -24 17 -46 15 -48 -4 -5 -91 104 -136 172 -18 28 -49 69 -68 93 l-34
43 -619 -6 c-616 -7 -619 -7 -663 14 -95 47 -106 79 -106 333 l0 197 38 3 c20
2 445 2 944 0 l908 -2 15 -24z m455 -796 c0 -497 -4 -820 -9 -820 -12 0 -146
17 -244 31 -57 9 -80 16 -87 29 -6 10 -7 20 -2 23 4 2 2 3 -4 1 -7 -1 -22 5
-35 13 -13 9 -21 13 -17 8 4 -4 0 -14 -8 -22 -8 -9 -12 -18 -9 -22 4 -3 12 2
19 11 11 15 13 15 24 -3 17 -27 15 -30 -15 -24 -16 3 -65 6 -110 5 -87 -1 -91
2 -74 44 5 14 10 16 15 7 11 -18 36 6 29 27 -6 15 -5 15 10 3 15 -12 17 -11
17 10 0 19 -2 21 -10 9 -5 -8 -10 -10 -10 -5 0 6 -7 1 -16 -10 -8 -11 -20 -20
-26 -20 -11 0 -22 -17 -32 -48 -5 -15 -16 -17 -76 -16 -38 1 -70 6 -70 12 0 5
9 7 20 4 11 -3 18 0 17 7 -1 6 6 10 15 10 10 -1 16 1 14 5 -3 4 9 16 25 26 16
11 29 25 29 32 0 7 13 10 38 7 42 -5 62 4 66 32 3 23 81 68 102 60 10 -4 14
-14 11 -26 -3 -11 1 -27 10 -35 8 -9 12 -23 8 -34 -4 -15 -1 -19 12 -17 21 4
19 31 -3 53 -18 19 -18 23 3 23 10 0 47 -30 82 -67 47 -50 59 -59 45 -34 -10
18 -38 53 -61 77 -33 34 -38 44 -24 44 11 0 21 7 25 15 7 20 -4 75 -21 102
-13 19 -12 25 1 45 12 18 14 37 9 77 -8 72 -47 117 -107 126 -31 5 -46 13 -54
29 -19 41 -64 86 -87 86 -12 0 -34 -9 -47 -20 l-25 -19 -46 117 c-46 120 -87
245 -87 267 0 8 28 14 90 18 143 9 234 65 281 170 31 71 32 200 1 310 -12 42
-22 79 -22 82 0 3 95 5 210 5 l210 0 0 -820z m1982 745 c22 -86 25 -207 7
-258 l-14 -38 -175 -4 c-269 -5 -456 -46 -564 -122 l-49 -35 -316 5 c-174 4
-333 9 -353 13 l-37 6 -3 -63 -3 -62 -23 46 c-33 66 -21 62 -240 83 -35 3 -86
13 -115 22 l-52 17 -3 233 -2 232 962 -2 962 -3 18 -70z m358 -207 c0 -281 0
-283 -19 -252 -36 59 -139 119 -249 145 -40 10 -51 17 -47 28 27 85 22 199
-11 294 -25 70 -32 67 156 67 l170 0 0 -282z m-273 -149 c180 -39 273 -129
273 -263 -1 -95 -49 -167 -160 -240 -106 -70 -197 -97 -375 -110 l-149 -11 -8
-35 c-5 -19 -9 -77 -10 -129 -2 -119 -14 -92 -34 74 -7 66 -14 120 -14 121 0
1 -57 4 -127 7 -194 8 -260 31 -332 113 -33 37 -34 39 -28 115 3 42 11 87 17
100 62 117 220 217 390 244 25 4 54 10 65 13 41 10 154 19 273 20 92 2 147 -3
219 -19z m-4294 -150 c28 -7 225 -9 637 -5 457 4 601 2 612 -7 8 -7 40 -50 71
-97 56 -85 157 -216 217 -280 24 -25 34 -30 40 -21 4 8 7 -9 7 -40 -1 -46 -5
-57 -29 -77 -32 -27 -67 -96 -75 -148 -7 -41 19 -115 53 -152 l25 -26 -28 -24
c-23 -19 -29 -21 -31 -8 -2 8 2 25 8 36 11 20 10 21 -9 15 -15 -5 -21 -2 -21
9 0 9 5 16 11 16 5 0 7 5 4 11 -4 5 -12 8 -18 6 -19 -6 -16 -37 6 -53 l22 -16
-25 7 c-14 4 -27 12 -28 16 -2 5 -8 7 -12 4 -5 -3 -14 3 -19 14 -8 14 -7 20 4
25 10 3 15 -1 16 -12 0 -12 3 -10 10 7 12 30 6 36 -21 21 -12 -6 -23 -10 -25
-8 -1 2 -40 66 -85 143 -45 77 -92 156 -104 175 -11 20 -32 54 -45 76 -14 23
-37 46 -53 52 -29 11 -52 51 -38 66 5 4 19 1 31 -8 26 -18 59 -21 59 -6 0 6
-8 10 -18 10 -11 0 -27 9 -37 20 -19 21 -15 23 33 14 33 -7 56 -45 50 -82 -3
-19 41 -94 167 -286 78 -118 98 -145 108 -146 17 0 3 29 -67 134 -160 242
-186 286 -186 319 0 24 -11 43 -50 82 -28 28 -68 80 -88 116 -21 35 -45 65
-54 67 -26 5 -32 -38 -13 -84 10 -25 12 -40 5 -42 -5 -2 -10 -9 -10 -15 0 -6
-7 -19 -16 -28 -27 -30 -2 -74 70 -119 59 -37 66 -46 167 -217 58 -98 121
-205 139 -238 18 -33 39 -67 46 -75 12 -15 36 -80 48 -131 l6 -26 -142 -12
c-140 -12 -193 -24 -275 -63 -56 -26 -127 -90 -143 -128 l-13 -30 -41 38 c-23
21 -56 47 -74 57 -17 11 -32 22 -32 25 1 3 26 22 56 43 37 24 67 37 89 37 50
0 63 8 75 46 9 28 9 39 -2 57 -21 33 -12 58 18 53 14 -3 36 0 50 6 20 9 24 18
24 54 0 24 -4 45 -9 49 -5 3 -7 20 -4 39 4 27 -1 39 -28 71 -23 26 -33 46 -31
64 5 47 -79 111 -147 111 -16 0 -44 13 -66 30 -48 38 -91 46 -152 27 -26 -9
-70 -18 -98 -22 -92 -12 -201 -77 -188 -112 5 -13 2 -15 -11 -10 -14 5 -17 3
-12 -8 3 -8 1 -14 -5 -12 -33 7 -89 -132 -89 -221 0 -48 7 -73 36 -131 19 -39
44 -76 55 -82 17 -9 11 -14 -53 -46 -61 -31 -99 -63 -230 -193 l-158 -155 0
758 0 758 46 -36 c26 -19 65 -40 87 -46z m2344 55 c23 -7 96 -18 163 -25 66
-7 120 -15 120 -19 0 -3 18 -34 40 -68 63 -97 106 -107 90 -22 -5 25 -9 58
-10 74 l0 29 61 -7 c34 -4 174 -7 310 -7 137 1 249 -1 249 -4 0 -3 -13 -24
-30 -46 -55 -76 -74 -187 -44 -250 58 -120 211 -192 410 -190 l81 0 6 -82 c7
-85 29 -205 48 -254 14 -38 57 -93 72 -93 10 0 13 45 12 189 0 128 4 194 11
201 6 6 60 16 120 21 178 15 213 24 327 81 50 26 102 62 135 94 l52 53 0 -656
0 -655 -33 29 c-18 16 -46 34 -63 40 -42 16 -168 43 -198 43 -34 0 -33 14 4
40 l31 22 20 -26 c26 -33 75 -35 113 -5 14 11 26 18 26 14 0 -3 9 -1 21 5 19
10 20 19 17 93 -2 62 1 85 11 93 8 6 16 36 19 67 3 44 1 60 -12 73 -14 13 -16
27 -11 69 6 42 3 60 -14 93 -12 23 -32 49 -45 57 -15 10 -22 22 -19 34 3 10 0
22 -6 25 -6 4 -13 -4 -17 -19 -3 -14 -9 -25 -13 -25 -8 0 -51 82 -51 97 0 5
-12 21 -27 34 -116 106 -316 29 -319 -121 0 -42 -5 -50 -47 -89 -44 -41 -54
-55 -97 -141 -31 -61 -44 -151 -30 -212 23 -98 82 -159 180 -184 l45 -11 -35
-22 c-19 -11 -31 -21 -27 -21 5 0 -7 -19 -26 -42 -19 -24 -54 -80 -78 -126
-43 -81 -44 -83 -78 -80 -29 3 -38 10 -56 43 -44 81 -64 113 -87 137 -30 33
-61 69 -123 143 -67 81 -111 122 -168 158 -27 16 -45 33 -40 37 51 43 66 49
111 43 59 -6 97 19 112 77 12 45 3 73 -30 90 -11 6 -17 16 -14 25 10 24 -10
17 -21 -7 -6 -13 -17 -23 -25 -23 -8 0 -15 -9 -15 -20 0 -11 -18 -39 -40 -62
-22 -23 -47 -50 -55 -61 -24 -30 -133 -89 -199 -108 -67 -18 -95 -39 -67 -50
21 -8 131 22 173 48 l32 19 58 -37 c75 -48 206 -179 271 -273 29 -41 52 -78
52 -83 0 -4 -15 -8 -34 -8 -50 0 -117 -27 -152 -61 l-31 -30 -6 28 c-8 37 -31
68 -45 59 -7 -4 -15 -25 -18 -47 l-7 -39 -457 0 -457 0 -7 148 c-10 203 -12
209 -86 280 l-62 60 31 96 c17 54 32 108 33 122 1 13 5 24 8 24 3 0 59 -30
125 -66 66 -37 141 -77 167 -90 25 -13 49 -28 52 -33 4 -5 36 -25 72 -43 36
-18 83 -50 104 -70 39 -39 50 -45 50 -28 0 24 -66 80 -133 113 -109 54 -173
127 -210 238 -24 70 -28 95 -22 143 7 65 42 177 59 188 6 4 11 15 11 25 0 10
8 19 18 21 12 3 17 -3 17 -22 0 -41 20 -41 57 -2 34 35 69 52 42 20 -11 -14
-10 -18 6 -30 17 -13 21 -13 32 2 11 15 10 21 -4 36 -15 17 -15 18 1 18 28 0
54 -18 82 -58 l26 -37 -6 45 c-6 36 -5 43 5 33 7 -7 20 -13 29 -12 13 0 13 1
0 6 -17 7 -40 29 -40 38 0 4 7 4 16 1 31 -12 7 18 -40 52 -26 18 -61 34 -77
34 -28 1 -28 2 -13 19 9 10 33 24 53 30 20 6 42 16 48 21 31 25 225 2 296 -34
61 -31 158 -101 190 -137 36 -41 100 -141 90 -141 -4 0 -3 -4 3 -8 22 -15 31
-45 24 -78 -6 -26 -4 -38 11 -55 10 -11 20 -26 22 -32 5 -15 47 21 47 40 0 8
4 12 9 9 5 -3 12 1 15 10 4 11 2 15 -8 11 -10 -4 -13 -1 -9 9 13 36 54 -18 45
-61 -4 -21 -7 -23 -19 -14 -10 9 -17 9 -25 1 -7 -7 -8 -12 -2 -13 5 0 -13 -11
-41 -24 -28 -13 -42 -24 -31 -24 12 -1 16 -6 12 -16 -6 -17 19 -21 29 -5 3 5
11 7 18 4 7 -2 31 3 53 13 35 16 39 22 42 58 2 26 -5 54 -18 80 -12 23 -16 41
-10 43 16 6 11 54 -9 87 -10 17 -31 42 -46 57 -23 23 -25 30 -15 43 41 50
-106 175 -206 175 -14 0 -33 13 -49 34 -42 56 -127 72 -217 42 -24 -8 -70 -16
-103 -17 -66 -3 -162 -27 -214 -53 -57 -30 -178 -158 -205 -217 -66 -143 -73
-278 -20 -387 17 -34 28 -64 25 -66 -3 -2 -19 5 -36 15 -16 10 -37 22 -45 26
-44 20 -190 113 -218 138 l-33 29 3 100 c2 62 7 101 13 101 6 0 29 14 50 31
61 49 217 144 226 138 15 -9 140 56 183 96 42 39 46 40 142 50 54 6 108 13
119 16 26 8 56 35 50 44 -3 4 11 11 31 14 48 9 55 33 18 63 -16 12 -37 23 -47
23 -10 0 -22 11 -27 24 -13 34 -33 42 -130 51 -113 10 -119 9 -151 -14 -16
-12 -34 -18 -42 -15 -25 9 -131 -38 -172 -77 -96 -91 -151 -139 -158 -139 -5
0 -28 -13 -52 -30 -24 -16 -46 -30 -49 -30 -3 0 -6 124 -6 276 0 259 1 276 18
269 9 -4 36 -13 59 -21z m618 -274 c2 -4 -32 -10 -77 -14 -45 -4 -88 -12 -95
-18 -25 -20 -1 -29 66 -24 58 5 61 4 21 -4 -156 -32 -155 -55 3 -55 172 0 153
-12 -48 -30 -37 -4 -69 -13 -85 -26 -14 -10 -35 -24 -47 -29 -13 -5 -23 -14
-23 -19 0 -13 -99 -61 -114 -55 -7 3 -27 -3 -44 -13 -35 -21 -184 -122 -224
-154 l-28 -21 0 82 c0 73 3 84 23 101 12 10 28 18 36 19 8 0 29 11 48 26 18
14 33 22 33 18 0 -4 6 -1 13 7 27 34 96 77 172 108 43 18 99 47 123 63 24 17
56 34 70 38 33 10 171 10 177 0z m-2234 -314 c75 -35 146 -107 182 -184 26
-55 29 -71 23 -117 -7 -58 -24 -105 -38 -105 -5 0 -8 -6 -6 -14 5 -23 -88
-115 -137 -136 -50 -21 -52 -26 -30 -50 19 -21 10 -31 -57 -57 -25 -10 -48
-22 -50 -28 -7 -22 45 -15 98 14 60 34 59 34 122 -17 40 -33 42 -37 42 -87 0
-84 -1 -85 -90 -85 -71 0 -82 3 -126 33 -39 25 -56 46 -80 97 -43 91 -59 87
-58 -15 2 -158 86 -255 246 -285 27 -6 54 -12 59 -15 5 -4 9 -49 9 -101 l0
-94 -343 0 c-189 0 -346 2 -349 5 -5 5 27 180 36 194 3 4 12 49 20 101 9 52
18 105 21 116 3 16 -1 23 -15 27 -13 3 -20 0 -21 -9 -1 -8 -2 -17 -4 -21 -1
-5 -5 -26 -9 -48 -18 -93 -37 -184 -51 -240 -8 -33 -14 -75 -15 -92 l0 -33
-120 0 -120 0 0 80 c0 47 4 80 10 80 19 0 25 4 60 35 19 18 64 58 100 90 36
33 71 67 78 77 12 16 10 18 -10 18 -16 0 -29 11 -45 40 l-21 40 98 89 c112
102 163 132 226 134 50 2 57 22 16 43 -177 88 -151 414 42 515 65 35 86 39
172 35 60 -3 94 -10 135 -30z m928 -6 c42 -21 78 -19 93 4 4 6 8 8 10 6 2 -3
13 -19 26 -37 12 -18 22 -37 22 -43 0 -6 7 -22 17 -36 9 -14 16 -38 15 -54 0
-21 3 -27 14 -23 10 4 8 -6 -8 -30 -13 -20 -29 -36 -37 -37 -8 0 -38 -12 -67
-26 -65 -32 -137 -35 -183 -8 -45 27 -71 101 -55 160 6 21 6 21 42 3 31 -16
39 -17 56 -5 12 8 22 27 24 45 4 34 -14 65 -30 55 -6 -4 -6 -10 1 -17 15 -15
14 -42 -4 -57 -19 -16 -55 -3 -55 21 0 22 4 23 30 7 23 -15 37 -4 21 16 -7 8
-10 20 -6 26 3 5 -2 10 -12 10 -16 1 -15 3 6 20 29 25 28 25 80 0z m-709 -55
c0 8 5 15 10 15 17 0 11 -21 -12 -40 l-23 -18 26 -7 c28 -7 72 -48 82 -77 4
-12 -1 -21 -14 -29 l-21 -11 21 -22 c29 -30 27 -60 -4 -74 -43 -20 -55 -16
-45 17 8 29 -12 103 -47 168 -15 28 -15 34 -2 50 12 16 12 17 -1 6 -10 -8 -21
-9 -30 -3 -10 6 -11 10 -3 10 7 0 10 7 6 16 -5 15 -3 15 26 0 27 -15 31 -15
31 -1z m3396 -358 c41 -42 42 -45 34 -83 -11 -50 -5 -137 18 -231 5 -24 6 -41
2 -38 -4 3 -15 -6 -23 -19 -20 -30 -102 -82 -169 -107 -59 -21 -178 -26 -225
-8 -34 12 -80 55 -98 89 -21 40 -29 134 -15 189 l11 49 42 -5 c23 -3 52 -12
64 -19 35 -22 68 -17 81 11 25 55 9 95 -46 116 -36 14 -19 23 19 10 38 -13 87
-15 74 -2 -6 5 -34 16 -64 26 -51 17 -53 19 -35 32 14 11 35 13 84 9 44 -4 80
-2 110 8 73 23 89 20 136 -27z m-2021 -52 l40 -34 -39 -115 c-21 -64 -42 -113
-47 -110 -11 6 -12 294 -1 294 4 -1 25 -16 47 -35z m-491 -60 c88 -4 164 -8
168 -11 4 -3 43 -7 85 -10 43 -2 92 -8 108 -12 l30 -8 3 -337 2 -337 -675 0
-675 0 0 98 c-1 112 -8 127 -65 137 -123 21 -192 61 -220 128 -47 113 -46 118
8 64 56 -56 107 -79 188 -85 112 -8 119 -3 136 98 7 45 63 149 83 155 11 4 20
10 20 15 0 5 10 12 23 16 12 3 33 14 47 24 46 32 116 49 230 55 252 14 305 17
309 21 3 2 12 2 20 0 9 -3 88 -8 175 -11z m504 -290 c24 -19 50 -35 57 -35 15
0 25 -95 28 -275 l2 -110 -75 0 -75 0 -3 238 c-2 191 0 236 10 228 7 -6 33
-27 56 -46z m-2299 -27 c8 -18 15 -35 15 -38 1 -3 -41 -45 -91 -94 l-93 -89 0
50 c0 47 3 52 71 126 39 42 74 77 78 77 3 0 13 -15 20 -32z m4156 -128 c9 -16
20 -30 25 -30 13 0 13 17 0 25 -15 9 -12 35 4 35 7 0 19 -7 26 -15 14 -17 35
-21 24 -4 -5 8 6 9 37 4 66 -11 139 -39 193 -73 27 -17 53 -29 57 -26 5 3 9
-10 8 -28 0 -18 -3 -28 -5 -21 -3 7 -12 9 -20 6 -9 -3 -12 0 -9 9 3 8 -1 20
-9 27 -17 14 -28 1 -32 -38 -2 -14 -10 -31 -19 -37 -10 -8 -12 -14 -6 -19 16
-9 14 -48 -1 -39 -10 5 -10 4 -1 -6 9 -10 9 -16 -1 -26 -17 -17 -296 -20 -296
-3 0 8 -4 8 -12 2 -14 -11 -278 -18 -278 -7 0 3 8 16 18 29 l18 22 28 -23 c15
-13 31 -24 37 -24 19 0 8 18 -25 41 -33 22 -34 24 -20 50 20 40 31 43 29 7 -2
-24 4 -34 26 -47 16 -9 29 -21 29 -27 0 -7 7 -14 15 -18 25 -9 17 18 -11 39
-15 11 -31 23 -37 26 -5 4 -7 14 -4 23 5 13 11 15 27 6 17 -9 20 -7 26 15 4
15 1 32 -6 40 -8 10 -9 15 -2 15 6 0 13 15 15 33 4 29 4 29 3 -5 -1 -20 2 -34
6 -32 5 3 8 14 8 25 0 10 3 18 8 18 21 -4 23 3 8 26 -13 19 -13 25 -3 25 7 0
19 -15 26 -33 8 -20 28 -41 51 -55 45 -25 120 -45 120 -30 0 5 3 7 8 5 4 -2
15 5 25 15 17 18 17 18 -10 12 -15 -4 -39 -7 -53 -7 -32 0 -96 41 -110 71 -17
39 -17 40 42 51 4 0 14 -12 23 -29z m-1965 -1480 l0 -1170 -857 0 c-472 0
-1004 -1 -1183 -2 l-325 -2 0 1110 c0 610 2 1137 3 1172 l4 62 1179 0 1179 0
0 -1170z m2338 1121 c2 -23 2 -41 0 -41 -2 1 -25 7 -52 14 -37 10 -59 10 -95
2 -60 -15 -108 -41 -122 -67 -15 -29 -6 -33 21 -9 12 11 31 22 41 25 11 4 19
10 19 15 0 16 88 22 138 10 l49 -11 2 -478 2 -477 -32 -27 c-18 -15 -38 -27
-45 -27 -6 0 -15 -7 -18 -16 -4 -9 -13 -14 -22 -10 -8 3 -13 2 -10 -2 6 -10
-16 -36 -33 -40 -12 -3 -12 0 -1 12 15 19 10 20 -25 4 -14 -6 -25 -16 -25 -21
0 -5 6 -5 13 2 10 8 14 7 14 -4 0 -8 -7 -15 -14 -15 -8 0 -11 -5 -8 -12 4 -7
0 -5 -8 5 -10 12 -17 14 -22 8 -3 -6 -1 -11 4 -11 6 0 11 -4 11 -9 0 -5 -11
-8 -25 -7 -14 0 -25 7 -25 14 0 19 30 63 68 100 41 38 34 42 -12 7 -36 -27
-71 -31 -111 -13 -31 14 -32 37 -4 72 17 21 24 25 30 14 6 -9 9 -7 9 10 0 26
29 31 31 5 1 -16 2 -16 6 0 3 12 10 16 21 12 9 -3 31 7 54 25 27 22 50 32 78
33 22 1 40 5 40 10 0 6 -32 8 -74 5 -89 -6 -169 -41 -215 -94 -37 -42 -39 -63
-7 -96 l25 -24 -34 -19 c-47 -25 -68 -60 -62 -101 4 -26 -1 -42 -24 -74 -16
-22 -39 -61 -52 -87 -16 -33 -30 -49 -49 -54 -50 -13 -81 -59 -98 -142 -15
-73 -10 -93 33 -138 24 -25 39 -55 50 -97 22 -89 70 -182 122 -237 24 -27 47
-46 51 -43 3 4 -13 31 -36 61 -39 52 -64 106 -96 207 -18 56 -20 190 -3 255
18 73 74 201 104 241 22 28 29 32 45 24 24 -13 131 -13 166 0 36 14 41 6 13
-22 -69 -67 -95 -147 -63 -196 9 -13 18 -21 21 -18 4 3 15 -2 25 -11 11 -10
32 -16 51 -15 42 3 55 17 14 16 -39 -2 -83 19 -97 47 -9 16 -8 28 5 55 18 38
28 37 56 -10 17 -27 19 -28 19 -9 0 12 5 25 10 28 6 4 8 11 4 16 -3 5 -10 7
-15 3 -5 -3 -7 -10 -4 -15 4 -5 1 -9 -4 -9 -19 0 -12 20 19 50 17 17 27 30 23
30 -4 0 2 6 13 14 16 12 20 12 27 0 7 -12 12 -11 35 4 14 9 23 11 19 5 -5 -7
-2 -22 5 -32 12 -17 13 -9 12 62 -1 45 2 90 7 100 12 22 -7 61 -24 50 -7 -4
-7 0 2 10 7 9 10 17 5 17 -5 0 0 7 10 15 19 15 19 15 -5 15 l-24 0 21 18 c12
9 24 24 27 32 3 8 6 -265 6 -608 l1 -622 -262 2 -262 3 -7 34 c-7 32 -6 33 50
58 59 27 73 31 186 59 49 12 70 13 73 5 2 -6 8 -11 13 -11 4 0 6 7 3 15 -5 11
8 15 67 17 46 2 74 7 76 15 5 15 -126 17 -192 3 -22 -4 -63 -13 -92 -19 -29
-6 -89 -25 -133 -42 -76 -30 -81 -31 -99 -15 -11 10 -37 20 -59 23 -42 6 -52
19 -52 72 0 24 -32 119 -68 201 -21 49 -80 128 -137 183 -22 21 -69 49 -118
68 -106 43 -207 47 -275 11 l-44 -23 -36 31 c-21 17 -44 36 -52 43 -24 20 -92
37 -151 37 -74 0 -152 -32 -207 -84 -54 -52 -112 -170 -122 -251 -7 -63 8
-148 35 -189 12 -18 11 -31 -5 -95 -11 -41 -20 -92 -20 -113 l0 -38 -200 0
-200 0 0 293 c0 160 -3 680 -6 1155 -3 474 -3 870 0 878 6 15 112 16 1149 11
l1142 -5 3 -41z"/>
<path d="M998 5393 c-25 -27 -98 -163 -98 -183 0 -22 39 -9 52 18 7 15 23 28
36 30 18 3 22 -1 22 -21 0 -14 7 -27 15 -31 16 -6 38 54 50 139 12 75 -28 100
-77 48z"/>
<path d="M3965 5450 c-9 -14 12 -30 38 -30 26 0 21 -16 -23 -79 -41 -59 -50
-91 -26 -91 15 0 106 127 106 148 0 8 18 12 55 12 41 0 55 4 55 14 0 21 -5 23
-106 30 -67 5 -94 4 -99 -4z"/>
<path d="M4237 5390 c-19 -34 -35 -50 -48 -50 -16 0 -19 6 -17 27 5 46 -24 38
-59 -17 -18 -27 -33 -56 -33 -64 0 -27 21 -28 41 -2 32 41 66 29 40 -13 -11
-17 -3 -41 13 -40 17 0 111 153 111 179 0 40 -19 32 -48 -20z"/>
<path d="M3619 5361 c-82 -77 -85 -93 -18 -117 91 -33 169 -7 155 52 -5 20 -2
30 14 41 25 18 25 34 -1 67 -35 44 -65 35 -150 -43z"/>
<path d="M3873 5409 c-12 -4 -34 -27 -50 -50 -25 -38 -26 -43 -12 -67 18 -33
60 -40 94 -18 39 25 48 50 32 88 -19 44 -37 58 -64 47z"/>
<path d="M4198 4973 c-5 -28 -2 -253 5 -253 4 0 7 -6 7 -14 0 -43 105 -15 123
33 10 28 12 28 34 14 33 -22 68 -10 87 30 17 37 10 85 -17 112 -9 8 -17 20
-19 26 -3 8 -14 10 -32 5 -31 -8 -61 -64 -53 -103 3 -18 2 -21 -9 -12 -9 7
-12 25 -8 52 5 45 -7 66 -56 100 -25 18 -59 23 -62 10z"/>
<path d="M3410 4304 c0 -4 7 -16 17 -26 14 -16 14 -18 0 -18 -15 0 -67 -54
-67 -70 0 -14 25 -6 54 18 15 12 44 24 63 28 28 5 39 2 60 -17 33 -30 66 -104
58 -128 -3 -11 -2 -22 3 -25 6 -3 12 6 15 21 5 29 -12 87 -39 129 l-18 27 23
-12 c31 -17 39 -5 14 21 -13 12 -47 26 -85 33 -35 7 -71 16 -80 20 -10 4 -18
4 -18 -1z"/>
<path d="M3061 4111 c-12 -8 -10 -12 12 -22 15 -7 29 -20 32 -30 3 -9 12 -20
20 -23 8 -3 15 -14 15 -25 0 -11 5 -23 10 -26 6 -3 10 -16 10 -28 0 -18 -2
-19 -10 -7 -6 9 -10 10 -10 3 0 -14 116 -103 135 -103 28 0 56 35 57 71 3 92
-119 199 -227 199 -16 0 -37 -4 -44 -9z"/>
<path d="M731 4144 c-25 -18 -27 -41 -5 -73 12 -17 24 -22 45 -19 16 3 29 1
29 -2 0 -4 20 -18 44 -31 43 -22 45 -23 64 -6 24 22 19 52 -17 91 -44 48 -121
67 -160 40z"/>
<path d="M4458 3863 c-37 -41 -41 -61 -15 -76 12 -7 46 -28 75 -45 28 -17 52
-27 52 -21 0 5 9 22 19 37 35 49 35 77 0 106 -43 36 -96 36 -131 -1z"/>
<path d="M4295 3760 c3 -5 13 -10 21 -10 13 0 14 -8 9 -39 -6 -36 -4 -40 29
-60 49 -31 120 -26 124 7 4 29 -11 48 -67 84 -44 27 -130 41 -116 18z"/>
<path d="M2047 3811 c-30 -36 -80 -161 -76 -186 6 -31 29 -29 40 4 9 27 16 31
46 31 34 0 35 -1 30 -29 -5 -21 -2 -31 10 -35 9 -4 21 -2 26 3 13 13 11 194
-2 220 -16 29 -45 26 -74 -8z"/>
<path d="M1430 3411 l0 -81 43 0 c24 0 48 5 55 12 17 17 15 45 -4 56 -11 6
-13 11 -5 16 13 8 15 52 3 60 -5 3 -28 8 -50 12 l-42 7 0 -82z"/>
<path d="M1307 2054 c-4 -4 -7 -105 -7 -225 0 -229 -5 -263 -44 -273 -36 -10
-44 -7 -80 25 l-35 30 -46 -26 c-45 -27 -45 -27 -29 -54 36 -61 127 -94 214
-79 58 10 90 34 118 89 22 42 22 52 20 279 l-3 235 -50 3 c-28 2 -54 0 -58 -4z"/>
<path d="M1630 2049 c-61 -24 -100 -85 -100 -154 0 -83 44 -135 155 -185 109
-49 142 -93 98 -132 -45 -39 -114 -34 -164 13 -28 26 -35 29 -58 19 -14 -6
-37 -19 -50 -29 l-24 -18 44 -44 c51 -51 104 -71 190 -70 74 0 138 27 170 72
19 28 24 46 24 100 0 91 -27 125 -143 180 -106 51 -122 64 -122 100 0 58 89
77 124 27 15 -21 15 -21 60 6 25 15 46 30 46 34 0 14 -65 71 -93 81 -35 14
-123 13 -157 0z"/>
<path d="M3910 3115 c-116 -17 -183 -37 -303 -94 -224 -106 -311 -211 -311
-376 1 -119 94 -255 223 -324 120 -64 291 -91 572 -91 l86 0 23 -62 c42 -117
123 -263 156 -281 19 -11 18 13 -2 61 -20 48 -54 205 -54 252 0 36 2 37 67 64
165 68 269 150 320 254 23 48 28 70 28 137 0 94 -20 140 -100 234 -91 106
-315 207 -500 226 -33 3 -73 7 -90 9 -16 2 -68 -2 -115 -9z m265 -39 c170 -30
321 -100 406 -186 80 -82 104 -134 104 -230 0 -97 -33 -168 -109 -238 -56 -50
-190 -127 -261 -147 -39 -12 -40 -13 -43 -64 -2 -29 4 -76 12 -106 17 -55 21
-93 9 -82 -12 13 -73 160 -73 179 0 10 -9 27 -20 38 -19 19 -33 20 -207 20
-162 0 -202 4 -290 24 -55 13 -126 35 -157 49 -107 49 -196 159 -212 263 -7
49 10 137 36 187 21 39 93 110 144 142 17 11 33 23 34 27 2 5 11 8 21 8 9 0
21 4 27 9 14 14 181 76 244 92 46 11 98 17 235 27 11 1 56 -4 100 -12z"/>
<path d="M3902 2810 c3 -45 1 -50 -18 -50 -15 0 -24 9 -30 33 -6 17 -16 32
-24 32 -12 0 -14 -13 -12 -65 4 -85 9 -100 34 -100 17 0 19 4 14 27 -5 17 -3
29 6 34 21 14 35 10 41 -11 5 -19 33 -37 43 -28 7 8 -17 152 -28 166 -21 24
-30 11 -26 -38z"/>
<path d="M4217 2845 c-12 -8 -31 -11 -51 -8 -53 8 -102 -27 -57 -42 14 -4 22
-20 28 -58 6 -39 13 -53 27 -55 17 -4 18 1 12 61 -9 77 7 99 25 35 6 -24 16
-49 21 -55 12 -15 56 -17 77 -4 21 13 2 33 -25 27 -35 -9 -30 13 6 26 39 13
33 33 -9 32 -17 -1 -31 2 -31 6 0 11 26 20 56 20 15 0 24 6 24 15 0 20 -78 20
-103 0z"/>
<path d="M2920 2931 c-42 -22 -97 -81 -111 -117 -12 -32 -1 -47 15 -20 6 11
26 36 44 57 86 98 216 91 224 -14 2 -29 8 -42 18 -42 11 0 14 9 12 29 -3 27
10 46 33 46 6 0 26 -14 44 -31 18 -16 36 -27 40 -24 3 4 -11 22 -33 42 -32 29
-44 34 -70 30 -25 -4 -35 -1 -45 15 -15 24 -70 48 -108 48 -15 -1 -44 -9 -63
-19z"/>
<path d="M735 355 c-14 -13 -25 -36 -25 -50 0 -51 68 -92 110 -65 9 6 17 5 22
-3 4 -7 8 24 8 68 0 44 -4 75 -8 68 -5 -8 -13 -9 -22 -3 -26 17 -60 11 -85
-15z"/>
<path d="M1736 359 c-52 -41 -19 -129 49 -129 39 0 69 33 69 75 0 67 -64 96
-118 54z"/>
</g>
</svg>
