<?xml version="1.0" standalone="no"?>
<!DOCTYPE svg PUBLIC "-//W3C//DTD SVG 20010904//EN"
 "http://www.w3.org/TR/2001/REC-SVG-20010904/DTD/svg10.dtd">
<svg version="1.0" xmlns="http://www.w3.org/2000/svg"
 width="720.000000pt" height="898.000000pt" viewBox="0 0 720.000000 898.000000"
 preserveAspectRatio="xMidYMid meet">
<metadata>
Created by potrace 1.16, written by Peter Selinger 2001-2019
</metadata>
<g transform="translate(0.000000,898.000000) scale(0.100000,-0.100000)"
fill="#000000" stroke="none">
<path d="M2524 8875 c17 -40 10 -44 -22 -15 -30 29 -35 25 -28 -20 5 -32 3
-40 -9 -40 -34 0 -10 -95 34 -138 56 -53 33 -108 -28 -66 -32 23 -50 70 -44
116 6 38 -9 53 -21 22 -17 -43 10 -140 50 -185 8 -9 17 -26 19 -39 2 -13 12
-31 21 -41 9 -10 14 -25 11 -34 -4 -8 -2 -15 3 -15 15 0 12 44 -5 66 -21 28
-19 64 4 64 11 0 21 -6 24 -12 7 -21 15 -6 22 43 5 35 3 49 -9 62 -23 23 -20
37 8 37 25 0 56 23 56 41 0 6 16 -2 35 -16 41 -32 103 -49 122 -33 19 16 39
-5 58 -61 18 -55 12 -81 -18 -81 -20 0 -20 0 -1 14 18 14 18 15 1 21 -20 8
-47 -10 -47 -32 0 -8 5 -23 11 -34 10 -19 10 -19 39 1 15 11 31 20 35 20 8 0
0 -95 -10 -110 -3 -5 -28 -21 -55 -36 -28 -15 -50 -31 -50 -36 0 -12 2 -11 54
18 52 29 75 64 76 115 1 46 -18 156 -30 179 -5 10 -10 37 -10 59 0 31 -7 49
-32 77 -40 45 -102 86 -122 78 -7 -3 -17 -1 -21 5 -3 6 -21 11 -38 11 -18 0
-45 7 -61 15 -38 20 -38 20 -22 -20z m135 -32 c64 -18 141 -87 141 -127 0 -20
-6 -24 -35 -28 -35 -4 -110 26 -146 58 -17 16 -29 9 -29 -16 0 -18 -62 -42
-86 -33 -20 7 -19 73 1 73 18 0 18 1 5 34 -11 30 -4 32 28 10 19 -13 26 -13
38 -3 8 7 11 15 7 18 -4 3 -14 14 -22 24 -13 17 -12 18 15 12 16 -4 53 -14 83
-22z"/>
<path d="M2490 8295 c0 -2 6 -19 14 -37 34 -80 56 -138 56 -150 0 -8 -16 -20
-35 -27 -19 -7 -51 -28 -71 -47 -21 -19 -38 -33 -39 -32 -1 2 -16 25 -33 52
-18 27 -32 55 -32 63 0 7 -5 13 -11 13 -6 0 -8 -6 -5 -12 3 -7 9 -22 13 -33
23 -68 169 -341 207 -388 40 -49 45 -61 39 -89 -13 -74 -79 -111 -198 -111
-71 0 -88 4 -155 36 -42 20 -91 52 -110 72 -39 40 -50 43 -50 16 0 -11 -4 -23
-10 -26 -5 -3 -10 -34 -10 -68 0 -69 23 -125 59 -143 12 -6 32 -20 44 -31 30
-27 133 -96 182 -121 79 -41 81 -43 57 -88 -12 -21 -29 -60 -38 -87 l-17 -47
-42 39 c-59 54 -105 66 -162 41 -49 -22 -70 -58 -99 -171 -19 -73 -14 -175 16
-349 58 -332 159 -532 281 -557 79 -17 112 2 151 87 18 38 21 65 22 172 l1
127 43 -6 c27 -4 52 -1 67 7 16 9 29 10 37 3 7 -5 33 -16 56 -23 53 -17 64
-40 60 -119 l-3 -56 60 -3 c114 -6 235 27 235 65 0 8 14 26 30 40 17 13 30 29
30 34 0 5 -23 8 -52 7 l-51 -3 -13 50 c-8 28 -14 71 -14 97 0 26 -4 58 -10 72
-8 23 -7 26 13 26 12 0 40 -5 62 -12 22 -6 43 -12 47 -12 13 -2 17 -13 23 -66
20 -176 73 -316 179 -478 80 -121 120 -152 200 -152 77 0 98 11 126 66 24 47
25 57 24 214 -1 123 -6 193 -22 275 -27 144 -49 233 -67 270 -7 17 -21 53 -30
80 -43 127 -90 209 -155 268 -45 40 -71 57 -91 57 -15 0 -30 4 -33 9 -4 5 -16
56 -27 113 -41 198 -41 177 -4 192 41 17 43 22 46 80 2 40 7 49 27 57 33 13
45 2 27 -23 -11 -16 -12 -25 -3 -35 14 -17 28 -16 48 2 15 14 18 14 30 0 16
-19 30 -19 30 0 0 9 9 15 25 15 21 0 25 5 25 31 0 39 -35 89 -61 89 -18 0 -71
34 -107 68 -7 6 -18 12 -23 12 -6 0 -17 7 -25 15 -9 8 -20 15 -25 15 -6 0 4
-12 22 -27 18 -16 44 -38 58 -50 13 -13 28 -23 34 -23 6 0 26 -12 45 -27 20
-15 32 -20 27 -12 -5 8 0 6 12 -4 23 -20 36 -54 23 -62 -4 -3 -11 5 -15 18 -6
20 -8 18 -17 -15 -10 -37 -28 -52 -28 -24 0 26 -20 28 -41 4 l-21 -23 17 28
c10 17 14 39 11 52 -7 26 -36 41 -47 24 -4 -7 -14 -9 -23 -6 -9 4 -16 1 -16
-4 0 -7 -11 -4 -26 6 -20 13 -32 14 -54 7 -22 -8 -32 -7 -47 6 -21 19 -77 52
-88 52 -9 0 46 -45 73 -59 30 -16 23 -37 -12 -33 -15 2 -33 -1 -41 -8 -9 -8
-25 -8 -59 1 -25 6 -46 13 -46 16 0 2 18 25 39 51 100 119 152 184 222 277 41
55 100 134 131 175 31 41 70 88 87 104 17 17 31 35 31 40 -1 15 -50 50 -58 41
-4 -4 2 -13 12 -21 11 -7 17 -17 13 -20 -4 -4 -13 -1 -22 6 -9 7 -17 11 -18 9
-1 -2 -8 -11 -15 -20 -11 -14 -9 -16 13 -11 26 5 34 -11 12 -25 -7 -4 -28 -28
-47 -53 -19 -25 -43 -54 -52 -64 -10 -11 -18 -24 -18 -29 0 -16 -118 -170
-187 -245 -18 -19 -33 -39 -33 -44 0 -4 -7 -8 -15 -8 -8 0 -15 -7 -15 -15 0
-9 -11 -27 -25 -41 -14 -14 -25 -27 -25 -29 0 -5 -34 -46 -58 -71 -16 -16 -32
-18 -32 -4 0 6 4 10 9 10 5 0 16 15 24 33 9 17 24 39 34 48 10 9 28 30 40 45
21 29 43 54 89 106 13 15 24 32 24 36 0 5 15 26 33 48 47 56 187 242 187 249
0 9 -91 -95 -164 -188 -38 -48 -74 -86 -80 -84 -17 6 -116 161 -116 182 0 20
-19 28 -35 15 -10 -8 -19 -8 -34 0 -28 14 -72 -8 -102 -52 -12 -18 -24 -35
-27 -38 -11 -14 -32 40 -33 84 l-1 51 -18 -57 c-9 -31 -27 -70 -39 -87 -12
-16 -28 -47 -35 -68 l-13 -37 -18 27 c-23 36 -66 158 -59 169 3 5 1 15 -5 22
-7 8 -11 18 -10 22 2 10 -80 184 -86 184 -3 0 -5 -2 -5 -5z m101 -291 c23 -75
79 -160 157 -241 33 -34 63 -71 67 -82 8 -26 38 -35 63 -20 42 26 73 -12 49
-60 -13 -27 -13 -31 2 -44 9 -9 27 -17 41 -19 31 -4 33 -22 3 -26 -13 -2 -23
-8 -23 -14 0 -6 8 -7 18 -3 51 20 107 14 115 -13 3 -9 12 -40 20 -68 l14 -51
-129 -17 c-125 -16 -131 -16 -144 1 -7 10 -14 22 -14 27 0 12 -46 53 -67 60
-10 4 -33 19 -52 35 l-34 28 38 7 c22 5 40 3 44 -2 15 -25 98 -82 119 -82 37
0 92 27 92 46 0 16 -1 16 -19 0 -33 -30 -75 -36 -107 -16 -36 21 -71 60 -56
60 23 0 12 18 -18 30 -16 7 -40 21 -52 32 -53 45 -64 54 -91 71 -66 42 -202
276 -195 335 4 34 81 94 116 90 21 -3 27 -13 43 -64z m397 37 c13 -7 30 -28
38 -46 7 -18 19 -39 27 -47 25 -26 67 -85 67 -95 0 -5 -25 -36 -55 -68 -30
-31 -55 -60 -55 -64 0 -3 -12 -19 -26 -35 -26 -29 -26 -29 -56 -11 -26 15 -33
15 -55 4 -22 -12 -26 -11 -35 5 -6 11 -42 52 -79 93 -38 41 -69 80 -69 87 0
29 65 156 80 156 3 0 13 -17 23 -38 22 -43 117 -152 117 -132 0 7 -21 37 -46
67 -50 58 -50 54 5 116 20 22 32 27 61 24 19 -2 46 -9 58 -16z m-868 -483 c7
-18 12 -37 11 -41 -1 -5 3 -6 9 -2 5 3 10 4 10 1 0 -2 3 -11 6 -19 3 -8 -2
-22 -11 -31 -9 -9 -12 -16 -6 -16 5 0 13 5 16 10 3 6 11 10 17 10 6 0 3 -9 -7
-20 -10 -11 -15 -23 -12 -27 4 -3 7 -1 7 6 0 9 10 12 30 9 39 -6 49 9 16 22
-26 9 -52 47 -41 58 4 4 11 -1 16 -11 7 -12 17 -16 32 -11 22 6 22 6 2 -10
-12 -9 -15 -16 -7 -17 6 -1 18 -2 25 -3 21 -4 28 5 16 20 -10 12 -8 13 12 4
13 -6 32 -13 42 -16 9 -4 17 -10 17 -14 0 -9 87 -6 96 3 4 3 19 -1 33 -11 14
-10 38 -24 54 -32 28 -14 34 -25 18 -34 -4 -3 -16 3 -26 14 -10 11 -23 16 -29
12 -6 -4 -26 -7 -44 -7 -32 0 -33 0 -12 17 11 9 20 19 20 23 0 4 -7 1 -17 -6
-9 -8 -26 -13 -37 -12 -12 1 -15 0 -8 -3 21 -10 13 -24 -12 -22 -16 2 -22 6
-16 13 5 6 -1 15 -16 22 -13 6 -22 8 -20 5 2 -4 0 -15 -3 -25 -6 -18 -8 -18
-21 -2 -11 14 -11 16 1 13 9 -2 13 4 11 17 -5 26 -6 27 -25 19 -9 -3 -14 -14
-12 -25 2 -10 0 -21 -6 -24 -5 -4 -9 -13 -9 -21 0 -9 5 -12 12 -8 7 4 8 3 4
-5 -6 -9 -11 -9 -24 1 -12 10 -14 10 -8 1 4 -7 2 -13 -3 -13 -6 0 -11 4 -11 9
0 5 -12 8 -26 5 -18 -3 -25 -1 -22 8 2 6 18 12 35 12 44 1 54 16 10 16 -20 0
-39 -5 -42 -10 -4 -6 -20 3 -38 22 -29 30 -32 39 -32 95 0 35 3 63 7 63 3 0
12 -15 18 -32z m315 -168 c4 -6 1 -9 -7 -8 -7 2 -12 -3 -10 -10 1 -8 -1 -11
-6 -8 -5 3 -9 0 -9 -7 0 -9 16 -12 49 -11 35 1 48 -3 48 -13 0 -8 -8 -13 -18
-11 -11 2 -27 -3 -36 -11 -14 -12 -17 -12 -14 -1 2 8 -5 14 -17 14 -11 0 -23
5 -27 11 -4 5 -8 -1 -8 -14 0 -19 3 -21 14 -12 10 8 16 9 21 1 3 -5 1 -10 -4
-10 -6 0 -11 -4 -11 -8 0 -12 45 -9 61 5 8 6 31 9 52 8 41 -4 48 2 16 13 -21
8 -21 9 5 25 14 10 26 13 26 7 0 -5 7 -10 15 -10 21 0 19 20 -2 21 -10 1 -35
2 -55 1 -21 0 -38 4 -38 9 0 5 -8 9 -17 9 -15 0 -16 2 -3 10 19 12 33 13 26 1
-8 -13 35 -21 55 -10 24 12 22 12 52 -15 20 -18 23 -26 14 -36 -10 -10 -7 -12
12 -7 32 8 89 -36 111 -86 10 -21 21 -37 26 -36 30 6 40 -119 12 -146 -8 -7
-8 -6 -3 4 5 9 4 12 -3 7 -7 -4 -9 -18 -6 -32 4 -14 2 -24 -5 -24 -6 0 -11 6
-11 14 0 8 -4 18 -10 21 -7 4 -7 -3 0 -20 13 -34 13 -55 -1 -55 -5 0 -8 4 -5
9 3 5 -2 15 -11 22 -15 12 -16 12 -11 -7 5 -18 1 -21 -17 -20 -17 1 -21 4 -13
13 6 7 8 20 4 28 -3 9 -2 13 4 10 6 -3 10 1 10 10 0 9 4 14 8 11 7 -4 9 44 2
52 -1 1 -3 6 -4 11 0 5 -4 13 -8 17 -8 7 -12 -16 -8 -50 1 -10 -3 -16 -8 -12
-5 3 -8 19 -7 34 1 19 -2 29 -11 29 -11 0 -11 -3 -1 -16 10 -12 9 -13 -2 -6
-10 6 -12 4 -6 -6 5 -8 4 -11 -1 -6 -5 5 -9 18 -9 30 0 16 -6 22 -22 23 -35 2
-36 3 -24 18 9 10 9 16 1 21 -8 5 -6 13 5 25 10 11 15 25 12 32 -3 8 -6 6 -6
-5 -1 -10 -5 -16 -10 -13 -5 3 -7 15 -4 26 6 22 -15 25 -29 5 -4 -6 -8 -2 -8
8 0 9 5 18 10 18 6 1 16 2 23 3 6 0 12 9 12 19 0 9 -3 16 -6 15 -3 -2 -13 3
-23 11 -9 8 -20 11 -23 7 -4 -4 -1 -11 7 -16 11 -7 12 -11 0 -25 -9 -11 -16
-13 -23 -6 -15 15 -37 -6 -37 -35 0 -21 -3 -22 -24 -14 -20 7 -25 6 -28 -7 -3
-14 -5 -14 -18 2 -8 11 -10 16 -4 12 7 -4 17 -1 22 6 9 10 0 12 -39 11 -45 -1
-50 1 -46 18 3 11 0 18 -10 18 -8 0 -12 -4 -9 -9 4 -5 -2 -8 -11 -6 -10 2 -21
4 -24 4 -3 1 -16 9 -27 20 -26 22 -28 46 -6 55 8 3 12 11 8 17 -4 8 -3 9 5 5
6 -4 9 -11 6 -16 -3 -5 4 -12 15 -15 16 -5 18 -10 10 -20 -8 -9 -5 -14 10 -18
11 -3 23 -1 26 4 3 5 10 7 15 4 5 -4 9 1 9 9 0 9 -7 13 -19 11 -15 -3 -19 1
-16 17 3 15 0 18 -13 13 -9 -3 -13 -2 -8 2 13 13 66 9 66 -5 0 -7 5 -10 10 -7
6 4 7 11 4 17 -4 6 -2 8 4 4 6 -3 13 -2 17 4 8 13 12 13 20 0z m695 -123 c0
-8 -15 -31 -32 -52 -54 -64 -180 -194 -187 -193 -14 2 -71 -25 -71 -34 0 -7 5
-6 14 1 8 7 17 8 20 3 6 -11 -41 -58 -50 -50 -12 13 -11 44 3 60 9 10 11 18 4
22 -12 8 -34 -30 -26 -44 3 -5 -1 -7 -9 -4 -12 5 -13 10 -4 30 6 13 15 24 20
24 5 0 8 8 6 18 -1 9 1 23 5 30 16 25 10 90 -12 120 -28 39 -27 51 4 48 25 -3
28 -8 17 -34 -2 -7 0 -18 6 -24 8 -8 9 -4 5 12 -4 17 -3 21 6 16 8 -5 10 -19
5 -39 -6 -28 -5 -30 10 -18 20 16 20 11 3 -23 -8 -14 -17 -23 -20 -19 -4 3 -7
-3 -7 -13 0 -11 6 -26 12 -32 10 -10 10 -17 0 -32 -7 -12 -8 -21 -2 -25 6 -4
14 4 19 17 6 13 10 16 11 8 0 -12 2 -12 9 -2 4 8 12 14 17 13 23 0 20 42 -7
120 -16 46 -26 86 -21 91 6 6 45 9 205 16 34 1 47 -2 47 -11z m35 -178 c6 -25
2 -36 -20 -59 -60 -63 -85 -345 -35 -393 26 -23 27 -62 3 -52 -10 3 -43 13
-72 21 -30 8 -58 17 -61 21 -15 18 -30 94 -36 184 l-7 97 63 68 c116 126 144
153 151 148 4 -2 11 -18 14 -35z m-935 -36 l29 -17 -5 -180 c-3 -100 -7 -187
-9 -193 -3 -7 -12 -13 -20 -13 -9 0 -14 4 -11 8 4 7 -19 158 -38 252 -3 14 -8
42 -11 64 -4 21 -8 36 -10 34 -3 -3 14 -131 31 -243 3 -19 -1 -38 -10 -50 -16
-19 -16 -19 -11 5 3 14 1 37 -5 50 -9 23 -10 22 -4 -7 4 -27 3 -32 -9 -27 -8
3 -18 15 -21 27 -3 12 -17 35 -31 51 -30 35 -31 59 -5 132 19 56 73 124 98
124 8 0 27 -8 42 -17z m347 -21 c1 -9 0 -24 -4 -32 -9 -23 -10 -101 -1 -106 4
-3 11 2 14 10 3 9 11 16 17 16 6 0 7 -3 4 -7 -4 -3 -2 -12 3 -18 7 -9 5 -17
-7 -26 -16 -13 -17 -12 -5 3 8 10 9 19 3 22 -5 4 -12 2 -16 -4 -4 -6 -11 -8
-16 -5 -11 7 -12 -18 -1 -29 4 -4 8 -12 8 -17 1 -5 2 -12 3 -16 0 -3 10 2 22
13 12 10 24 18 28 17 3 -1 5 8 4 20 -3 22 -3 21 7 -1 7 -17 15 -22 30 -17 24
8 25 2 3 -21 -16 -15 -17 -15 -24 2 -5 14 -7 10 -6 -14 0 -18 -3 -36 -7 -40
-5 -4 -6 3 -4 15 1 12 -1 21 -7 20 -5 -1 -9 -5 -8 -9 1 -3 -5 -12 -15 -20 -15
-12 -16 -11 -4 4 12 16 2 35 -12 21 -18 -18 -35 -10 -34 18 1 16 -2 32 -5 36
-4 3 -7 -24 -7 -60 0 -38 -4 -67 -10 -67 -5 0 -10 -5 -10 -11 0 -5 4 -8 9 -5
5 3 14 0 20 -8 9 -10 8 -16 -4 -26 -15 -12 -11 -35 5 -25 4 3 7 -1 6 -7 -7
-30 -19 -48 -35 -48 -14 -1 -14 -2 0 -13 8 -7 18 -20 22 -31 6 -15 10 -16 22
-6 8 7 12 17 8 23 -3 5 -1 7 5 3 5 -3 12 -1 14 5 2 6 10 0 17 -14 12 -22 11
-28 -3 -48 l-16 -23 0 34 0 33 -25 -23 c-19 -18 -25 -20 -25 -8 0 9 -7 21 -15
28 -13 11 -18 10 -30 -6 -13 -18 -14 -17 -15 14 0 25 6 35 25 44 28 12 33 28
10 28 -20 0 -19 37 2 48 14 9 14 10 -5 16 -23 8 -30 26 -11 26 8 0 8 4 0 14
-9 11 -8 17 2 28 7 7 15 29 16 48 1 19 6 53 10 75 7 31 9 34 11 15 1 -14 2
-29 1 -33 -1 -5 3 -6 8 -3 5 3 6 21 1 40 -7 33 -4 75 7 106 4 8 5 20 4 25 -2
6 1 6 5 2 4 -4 9 -15 11 -25z m767 -112 c13 -52 15 -90 11 -152 -4 -50 -3 -93
3 -108 9 -20 11 -9 12 60 1 83 2 84 15 48 20 -54 20 -98 1 -143 -9 -22 -14
-50 -11 -62 3 -13 1 -23 -4 -23 -9 0 -26 65 -22 88 1 6 -3 12 -9 12 -5 0 -10
-4 -10 -10 0 -5 -4 -10 -9 -10 -10 0 -35 80 -46 147 -4 24 -11 45 -16 49 -5 3
-7 9 -4 14 3 4 -2 23 -10 42 -12 30 -12 38 0 55 8 11 11 24 7 28 -4 5 -1 5 6
1 8 -5 21 0 33 13 11 12 23 21 28 21 5 0 16 -31 25 -70z m53 38 c28 -31 53
-82 53 -109 0 -12 3 -19 7 -16 13 13 95 -255 108 -348 2 -17 8 -42 13 -55 43
-108 48 -455 7 -500 -23 -25 -38 -26 -30 0 12 39 22 121 15 125 -11 7 -17 -13
-25 -79 -4 -31 -12 -59 -17 -62 -10 -7 -47 29 -103 100 -63 80 -65 85 -60 166
3 50 1 67 -4 50 -5 -14 -9 -40 -10 -57 -1 -18 -4 -33 -8 -33 -12 0 -43 59 -43
80 0 11 -6 23 -12 27 -18 11 -60 102 -53 114 4 5 19 9 35 9 16 0 32 5 35 10 4
6 -11 10 -38 10 -46 0 -57 10 -57 49 0 10 -7 33 -17 51 -11 23 -17 66 -20 134
-3 114 -4 115 52 -63 24 -77 25 -84 9 -96 -15 -11 -14 -13 15 -23 17 -6 38 -9
46 -6 9 4 15 0 15 -7 1 -8 9 -32 20 -54 25 -52 25 -54 -7 -87 -14 -15 -23 -31
-18 -35 4 -5 10 -2 12 4 9 25 38 51 63 56 22 5 32 -3 80 -71 85 -118 165 -206
113 -124 -26 41 -146 206 -154 212 -4 3 -11 23 -15 45 -6 36 -6 39 9 27 9 -8
17 -27 19 -44 3 -30 6 -32 131 -103 15 -9 27 -13 27 -9 0 10 -41 43 -82 66
-26 15 -38 29 -38 43 0 29 9 36 32 24 10 -6 29 -9 41 -7 18 3 13 8 -25 25 -35
16 -48 28 -48 42 0 21 16 26 63 22 9 -1 17 3 17 8 0 6 -16 11 -35 11 -39 0
-55 21 -38 49 8 12 7 22 -3 36 -12 16 -12 22 1 42 11 16 11 21 3 18 -17 -7
-38 61 -38 124 0 31 -6 55 -15 65 -8 8 -15 23 -15 33 0 10 -11 42 -25 71 -14
30 -25 56 -25 58 0 11 19 2 37 -18z m-979 -395 c16 -4 22 -13 22 -31 0 -14 7
-34 17 -44 15 -17 15 -19 0 -36 -22 -25 -21 -32 4 -32 21 0 21 -3 16 -72 -6
-89 -24 -163 -43 -179 -11 -9 -14 -8 -14 4 0 17 -85 188 -114 228 -9 13 -16
29 -16 37 0 18 26 3 89 -54 28 -25 55 -43 59 -40 7 8 -42 56 -108 109 l-35 27
72 -2 c97 -4 100 11 9 47 -22 8 -37 18 -33 21 3 3 19 -2 36 -10 27 -14 30 -14
25 -1 -4 8 -17 18 -30 21 -13 3 -24 11 -24 16 0 6 9 7 23 3 12 -3 32 -9 45
-12z m-204 -77 c12 -20 14 -37 7 -93 -8 -64 -7 -82 3 -72 3 2 7 28 9 58 5 49
26 96 28 61 0 -8 2 -24 5 -35 2 -11 6 -31 8 -45 2 -14 6 -32 8 -40 14 -42 38
-131 48 -182 6 -32 15 -58 20 -58 11 0 6 31 -27 160 -37 142 -37 144 -26 137
18 -11 123 -226 123 -252 0 -14 -13 -39 -29 -57 l-29 -33 -36 39 c-19 21 -42
55 -51 75 -9 20 -25 52 -36 72 -10 20 -19 48 -19 63 0 15 -6 26 -13 26 -8 0
-22 19 -31 43 -10 23 -24 57 -32 75 -20 48 -18 70 9 75 41 8 45 7 61 -17z"/>
<path d="M3641 8036 c2 -2 83 -7 179 -10 96 -4 226 -11 288 -17 68 -6 207 -8
350 -4 130 4 305 8 389 9 83 0 155 5 160 10 4 4 -91 6 -217 2 -339 -9 -533 -8
-770 3 -224 11 -386 14 -379 7z"/>
<path d="M6676 6995 c2 -341 5 -631 8 -645 10 -48 15 -119 17 -259 2 -78 6
-144 11 -147 4 -3 6 46 3 108 -21 437 -29 671 -35 1088 -7 474 -7 474 -4 -145z"/>
<path d="M489 6939 c-9 -5 -3 -10 17 -14 16 -4 54 -13 84 -22 30 -8 78 -21
105 -29 161 -44 275 -64 540 -93 99 -11 212 -25 250 -31 39 -6 93 -12 120 -15
60 -5 196 -23 281 -36 65 -10 100 -12 93 -5 -7 7 -276 46 -384 57 -55 5 -120
14 -145 19 -25 6 -86 15 -135 20 -179 18 -202 21 -300 36 -95 15 -214 42 -422
97 -50 13 -97 20 -104 16z"/>
<path d="M3644 6503 c4 -4 44 -15 89 -24 45 -9 107 -22 137 -28 30 -7 105 -18
165 -26 161 -21 224 -32 345 -60 36 -8 77 -14 93 -15 15 0 27 -4 27 -10 0 -5
16 -10 35 -10 19 0 43 -4 53 -9 9 -5 91 -21 182 -35 254 -40 280 -43 280 -37
0 4 -91 22 -202 40 -112 18 -228 39 -258 46 -30 8 -98 23 -150 35 -52 11 -113
25 -135 31 -22 5 -71 14 -110 19 -113 16 -311 47 -435 69 -132 24 -126 23
-116 14z"/>
<path d="M1220 5627 c-9 -10 -240 -19 -697 -28 -42 -1 -73 -6 -73 -12 0 -6 45
-8 133 -3 288 14 822 18 882 7 33 -6 148 -13 255 -16 107 -2 281 -8 385 -12
105 -4 233 -7 285 -6 221 2 1036 23 1290 34 246 11 603 8 760 -6 47 -4 51 -3
30 6 -38 17 -698 24 -996 10 -417 -19 -466 -21 -839 -25 -330 -5 -750 4 -935
19 -41 3 -136 10 -210 15 -74 5 -164 12 -200 16 -36 3 -67 4 -70 1z"/>
<path d="M6126 5549 c11 -4 149 -8 308 -8 159 -1 293 -4 299 -8 6 -3 6 -29 2
-67 -10 -81 -14 -365 -6 -371 4 -2 8 44 10 103 3 117 16 320 22 340 3 10 -66
13 -325 15 -181 2 -320 0 -310 -4z"/>
<path d="M3960 5213 c-24 -8 -81 -45 -77 -49 2 -2 22 5 45 16 30 15 62 20 121
20 79 0 80 0 106 -35 35 -45 44 -108 20 -135 -10 -11 -33 -22 -51 -26 -35 -6
-47 -22 -34 -44 6 -10 10 -9 16 3 5 8 37 26 70 40 70 28 57 34 130 -63 104
-140 111 -153 98 -179 -18 -34 -61 -55 -115 -56 -32 0 -54 -6 -69 -20 -19 -17
-35 -20 -107 -18 -46 0 -87 3 -89 6 -3 2 4 22 15 43 20 40 24 65 22 143 -1 52
-13 47 -17 -7 -4 -80 -44 -187 -67 -179 -7 2 -11 13 -9 23 12 69 13 82 3 88
-6 4 -11 20 -11 35 0 45 -21 93 -57 134 -18 20 -33 42 -33 49 0 20 -52 88 -66
88 -8 0 -14 7 -14 15 0 8 5 15 12 15 6 0 9 3 5 6 -3 3 -20 -4 -38 -17 -30 -21
-31 -23 -12 -30 16 -6 40 -49 28 -49 -12 0 -55 25 -55 32 0 14 -60 9 -66 -6
-3 -8 0 -24 6 -36 17 -31 4 -37 -23 -12 -30 29 -67 29 -67 1 0 -11 4 -28 9
-38 8 -15 12 -76 10 -156 0 -11 3 -35 6 -53 4 -23 3 -32 -4 -27 -6 3 -11 21
-11 40 0 19 -4 36 -10 40 -5 3 -7 12 -4 19 3 8 0 17 -7 21 -19 12 -6 -73 19
-120 12 -22 28 -55 37 -72 8 -18 33 -44 55 -58 52 -33 70 -32 31 1 -17 14 -31
30 -31 34 0 5 28 8 62 8 52 -1 64 2 80 22 14 17 21 20 32 11 11 -9 18 -6 34
14 11 14 24 39 27 55 4 17 11 32 16 35 8 6 11 -13 13 -86 1 -16 -8 -24 -34
-33 -40 -13 -51 -41 -21 -51 28 -8 26 -15 -8 -48 -35 -32 -32 -32 -61 -7 -23
20 -76 28 -65 10 3 -5 13 -10 22 -10 9 0 31 -10 51 -22 31 -19 35 -20 44 -5
11 21 70 77 81 77 11 0 9 -12 -12 -55 -10 -22 -26 -56 -34 -77 -9 -20 -33 -49
-54 -64 -21 -15 -48 -38 -61 -51 -39 -39 -48 -30 -62 57 -13 82 -30 116 -30
61 0 -28 -3 -31 -33 -31 -18 0 -52 -9 -75 -20 -47 -23 -62 -20 -62 14 0 13 -9
58 -20 102 -12 47 -18 92 -15 112 3 17 2 32 -3 32 -19 0 -23 -53 -8 -103 19
-68 36 -159 42 -227 l5 -55 -25 29 c-14 16 -32 50 -42 75 -14 38 -18 42 -25
26 -6 -16 -7 -14 -7 10 1 17 -7 59 -17 95 -21 77 -16 178 12 254 10 29 41 74
72 108 58 63 57 76 -1 28 -35 -29 -98 -139 -98 -171 0 -8 -5 -20 -11 -26 -15
-15 -4 -254 16 -343 11 -48 41 -102 84 -152 37 -42 40 -49 31 -74 l-11 -28
-30 37 c-36 43 -84 61 -142 52 -125 -21 -154 -89 -143 -330 8 -172 19 -245 55
-366 43 -140 63 -190 106 -258 60 -97 114 -114 190 -61 69 47 85 103 92 317
l6 173 32 0 c27 0 34 -6 49 -40 10 -23 31 -50 46 -62 36 -26 66 -95 80 -181 6
-37 15 -78 20 -92 6 -15 10 -37 10 -51 0 -17 8 -27 24 -34 13 -5 29 -17 35
-27 8 -14 21 -18 65 -17 67 2 110 25 101 55 -5 15 -2 19 18 19 22 0 67 39 67
59 0 5 -13 12 -30 15 -16 3 -43 9 -59 12 -16 3 -32 13 -36 22 -4 9 -9 69 -12
132 -3 67 -11 128 -19 147 -14 31 -18 53 -9 53 2 0 20 -8 39 -17 34 -16 37
-15 55 1 15 14 29 16 60 11 41 -7 41 -7 41 -51 0 -120 29 -227 105 -389 65
-139 156 -208 273 -207 85 1 103 25 132 177 14 72 -5 265 -44 465 -38 194 -54
249 -86 300 -6 8 -18 31 -29 50 -10 19 -31 46 -45 59 -14 14 -26 29 -26 34 0
9 12 8 93 -12 20 -5 37 -5 37 -1 0 7 -17 12 -100 26 -19 3 -52 15 -72 25 -21
11 -46 19 -56 19 -29 0 -38 17 -56 115 -51 274 -51 305 1 305 25 0 49 21 58
51 6 19 41 39 70 39 8 0 20 -12 27 -27 11 -22 20 -27 51 -29 24 0 47 6 62 18
13 10 30 18 38 18 9 0 18 13 22 31 7 31 -1 51 -13 34 -11 -16 -34 -17 -43 -3
-6 9 -9 5 -9 -12 0 -14 -7 -36 -15 -50 -14 -24 -14 -24 -15 -3 0 51 -26 73
-32 26 -5 -43 -28 -41 -28 3 0 23 -6 42 -17 50 -24 18 -47 18 -40 0 6 -16 -24
-27 -43 -16 -9 6 -6 11 10 20 l22 12 -24 26 c-14 15 -47 59 -74 97 -60 87
-119 149 -133 140 -7 -4 -11 7 -11 30 0 35 -11 63 -39 98 -10 11 -10 17 -3 18
74 6 141 -7 163 -34 51 -58 157 -222 182 -279 6 -15 17 -30 24 -32 15 -6 7 16
-24 66 -13 21 -23 41 -23 46 0 11 -96 149 -123 177 -11 11 -26 30 -34 42 -8
13 -29 25 -46 27 -50 8 -310 14 -327 9z m-97 -223 c6 -8 10 -15 8 -15 -3 0 1
-16 9 -35 32 -85 35 -121 15 -179 -9 -28 -21 -51 -26 -51 -6 0 -8 4 -5 9 4 5
3 16 0 25 -5 12 -10 13 -25 5 -11 -5 -17 -14 -14 -18 3 -5 -2 -22 -10 -37 -13
-26 -20 -29 -71 -30 -53 -1 -56 0 -78 35 -23 37 -49 131 -36 131 4 0 20 -11
36 -25 16 -14 32 -25 36 -25 15 0 18 20 6 42 -31 55 -58 74 -58 41 0 -37 -25
8 -26 47 -1 22 -5 51 -8 65 -8 32 1 32 38 0 33 -29 39 -30 54 -12 8 9 7 21 -3
41 -21 40 -19 47 13 30 15 -7 33 -14 40 -14 6 0 12 -4 12 -9 0 -5 11 -11 25
-13 19 -4 25 -1 25 13 0 10 -4 21 -10 24 -5 3 -10 12 -10 18 0 7 12 -1 26 -18
13 -16 30 -37 37 -45z m301 -395 c39 -16 45 -28 53 -106 l6 -57 -65 -7 c-54
-6 -70 -4 -93 11 -15 10 -48 23 -73 30 -45 11 -47 13 -44 45 4 47 38 97 70
102 39 7 107 -2 146 -18z m-446 -220 c10 -35 11 -50 3 -53 -16 -5 -13 -22 4
-22 10 0 15 -10 15 -27 0 -19 17 -48 51 -88 175 -208 183 -219 175 -250 -7
-27 3 -32 22 -13 9 9 13 7 18 -5 3 -9 14 -17 23 -17 28 0 59 -28 66 -61 9 -42
-8 -57 -25 -22 -8 16 -16 30 -17 32 -2 3 -15 -6 -29 -20 -24 -22 -26 -23 -24
-4 4 37 0 39 -25 15 -32 -30 -60 -18 -60 25 0 28 -40 85 -59 85 -10 0 -64 44
-136 109 -25 22 -50 41 -56 41 -7 0 -3 -26 12 -71 28 -85 39 -150 35 -204 -3
-47 -6 -51 -48 -60 -29 -6 -33 -4 -39 22 -17 78 -26 110 -35 135 -9 21 -6 39
11 84 11 32 29 71 38 86 11 19 13 31 6 36 -31 21 -60 82 -71 151 -3 19 -11 41
-19 48 -8 8 -14 24 -14 36 0 28 80 68 130 64 32 -2 35 -5 48 -52z m-318 -220
c7 -9 19 -14 25 -11 17 6 55 -65 50 -94 -17 -95 -51 -240 -57 -240 -11 0 -10
111 2 208 6 48 7 89 2 98 -10 17 -22 -102 -22 -211 0 -85 -18 -58 -30 46 -14
120 -31 192 -43 180 -7 -7 -7 -18 0 -33 7 -13 14 -54 18 -93 3 -38 10 -87 16
-109 18 -67 -2 -50 -32 29 -57 147 -60 157 -41 190 11 17 32 35 52 42 46 16
45 16 60 -2z m495 -336 c-4 -6 2 -13 14 -16 12 -3 21 -10 21 -15 0 -6 -7 -8
-15 -4 -9 3 -15 0 -15 -9 0 -20 19 -19 41 1 18 16 18 15 17 -20 -1 -34 -2 -35
-20 -20 -10 10 -18 14 -18 9 0 -4 -6 -3 -12 2 -25 19 -48 23 -48 8 0 -8 7 -15
16 -15 21 0 48 -28 49 -52 1 -14 -3 -18 -17 -15 -25 7 -23 -20 2 -28 11 -3 20
-13 20 -20 0 -9 -6 -12 -15 -9 -10 4 -15 0 -15 -16 0 -11 -4 -18 -10 -15 -13
8 -13 -11 0 -36 8 -15 7 -19 -4 -19 -7 0 -16 6 -19 13 -7 19 4 68 14 61 5 -3
9 2 9 12 0 11 -6 15 -19 11 -16 -4 -19 4 -25 62 -11 120 -9 129 22 134 15 2
28 5 30 6 2 0 0 -4 -3 -10z m-385 -214 c26 -19 53 -35 59 -35 15 0 17 -59 5
-123 -6 -27 -8 -26 -45 38 -21 37 -39 70 -39 74 0 4 -12 18 -26 32 -25 22 -24
19 12 -51 21 -41 40 -77 43 -80 13 -12 41 -83 41 -105 0 -32 -38 -118 -49
-111 -10 7 -42 144 -78 338 -6 33 2 58 18 58 6 0 33 -16 59 -35z m1095 -45
l44 0 10 -52 c6 -29 10 -69 9 -89 0 -20 3 -42 7 -49 23 -38 -15 -219 -53 -247
-26 -21 -99 -16 -115 7 -8 11 -17 17 -20 14 -17 -17 -83 86 -122 188 -17 45
-17 49 1 92 11 25 22 46 25 46 3 0 14 -33 23 -72 23 -99 74 -248 75 -221 1 29
-23 132 -52 221 -18 52 -21 72 -12 72 14 0 85 -102 141 -205 37 -68 56 -89 47
-55 -11 42 -109 212 -142 247 -13 13 -21 35 -21 55 0 32 0 32 16 10 8 -12 23
-22 33 -22 15 0 48 -19 131 -77 l25 -17 -25 28 c-14 15 -46 42 -72 58 -26 17
-46 34 -44 37 2 3 6 14 10 25 4 11 12 16 22 12 9 -3 35 -6 59 -6z m-1167 -82
c9 -62 33 -189 44 -238 2 -8 -4 -15 -13 -17 -11 -3 -27 17 -53 67 -38 75 -41
92 -26 149 5 20 12 53 15 74 9 57 22 44 33 -35z"/>
<path d="M522 4949 c4 -12 213 -74 363 -107 28 -6 115 -27 195 -46 80 -19 264
-60 410 -91 146 -31 310 -68 365 -81 115 -29 99 -26 319 -70 93 -19 175 -34
184 -34 36 0 -3 14 -90 32 -51 10 -124 25 -163 33 -38 8 -135 30 -215 49 -285
68 -317 75 -450 101 -74 14 -177 37 -227 51 -51 13 -112 29 -135 34 -185 41
-180 39 -368 88 -85 23 -163 44 -174 48 -14 5 -17 3 -14 -7z"/>
<path d="M6676 3780 l7 -110 -29 0 c-16 0 -46 5 -66 10 -21 6 -54 14 -73 19
-21 5 -35 5 -35 0 0 -5 9 -10 20 -10 23 -2 29 -3 50 -12 8 -3 40 -12 70 -20
55 -13 55 -13 61 -58 4 -24 10 -206 14 -404 4 -198 10 -378 15 -400 4 -23 6
51 4 170 -3 116 -6 319 -8 453 -2 134 -6 246 -10 249 -3 4 -6 55 -6 115 0 69
-4 108 -11 108 -7 0 -8 -35 -3 -110z"/>
<path d="M486 3082 c-3 -5 -3 -67 -1 -138 2 -71 4 -148 4 -172 l1 -42 38 5
c48 6 422 20 530 20 45 0 82 3 82 7 0 12 -146 19 -220 10 -41 -5 -142 -10
-224 -11 -82 -1 -153 -4 -158 -7 -26 -16 -33 20 -36 173 -2 87 -5 159 -7 161
-2 2 -5 -1 -9 -6z"/>
<path d="M473 2652 c-8 -5 -15 -118 -23 -372 -6 -201 -14 -384 -17 -407 -3
-25 -1 -43 5 -43 14 0 20 73 32 430 6 179 13 339 16 356 l4 31 138 -5 c149 -5
171 -11 262 -77 25 -18 81 -53 125 -77 222 -124 605 -361 711 -440 28 -21 54
-38 58 -38 4 0 12 -4 19 -10 46 -38 118 -90 124 -91 4 0 28 -16 53 -35 111
-84 189 -138 232 -160 77 -39 79 -27 3 18 -38 23 -104 67 -145 98 -41 31 -97
71 -125 90 -27 18 -90 60 -140 93 -49 33 -91 64 -93 69 -2 4 -8 8 -12 8 -5 0
-82 49 -172 108 -90 60 -208 135 -263 167 -55 32 -120 70 -145 85 -25 15 -100
60 -167 100 -68 40 -123 75 -123 79 0 7 110 9 797 11 293 1 537 -1 543 -5 24
-15 551 -2 536 13 -9 8 -2220 12 -2233 4z"/>
<path d="M5496 2371 c-3 -4 -52 -11 -108 -15 -56 -4 -105 -11 -108 -15 -3 -5
-31 -11 -62 -15 -32 -4 -60 -11 -63 -16 -3 -4 -23 -11 -45 -15 -22 -4 -40 -10
-40 -15 0 -4 -21 -13 -47 -20 -27 -6 -62 -22 -80 -36 -17 -13 -36 -24 -42 -24
-14 0 -142 -126 -139 -137 1 -4 -4 -19 -11 -32 -18 -33 -9 -150 13 -167 9 -6
16 -15 16 -20 0 -17 129 -132 155 -138 15 -4 43 -17 63 -30 20 -12 51 -27 67
-33 27 -9 31 -15 43 -79 26 -137 21 -126 56 -118 17 3 33 10 36 15 3 4 28 13
55 20 28 7 52 15 55 19 3 4 33 17 68 29 55 19 84 21 257 21 107 0 203 4 213
10 9 5 52 12 95 15 42 4 77 11 77 16 0 5 12 9 28 9 15 0 45 5 67 12 22 6 42
12 45 13 3 0 10 3 15 6 6 4 23 9 40 13 16 4 32 11 35 14 3 4 30 20 60 35 89
45 99 52 149 103 47 49 66 79 62 101 -1 6 3 14 9 18 15 9 12 101 -4 117 -7 8
-16 24 -20 36 -8 25 -75 102 -89 102 -5 0 -26 13 -46 28 -46 36 -133 78 -191
93 -25 6 -49 15 -55 19 -5 4 -32 11 -60 15 -27 4 -55 11 -60 16 -6 4 -51 11
-100 15 -50 3 -94 10 -100 14 -13 11 -303 11 -309 1z m423 -29 c3 -5 35 -12
70 -15 35 -4 69 -11 75 -16 6 -4 29 -12 51 -16 22 -4 45 -10 50 -15 6 -4 24
-10 40 -14 28 -7 95 -38 154 -71 55 -31 109 -87 136 -139 25 -50 27 -62 21
-118 -3 -35 -11 -64 -16 -66 -6 -2 -10 -10 -10 -17 0 -20 -104 -111 -158 -137
-26 -13 -49 -26 -52 -29 -3 -3 -23 -12 -45 -19 -22 -7 -44 -16 -50 -20 -5 -4
-26 -11 -45 -15 -19 -4 -39 -11 -45 -15 -5 -4 -39 -11 -75 -15 -36 -4 -71 -12
-78 -18 -9 -7 -107 -12 -263 -15 -137 -3 -249 -8 -249 -12 0 -4 -19 -10 -42
-14 -24 -4 -52 -13 -64 -21 -12 -7 -37 -17 -58 -20 -20 -4 -36 -11 -36 -16 0
-4 -16 -11 -35 -15 -19 -3 -35 -10 -35 -16 0 -5 -4 -6 -10 -3 -5 3 -10 17 -10
31 0 13 -4 24 -8 24 -4 0 -6 16 -4 35 3 21 0 35 -7 35 -17 0 -13 31 7 46 16
12 15 13 -5 14 -12 0 -25 5 -28 10 -3 6 -13 10 -21 10 -18 0 -128 52 -132 63
-2 4 -8 7 -14 7 -9 0 -81 52 -103 75 -24 25 -55 75 -55 90 0 8 -4 15 -10 15
-15 0 -11 93 5 114 8 11 15 28 15 38 0 10 5 18 12 18 6 0 9 3 5 6 -6 6 68 74
112 102 14 9 28 19 31 22 7 7 63 34 75 36 6 0 23 6 38 12 16 7 35 12 43 12 8
0 14 4 14 9 0 6 21 13 48 17 26 3 52 10 58 15 6 5 43 12 82 15 40 4 72 11 72
15 0 5 25 8 55 8 31 -1 59 2 63 6 10 11 424 -1 431 -13z"/>
<path d="M3230 2033 c-25 -54 -48 -130 -55 -181 -4 -29 -11 -54 -16 -58 -5 -3
-9 -1 -9 4 0 5 -16 17 -36 27 -32 15 -37 15 -59 1 -16 -11 -31 -13 -51 -6
-198 60 -204 61 -204 21 0 -40 32 -61 95 -61 27 0 58 -7 69 -15 11 -8 41 -14
73 -14 63 1 69 -2 54 -29 -6 -12 -11 -32 -11 -46 0 -25 -2 -26 -42 -20 -24 4
-48 11 -54 16 -13 9 -51 13 -254 24 -117 6 -137 10 -149 26 -7 11 -43 33 -79
50 -79 37 -131 35 -186 -7 -20 -15 -36 -31 -36 -36 0 -4 18 -18 40 -30 22 -13
40 -25 40 -28 0 -9 -170 -44 -210 -44 -19 1 -76 2 -125 2 -183 3 -437 -65
-516 -139 -99 -92 -45 -220 109 -256 101 -24 191 -14 407 45 291 80 366 136
335 250 -6 22 -22 49 -38 61 -26 21 -26 22 -8 36 29 20 40 18 59 -15 11 -19
17 -50 17 -89 0 -33 3 -67 6 -76 7 -19 30 -21 37 -3 3 8 11 4 22 -11 14 -20
24 -23 71 -20 52 3 82 -14 37 -20 -43 -6 -71 -80 -41 -110 31 -31 98 1 98 48
0 16 -5 32 -10 35 -8 5 -7 12 2 22 10 12 9 18 -7 29 -18 13 -17 15 9 37 19 17
54 28 121 40 52 9 134 29 182 43 49 15 102 29 118 32 17 2 36 9 43 15 10 8 19
3 37 -19 20 -24 24 -41 25 -95 0 -36 -3 -68 -6 -71 -5 -6 -37 7 -108 42 -31
16 -41 18 -48 8 -12 -21 -9 -72 6 -93 13 -19 15 -19 33 -3 18 17 22 16 75 -9
l55 -26 6 -61 c7 -74 20 -120 47 -165 l21 -33 23 21 c16 15 28 47 41 107 10
46 20 86 24 88 3 2 38 -10 76 -26 100 -43 334 -128 351 -128 20 0 18 34 -3 53
-16 14 -96 43 -258 93 -33 10 -76 27 -95 36 -19 10 -42 18 -52 18 -23 0 -23
24 -3 156 8 54 15 121 15 148 l0 48 35 -6 c46 -9 75 0 75 24 0 22 -39 62 -52
54 -4 -3 -17 -3 -27 1 -16 5 -19 19 -23 118 -5 129 -20 169 -69 186 -18 6 -33
11 -34 11 -1 0 -8 -12 -15 -27z m-532 -384 c148 -1 312 -16 312 -31 0 -13 -36
-27 -157 -62 -166 -48 -190 -52 -211 -33 -9 9 -30 19 -45 23 -16 3 -31 13 -34
20 -3 8 -15 14 -27 14 -34 0 -53 17 -38 32 6 6 12 20 12 31 0 14 5 17 20 12
11 -4 86 -6 168 -6z m-588 -47 c0 -4 -17 -14 -37 -21 -21 -7 -57 -21 -80 -32
-24 -10 -54 -19 -67 -19 -27 0 -81 -22 -111 -45 -47 -37 51 -81 124 -55 43 16
80 41 81 56 0 5 19 18 43 28 23 10 68 30 99 43 54 24 59 25 82 10 32 -21 88
-105 84 -126 -7 -35 -201 -115 -352 -145 -100 -20 -208 -19 -318 2 -100 20
-128 38 -128 83 0 34 7 42 79 89 65 43 233 94 431 129 64 12 70 12 70 3z"/>
<path d="M425 1705 c-10 -149 0 -800 13 -875 6 -30 13 -138 16 -240 4 -102 11
-216 16 -255 5 -38 9 -130 10 -202 0 -73 3 -133 8 -133 9 0 8 392 -1 406 -3 6
-11 87 -16 180 -6 93 -13 214 -17 269 -3 55 -8 111 -11 125 -9 48 -15 686 -6
735 5 28 6 64 3 80 -4 19 -10 -15 -15 -90z"/>
<path d="M4750 1459 c-174 -32 -193 -38 -226 -71 -23 -22 -38 -28 -52 -23 -12
3 -34 0 -49 -8 -15 -8 -50 -17 -76 -20 -49 -6 -154 -58 -257 -127 -30 -21 -94
-61 -142 -90 -93 -56 -95 -56 -178 -25 -67 25 -163 15 -279 -30 -80 -31 -100
-35 -146 -29 -33 3 -67 1 -88 -7 -32 -11 -37 -10 -103 34 -38 26 -89 61 -114
79 -48 35 -249 158 -257 158 -11 0 97 -79 155 -113 56 -33 269 -181 282 -196
3 -3 23 -14 45 -25 22 -10 60 -32 85 -49 25 -16 151 -102 280 -189 360 -243
495 -338 547 -383 17 -16 51 -42 76 -59 24 -17 80 -58 123 -92 43 -33 111 -84
149 -113 39 -29 78 -59 88 -67 9 -8 23 -14 29 -14 24 0 -8 26 -364 292 -100
76 -187 141 -193 146 -10 8 -104 73 -308 215 -103 71 -247 167 -404 271 -67
44 -76 56 -40 56 83 -2 223 -51 357 -126 14 -7 33 -14 42 -14 9 0 44 -7 78
-16 36 -9 74 -13 93 -9 37 8 163 70 255 126 35 21 68 37 72 34 4 -3 10 -17 12
-32 3 -16 9 -36 13 -45 5 -13 2 -18 -10 -18 -27 0 -80 -37 -92 -63 -6 -14 -40
-43 -75 -65 -75 -49 -108 -80 -108 -105 0 -26 25 -31 78 -14 64 20 186 46 247
51 58 6 209 44 314 81 86 29 111 31 111 9 0 -9 25 -40 55 -70 46 -45 62 -54
91 -54 54 0 127 36 149 72 23 40 69 88 83 88 6 0 19 11 30 25 22 28 37 32 45
12 7 -17 74 -50 87 -42 5 3 6 13 3 22 -5 13 -2 15 13 9 33 -13 69 -17 80 -9 6
5 14 25 17 46 6 38 6 38 -25 34 -35 -4 -49 -23 -24 -33 9 -3 13 -10 10 -15 -9
-15 -47 -10 -78 10 l-29 19 34 4 c26 2 34 8 34 23 1 11 8 31 17 44 22 31 10
61 -31 83 -18 9 -41 24 -52 34 -10 9 -22 14 -27 10 -9 -9 44 -56 63 -56 14 0
35 -29 35 -49 0 -6 -11 -11 -25 -11 -29 0 -31 -7 -9 -31 22 -25 10 -39 -31
-35 -31 2 -35 0 -29 -18 3 -12 12 -31 20 -43 18 -29 11 -29 -21 -1 -14 12 -25
29 -25 38 0 9 -14 30 -30 46 -59 56 -99 167 -66 180 9 3 16 10 16 15 0 16 -19
10 -40 -13 l-20 -22 0 28 c0 37 45 111 87 143 l34 26 25 -29 c17 -20 23 -37
20 -56 -3 -16 1 -31 10 -39 14 -12 14 -14 -2 -26 -16 -12 -16 -13 9 -13 18 0
35 -11 54 -35 15 -19 33 -35 40 -35 21 0 1 42 -38 79 -22 20 -39 44 -39 54 0
16 4 16 43 -5 71 -38 137 -98 137 -123 0 -32 10 -55 24 -55 6 0 19 -7 29 -14
16 -12 16 -16 3 -28 -8 -8 -16 -26 -18 -39 -2 -14 -14 -29 -30 -37 -32 -15
-37 -32 -10 -32 26 0 62 29 62 50 0 10 5 22 10 25 18 11 11 50 -15 85 -14 19
-25 37 -25 42 0 4 -8 26 -17 48 -15 34 -29 45 -100 82 -55 28 -82 47 -78 56 3
8 -7 18 -24 25 -15 7 -50 39 -78 72 -54 64 -103 113 -103 102 0 -4 11 -20 24
-35 60 -67 76 -88 76 -98 0 -6 -17 -22 -37 -35 -61 -39 -115 -165 -80 -186 23
-13 38 -72 26 -96 -9 -16 -8 -23 7 -34 10 -7 23 -13 29 -13 16 0 45 -33 45
-51 0 -16 -57 -79 -71 -79 -5 0 -29 16 -55 35 -28 22 -57 35 -75 35 -38 0 -29
-16 13 -24 18 -4 46 -18 62 -31 l30 -24 -20 -36 c-25 -48 -50 -68 -106 -89
-47 -17 -49 -17 -82 4 -38 23 -95 84 -98 103 0 7 -2 17 -3 22 -1 6 -16 42 -34
80 -35 75 -56 215 -32 215 6 0 11 -6 11 -12 0 -8 7 -5 15 6 8 11 15 14 15 7 0
-7 5 -9 11 -5 6 3 9 14 6 24 -6 23 9 48 21 35 16 -17 22 -73 9 -78 -18 -6 13
-64 91 -173 65 -90 105 -129 63 -60 -12 18 -21 36 -21 40 0 4 20 15 44 25 58
26 91 77 83 133 -10 76 -81 117 -214 122 -26 1 -48 7 -51 14 -5 17 -32 15 -32
-3 0 -10 -10 -15 -30 -15 -24 0 -30 4 -30 23 0 27 34 85 55 93 8 4 12 10 9 15
-11 19 -73 -45 -83 -87 -6 -24 -16 -46 -21 -49 -6 -4 -8 -11 -4 -16 3 -5 -4
-38 -16 -73 l-21 -63 25 -77 c24 -71 25 -106 5 -106 -12 0 -29 35 -29 58 0 11
-7 25 -15 32 -12 10 -15 10 -15 -4 0 -23 -17 -20 -23 4 -3 11 -12 20 -20 20
-10 0 -21 20 -32 58 -15 49 -16 70 -6 150 15 122 46 216 82 246 19 17 51 28
101 36 40 6 81 14 90 16 19 6 63 -47 73 -88 7 -28 0 -36 -39 -42 -8 -1 -18 -5
-22 -8 -3 -4 24 -5 61 -3 67 5 104 15 52 15 -22 0 -27 5 -27 24 0 13 -11 40
-25 60 -31 45 -31 54 -2 60 12 3 42 10 67 15 91 18 -20 10 -130 -10z m-438
-201 c-7 -7 -17 -14 -22 -14 -6 -1 -15 -2 -21 -3 -6 0 -9 -8 -6 -16 4 -8 -4
-22 -18 -34 -31 -23 -31 -28 -2 -27 18 1 21 -4 19 -23 -3 -20 0 -23 17 -18 14
3 21 0 21 -9 0 -8 9 -14 21 -14 14 0 19 -5 16 -13 -4 -10 2 -13 19 -9 20 4 24
0 24 -22 0 -36 -23 -79 -56 -105 -15 -12 -25 -24 -22 -26 3 -3 11 1 18 10 7 8
18 15 24 15 12 -1 -31 -40 -44 -40 -4 0 -10 7 -14 15 -6 17 3 47 13 41 4 -3
13 -1 21 5 12 7 11 9 -6 9 -11 0 -25 -5 -32 -12 -9 -9 -12 -8 -12 4 0 9 10 24
23 33 20 14 22 14 25 0 3 -14 22 -22 22 -9 0 33 -60 65 -85 44 -15 -13 -45 -3
-45 15 0 7 6 18 14 24 11 9 15 9 18 -2 2 -11 9 -12 26 -6 25 9 30 36 7 36 -8
0 -15 -7 -15 -14 0 -8 -5 -11 -10 -8 -8 5 -7 11 1 21 6 8 10 14 8 15 -37 7
-40 7 -29 -5 7 -10 6 -16 -3 -25 -11 -8 -19 -5 -38 15 -20 21 -21 27 -9 34 12
8 10 10 -7 10 -16 0 -23 6 -23 20 0 11 -4 20 -10 20 -5 0 -10 5 -10 11 0 5 5
7 12 3 6 -4 17 1 24 11 7 10 20 15 29 12 8 -4 15 -3 15 2 0 4 21 15 48 24 58
20 69 20 54 5z m-232 -145 c0 -12 3 -13 14 -4 11 9 16 9 22 0 4 -8 3 -9 -4 -5
-7 4 -12 1 -12 -9 0 -9 5 -13 10 -10 6 3 10 -1 10 -9 0 -9 -6 -16 -14 -16 -20
0 -29 -17 -15 -26 8 -5 9 -3 4 6 -5 9 -4 11 4 6 14 -9 5 -26 -15 -26 -15 0
-16 33 -1 57 8 13 -31 45 -44 37 -10 -6 -7 -33 4 -51 5 -8 3 -13 -7 -13 -8 0
-18 5 -22 12 -4 6 -3 8 3 5 5 -3 10 1 10 9 0 12 -3 13 -13 2 -13 -13 -17 -31
-15 -59 1 -12 10 -16 34 -15 21 0 32 -4 32 -13 0 -8 10 -16 23 -17 12 -2 22 1
22 7 0 5 -4 8 -9 4 -5 -3 -12 -1 -16 4 -3 6 9 18 26 27 26 13 36 14 55 3 13
-7 24 -15 24 -19 0 -14 -96 -49 -119 -43 -17 4 -22 3 -17 -5 4 -7 15 -12 24
-13 22 0 -177 -98 -201 -99 -10 0 -40 7 -66 16 -40 13 -48 19 -44 35 3 11 1
19 -5 17 -5 -2 -12 2 -14 7 -1 6 9 10 24 11 18 1 25 -3 20 -10 -10 -17 -11
-35 -1 -42 5 -3 13 3 17 13 4 10 13 19 20 21 8 1 11 -2 7 -8 -3 -5 2 -10 12
-10 17 -1 17 -2 -1 -15 -19 -15 -19 -15 3 -15 12 0 19 4 16 10 -4 6 5 10 20
10 15 0 24 -4 20 -10 -3 -5 -3 -10 2 -10 10 0 40 19 33 21 -3 0 -18 3 -35 5
-45 7 -57 13 -50 24 3 5 2 10 -3 10 -6 0 -13 8 -16 17 -6 14 -3 14 16 -3 13
-10 25 -21 28 -24 10 -10 31 -10 26 -1 -4 5 -2 12 3 16 10 5 7 36 -4 55 -9 15
-25 12 -25 -5 0 -8 5 -15 10 -15 6 0 10 -4 10 -8 0 -5 -7 -9 -15 -9 -8 0 -15
6 -15 13 0 7 -8 11 -20 9 -11 -2 -19 1 -17 8 1 7 -8 11 -23 10 -15 -1 -18 0
-7 3 9 3 15 10 12 15 -4 5 -1 9 5 9 6 0 13 -7 17 -15 5 -14 7 -14 24 1 10 9
15 22 12 30 -4 10 3 14 22 14 17 0 25 5 23 12 -3 7 16 23 41 36 25 14 53 30
61 37 8 7 21 10 29 7 10 -3 11 0 5 9 -7 12 -5 12 9 0 9 -7 17 -20 17 -28z"/>
</g>
</svg>
