<?xml version="1.0" standalone="no"?>
<!DOCTYPE svg PUBLIC "-//W3C//DTD SVG 20010904//EN"
 "http://www.w3.org/TR/2001/REC-SVG-20010904/DTD/svg10.dtd">
<svg version="1.0" xmlns="http://www.w3.org/2000/svg"
 width="552.000000pt" height="529.000000pt" viewBox="0 0 552.000000 529.000000"
 preserveAspectRatio="xMidYMid meet">
<metadata>
Created by potrace 1.16, written by Peter Selinger 2001-2019
</metadata>
<g transform="translate(0.000000,529.000000) scale(0.100000,-0.100000)"
fill="#000000" stroke="none">
<path d="M256 5094 c-5 -13 26 -222 40 -271 6 -22 21 -14 34 17 18 44 27 45
46 5 9 -19 22 -35 28 -35 14 0 72 273 61 289 -3 6 -15 11 -25 11 -15 0 -20
-10 -24 -55 -3 -30 -9 -81 -12 -112 l-6 -57 -20 27 c-25 34 -33 34 -53 0 -14
-27 -15 -23 -13 72 1 56 -2 106 -6 113 -10 17 -43 15 -50 -4z"/>
<path d="M1766 5095 c-14 -15 -16 -36 -14 -144 l3 -126 29 -3 c29 -4 29 -3 23
40 -3 24 -9 51 -12 59 -4 11 6 21 33 33 59 27 82 95 45 129 -29 25 -87 32
-107 12z"/>
<path d="M1942 5097 c-6 -7 -12 -70 -14 -140 -3 -127 -3 -128 20 -134 34 -8
42 6 32 52 -14 60 -13 63 26 81 40 19 69 72 58 106 -11 36 -100 62 -122 35z"/>
<path d="M527 5093 c-3 -4 -8 -68 -12 -140 -7 -129 -7 -133 12 -133 18 0 21 9
27 90 l8 90 38 0 39 0 3 -87 c2 -70 6 -88 18 -88 13 0 15 21 15 130 0 116 -2
130 -17 133 -14 3 -18 -3 -18 -22 0 -24 -4 -26 -39 -26 -36 0 -40 3 -43 27 -3
26 -22 42 -31 26z"/>
<path d="M1318 5078 c0 -12 -2 -34 -3 -48 -1 -14 -4 -65 -6 -115 -4 -85 -3
-90 16 -90 18 0 20 8 23 65 4 105 7 112 49 108 l35 -3 2 -85 c1 -68 4 -85 16
-85 12 0 15 23 18 133 2 113 0 132 -13 132 -9 0 -15 -9 -15 -26 0 -23 -3 -25
-42 -22 -35 2 -43 7 -48 27 -7 33 -30 39 -32 9z"/>
<path d="M1580 5008 c-18 -51 -41 -110 -52 -131 -22 -45 -17 -57 23 -57 27 0
29 3 29 36 0 51 15 74 50 74 28 0 29 -2 32 -52 2 -42 7 -54 22 -56 35 -7 35
14 0 123 -46 140 -52 155 -62 155 -5 0 -24 -42 -42 -92z"/>
<path d="M2123 5090 c-21 -9 -22 -13 -19 -129 1 -66 6 -124 10 -128 8 -8 155
-5 168 3 5 3 8 15 8 26 0 18 -4 20 -37 14 -21 -3 -57 -9 -80 -13 l-43 -6 0 42
c0 35 4 43 25 51 31 12 32 28 3 32 -19 2 -24 10 -26 42 l-3 39 76 -6 c75 -7
76 -6 73 16 -3 20 -9 22 -68 24 -36 1 -75 -2 -87 -7z"/>
<path d="M2337 5090 c-3 -8 -8 -70 -12 -136 -6 -127 -2 -143 36 -123 13 7 15
17 8 56 -11 66 -11 129 0 118 5 -6 19 -45 32 -88 22 -78 42 -103 60 -76 5 8 8
68 7 134 -3 112 -4 120 -23 120 -12 0 -19 -6 -17 -14 9 -44 14 -171 6 -171 -5
0 -19 33 -32 74 -24 80 -57 133 -65 106z"/>
<path d="M2529 5071 c-16 -16 -29 -38 -29 -49 0 -26 37 -72 59 -72 31 0 62
-30 59 -57 -4 -37 -32 -52 -56 -30 -28 26 -52 22 -52 -8 0 -18 7 -28 26 -35
36 -14 39 -13 79 21 24 22 35 40 35 59 0 31 -15 46 -74 75 -47 23 -55 45 -30
82 l17 27 24 -28 c19 -23 26 -26 38 -16 22 18 19 28 -15 45 -40 21 -47 19 -81
-14z"/>
<path d="M812 5069 c-5 -13 -19 -53 -31 -88 -12 -35 -31 -81 -41 -102 -26 -51
-25 -67 6 -75 33 -9 42 2 46 55 3 39 6 46 31 52 34 9 47 -11 40 -60 -4 -21 -1
-36 7 -41 13 -8 50 -2 50 9 0 15 -82 257 -90 265 -6 6 -13 0 -18 -15z"/>
<path d="M3698 5082 l-78 -3 0 -130 c0 -107 3 -131 15 -135 9 -4 49 -3 90 1
71 6 75 8 75 31 0 26 -8 28 -60 15 -97 -25 -90 -27 -90 29 0 43 3 50 20 50 11
0 20 7 20 15 0 8 -9 15 -20 15 -17 0 -20 7 -20 41 l0 41 75 -7 c70 -6 75 -6
75 13 0 25 -9 28 -102 24z"/>
<path d="M2937 5064 c-3 -11 -7 -73 -9 -139 -3 -114 -2 -120 17 -120 19 0 20
7 20 92 0 50 3 89 7 87 4 -2 14 -30 23 -62 28 -95 42 -123 60 -116 13 5 15 25
13 138 -3 115 -5 131 -20 134 -16 3 -17 -6 -12 -95 6 -108 0 -109 -36 -3 -12
36 -30 73 -40 84 -17 18 -18 18 -23 0z"/>
<path d="M3294 5055 c-19 -29 -30 -136 -20 -189 8 -42 44 -71 76 -61 33 10 50
64 50 156 0 71 -3 84 -22 100 -30 27 -64 24 -84 -6z"/>
<path d="M3548 5074 c-4 -3 -4 -47 -1 -97 6 -107 -4 -107 -36 -1 -20 70 -41
101 -59 90 -5 -3 -10 -64 -11 -136 -2 -124 -1 -130 18 -130 29 0 30 7 20 94
-4 43 -6 83 -2 89 3 5 20 -33 37 -84 21 -63 36 -94 46 -94 13 0 15 22 15 134
0 125 -6 156 -27 135z"/>
<path d="M4116 5040 c-18 -45 -30 -50 -47 -18 -19 35 -38 50 -54 44 -12 -4
-15 -30 -15 -136 l0 -131 28 3 c22 2 27 7 24 28 -15 131 -19 176 -15 180 3 3
14 -7 25 -23 25 -35 34 -34 57 4 10 17 21 27 23 22 2 -4 1 -51 -2 -103 -6 -71
-4 -98 5 -109 27 -29 35 -1 35 124 0 68 -3 130 -6 139 -12 30 -41 18 -58 -24z"/>
<path d="M4506 5071 c-13 -21 -18 -158 -7 -199 21 -75 88 -94 127 -35 12 19
19 54 22 105 6 101 -1 128 -33 128 -22 0 -25 -3 -19 -24 20 -83 0 -216 -32
-216 -30 0 -38 45 -23 138 7 48 14 92 14 97 0 13 -41 19 -49 6z"/>
<path d="M4917 5073 c-7 -11 -7 -223 -1 -245 10 -33 168 -21 177 13 7 25 -8
28 -78 13 -32 -7 -63 -10 -67 -8 -4 3 -8 23 -8 44 0 32 4 39 23 42 12 2 22 10
22 18 0 8 -10 16 -22 18 -20 3 -23 10 -23 43 0 34 3 40 18 35 9 -2 42 -6 72
-8 49 -3 55 -1 55 17 0 18 -8 20 -82 23 -45 1 -84 -1 -86 -5z"/>
<path d="M4317 5063 c-4 -3 -7 -64 -7 -135 0 -128 0 -129 23 -126 20 3 22 8
19 58 -1 30 -5 73 -8 95 -7 56 10 28 37 -60 12 -38 28 -77 35 -85 27 -28 35 3
32 131 -3 110 -5 124 -21 127 -16 3 -17 -3 -11 -87 7 -98 -5 -123 -23 -48 -15
57 -35 109 -50 125 -13 14 -17 15 -26 5z"/>
<path d="M1402 4403 c-45 -3 -74 -8 -77 -16 -2 -7 -5 -78 -7 -159 l-3 -148 37
0 37 0 3 58 3 57 35 0 c22 0 35 5 34 13 -1 6 -2 18 -2 26 -1 8 -14 16 -29 18
-24 3 -28 8 -31 40 -3 33 -1 37 20 36 13 -1 40 -1 61 0 36 2 37 3 37 42 0 35
-3 40 -22 38 -13 -1 -56 -4 -96 -5z"/>
<path d="M1579 4407 c0 -1 -2 -29 -5 -62 -2 -33 -9 -104 -15 -158 -7 -56 -8
-102 -3 -107 5 -5 45 -10 89 -12 l80 -3 3 33 3 32 -50 0 c-42 0 -51 3 -51 18
-1 9 -2 71 -3 136 -2 115 -3 119 -24 122 -13 2 -23 3 -24 1z"/>
<path d="M1789 4398 c-6 -25 -5 -329 2 -333 5 -3 20 0 35 8 l26 14 -1 134 c-2
174 -2 173 -34 177 -15 2 -27 2 -28 0z"/>
<path d="M782 4383 c-19 -4 -22 -9 -18 -31 14 -66 26 -172 26 -234 l0 -68 85
0 85 0 -2 30 c-1 17 -7 30 -13 31 -5 0 -28 1 -50 2 -36 2 -40 5 -43 30 -3 21
1 27 16 27 26 0 30 6 24 36 -3 15 -14 29 -28 34 -19 8 -24 17 -24 43 0 34 1
35 50 39 60 6 63 8 54 42 -6 25 -9 26 -73 25 -36 -1 -76 -4 -89 -6z"/>
<path d="M996 4381 c-4 -5 -2 -21 4 -35 8 -21 16 -26 45 -26 l36 0 -2 -113
c-1 -62 0 -118 3 -123 4 -5 21 -9 39 -9 l32 0 -1 80 c-1 44 2 98 6 120 7 39 8
40 57 45 48 5 50 6 50 35 l0 30 -132 3 c-75 1 -134 -1 -137 -7z"/>
<path d="M1913 4378 c3 -7 25 -59 48 -115 l42 -102 -37 -56 c-20 -31 -34 -60
-32 -64 3 -5 18 -11 33 -14 29 -5 52 14 53 44 0 9 7 22 15 29 12 10 19 4 42
-33 25 -42 65 -68 81 -53 6 7 -25 81 -50 118 -24 36 -24 41 22 143 21 50 35
94 31 98 -5 5 -21 7 -37 5 -29 -3 -31 -6 -77 -123 -7 -17 -17 0 -41 66 -22 62
-24 64 -61 67 -28 3 -36 0 -32 -10z"/>
<path d="M648 4373 c-27 -4 -27 -4 -21 -74 3 -38 2 -69 -3 -69 -5 0 -20 24
-33 53 -31 69 -48 87 -84 87 l-30 0 7 -62 c3 -35 9 -103 12 -153 7 -117 6
-114 46 -106 l33 7 -3 57 c-5 76 13 74 35 -3 l16 -60 50 0 50 0 -7 138 c-10
208 -6 195 -68 185z"/>
<path d="M862 3681 c-29 -26 -31 -33 -27 -77 2 -27 7 -82 9 -121 7 -110 38
-182 111 -261 56 -61 61 -70 58 -103 -8 -59 5 -63 198 -62 93 1 174 5 179 8 6
3 10 21 10 40 0 26 7 38 30 55 45 32 115 129 135 185 9 28 19 92 21 145 3 52
7 111 10 132 5 31 2 39 -20 53 -29 19 -56 14 -56 -11 0 -12 -6 -15 -24 -10
-14 3 -28 1 -34 -7 -9 -10 -3 -12 26 -9 20 3 42 8 48 13 18 15 45 -1 42 -25
-2 -15 -20 -28 -63 -46 -57 -24 -69 -25 -255 -24 -169 0 -206 3 -280 23 -47
12 -95 29 -108 37 -21 14 -21 16 -6 40 12 17 22 23 35 19 22 -7 25 7 5 24 -10
9 -20 5 -44 -18z m69 -116 c63 -23 238 -45 348 -45 83 0 125 6 260 37 l24 6
-6 -94 c-4 -74 -11 -107 -32 -152 -36 -76 -124 -163 -178 -178 -61 -16 -223
-7 -270 16 -52 25 -142 116 -172 175 -24 48 -52 207 -41 235 7 19 13 19 67 0z"/>
<path d="M885 1977 c-56 -31 -77 -77 -72 -149 9 -100 54 -148 141 -148 53 0
74 16 78 60 2 27 7 35 23 35 16 0 20 7 20 30 0 29 -1 30 -60 36 -74 7 -85 3
-85 -27 0 -17 6 -24 20 -24 14 0 20 -7 20 -21 0 -16 -4 -19 -22 -13 -35 10
-47 23 -58 62 -8 29 -6 44 8 72 14 30 23 35 55 38 26 2 45 -2 58 -14 18 -16
20 -16 44 6 33 31 32 45 -9 64 -48 23 -113 20 -161 -7z"/>
<path d="M1140 1830 c-31 -31 -28 -104 6 -135 31 -29 53 -31 93 -10 36 18 46
55 27 99 -26 62 -87 85 -126 46z"/>
<path d="M1758 1837 c-24 -18 -41 -89 -28 -121 17 -45 102 -50 108 -7 3 21 1
23 -22 17 -13 -3 -28 -2 -31 4 -6 10 1 14 48 24 20 5 27 12 27 29 0 55 -59 86
-102 54z"/>
<path d="M1502 1826 c-41 -22 -54 -51 -42 -95 11 -42 28 -54 66 -45 23 6 24 4
24 -45 0 -61 -22 -101 -55 -101 -12 0 -29 9 -36 21 -12 18 -16 18 -33 6 -38
-28 4 -87 62 -87 10 0 33 11 53 24 31 21 38 33 47 83 34 170 41 253 21 253 -6
0 -19 -5 -30 -10 -12 -7 -25 -7 -37 -1 -11 6 -25 5 -40 -3z"/>
<path d="M4549 1527 c-113 -42 -161 -141 -129 -259 16 -57 68 -102 177 -153
119 -57 133 -69 133 -111 0 -45 -38 -74 -97 -74 -53 0 -93 19 -125 60 l-23 30
-54 -33 c-30 -18 -56 -38 -58 -44 -7 -19 62 -87 113 -113 57 -28 176 -38 240
-21 98 26 154 99 154 201 0 110 -55 169 -220 239 -74 31 -100 57 -100 97 0 67
75 85 135 33 l35 -32 56 37 56 37 -25 32 c-53 71 -182 106 -268 74z"/>
<path d="M4139 1288 c-1 -134 -3 -252 -4 -263 -1 -11 -2 -28 -3 -37 -6 -57
-93 -78 -137 -33 -14 13 -25 29 -25 35 0 17 -21 11 -74 -22 -28 -17 -53 -33
-55 -35 -2 -1 9 -21 24 -43 18 -25 47 -49 81 -66 48 -24 63 -26 133 -22 99 6
140 29 175 100 l26 52 0 288 0 288 -70 0 -70 0 -1 -242z"/>
<path d="M480 1259 c0 -125 1 -129 23 -134 12 -3 391 -5 842 -3 l820 3 3 110
c2 61 0 120 -3 132 l-5 23 -840 -1 -840 -2 0 -128z m1671 106 c10 -7 13 -155
3 -201 l-6 -29 -822 -2 -823 -3 -7 62 c-3 33 -6 87 -6 119 l0 59 238 2 c377 5
1412 -1 1423 -7z"/>
</g>
</svg>
