<?xml version="1.0" standalone="no"?>
<!DOCTYPE svg PUBLIC "-//W3C//DTD SVG 20010904//EN"
 "http://www.w3.org/TR/2001/REC-SVG-20010904/DTD/svg10.dtd">
<svg version="1.0" xmlns="http://www.w3.org/2000/svg"
 width="750.000000pt" height="821.000000pt" viewBox="0 0 750.000000 821.000000"
 preserveAspectRatio="xMidYMid meet">
<metadata>
Created by potrace 1.16, written by Peter Selinger 2001-2019
</metadata>
<g transform="translate(0.000000,821.000000) scale(0.100000,-0.100000)"
fill="#000000" stroke="none">
<path d="M1170 8161 c-217 -99 -316 -165 -432 -288 -112 -120 -221 -304 -279
-472 -33 -96 -52 -220 -45 -299 7 -77 39 -194 62 -227 10 -14 12 -40 8 -101
-12 -153 34 -401 101 -540 54 -111 204 -290 294 -350 47 -31 45 -19 30 -205
l-12 -137 -51 -6 c-125 -16 -481 -127 -596 -186 -84 -43 -178 -196 -221 -360
-17 -65 -23 -123 -26 -246 l-5 -161 31 -13 c27 -11 34 -10 58 6 26 18 52 19
440 17 400 -2 413 -3 433 -23 25 -25 48 -25 74 -1 20 19 40 20 376 21 438 2
400 4 400 -19 0 -14 13 -23 45 -35 55 -18 74 -13 82 25 l6 29 1208 0 c665 0
1209 -3 1209 -7 0 -5 -23 -48 -50 -97 -28 -49 -50 -90 -50 -92 0 -1 -42 -81
-94 -176 -51 -95 -110 -204 -131 -243 -21 -38 -70 -131 -110 -205 -39 -74 -95
-179 -124 -232 -29 -53 -53 -110 -53 -126 -1 -18 -8 -32 -21 -38 -13 -5 -72
-106 -157 -264 -74 -140 -156 -293 -182 -340 -41 -76 -103 -192 -231 -430 -22
-41 -54 -102 -72 -135 -18 -33 -48 -89 -67 -125 -20 -36 -78 -144 -130 -240
-52 -96 -122 -227 -156 -290 -230 -437 -320 -595 -339 -598 -25 -4 -26 0 -53
200 l-21 156 45 64 c44 63 94 113 278 281 123 111 207 223 274 362 117 245
113 375 -20 560 -31 43 -56 86 -56 96 0 34 -38 62 -75 56 -19 -3 -41 0 -51 8
-33 22 -116 34 -254 34 -74 1 -169 5 -210 9 -116 14 -178 8 -282 -27 -112 -37
-233 -105 -378 -210 -234 -170 -331 -309 -349 -496 -16 -172 27 -323 140 -491
52 -77 94 -114 153 -134 l39 -12 -7 -92 c-4 -50 -12 -118 -19 -150 l-12 -59
-45 -4 c-90 -7 -144 -25 -327 -109 -165 -75 -281 -181 -340 -311 -44 -97 -63
-218 -70 -460 l-6 -223 54 0 c50 0 152 18 309 54 36 8 97 16 135 18 l70 3 3
-38 3 -37 70 0 c49 0 69 4 69 13 0 6 -7 75 -15 152 -8 77 -15 162 -15 188 0
60 19 139 37 152 11 8 11 17 2 45 -16 47 -36 61 -85 58 -31 -2 -40 -7 -36 -17
4 -11 1 -13 -12 -8 -14 6 -17 3 -12 -9 8 -20 -4 -41 -14 -24 -5 8 -9 7 -13 -4
-4 -9 -3 -15 1 -13 4 1 9 0 10 -3 6 -8 -10 -84 -20 -96 -10 -14 -6 -204 5
-204 4 0 7 -4 7 -10 0 -6 -35 -10 -85 -10 -59 0 -85 -4 -85 -12 0 -9 -3 -9
-12 0 -7 7 -21 12 -33 11 -20 0 -20 0 0 -9 18 -8 17 -9 -7 -9 -16 -1 -31 -1
-34 0 -4 0 -10 -4 -13 -10 -7 -10 -39 -18 -101 -24 -14 -2 -31 -6 -37 -10 -7
-5 -9 0 -6 13 3 11 10 20 17 20 6 0 4 5 -4 10 -10 6 -11 10 -2 10 7 0 12 14
11 38 l-2 37 -7 -35 -7 -35 -2 43 c0 23 3 42 7 42 5 0 7 33 4 74 -6 91 30 256
55 256 10 0 13 6 9 15 -7 19 14 55 32 55 7 0 10 5 7 10 -16 27 176 168 220
162 17 -2 18 -1 5 8 -12 10 -11 11 8 7 12 -3 20 -2 17 2 -6 10 29 27 82 41 23
6 43 15 45 20 2 6 27 14 56 19 l54 8 -5 -25 c-7 -38 36 -76 108 -96 94 -26 92
-26 75 -36 -13 -8 -13 -10 2 -10 9 0 18 5 20 12 3 7 11 9 24 3 10 -4 25 -7 31
-6 7 1 13 -3 13 -9 0 -5 -15 -11 -32 -11 -19 -1 -25 -3 -15 -6 25 -6 69 5 62
17 -3 4 31 10 76 12 44 2 83 0 86 -4 2 -5 13 -8 24 -8 11 0 17 5 14 10 -3 6 0
10 9 10 8 0 16 -4 18 -10 2 -6 15 -4 32 5 36 19 66 19 66 0 0 -15 46 -32 57
-21 4 3 -3 6 -14 6 -23 0 -40 28 -20 35 6 2 28 8 47 13 19 6 44 13 55 17 16 6
17 5 5 -4 -13 -9 -13 -11 3 -11 9 0 17 -6 17 -12 0 -10 2 -10 8 -1 8 13 69 3
65 -10 -2 -4 -3 -11 -3 -17 0 -5 -10 -10 -22 -11 -19 0 -20 -2 -6 -7 15 -6 16
-10 3 -32 -8 -14 -28 -54 -45 -90 -28 -56 -33 -62 -41 -45 -7 16 -8 14 -5 -11
3 -17 1 -35 -4 -40 -5 -5 -28 -45 -50 -89 -41 -78 -70 -121 -57 -82 4 11 3 16
-4 12 -6 -4 -8 -14 -4 -23 6 -17 -43 -122 -57 -122 -4 0 -8 -9 -8 -19 0 -11
-6 -26 -13 -33 -7 -7 -19 -28 -26 -45 -7 -18 -17 -31 -21 -28 -5 3 -11 -1 -13
-7 -4 -10 -8 -9 -16 2 -7 9 -11 11 -11 3 0 -7 7 -16 16 -21 10 -6 14 -14 9
-22 -6 -9 -9 -9 -17 1 -6 9 -7 5 -3 -12 4 -17 1 -32 -9 -42 -9 -8 -16 -23 -16
-31 0 -13 14 -16 85 -16 59 0 85 4 85 12 0 6 31 68 69 137 87 160 125 231 191
356 30 55 73 135 97 179 24 43 43 81 43 83 0 3 14 21 30 40 17 18 30 41 30 49
0 21 7 34 193 379 38 72 83 155 100 185 16 30 99 186 184 345 86 160 159 295
163 300 4 6 40 73 80 150 86 166 106 193 84 114 -22 -79 -29 -232 -15 -327 13
-86 63 -257 89 -307 12 -21 19 -68 23 -155 6 -138 19 -187 91 -336 55 -116
144 -270 179 -311 27 -31 27 -34 14 -66 -8 -19 -26 -85 -40 -148 -14 -62 -30
-116 -36 -120 -7 -4 -33 -10 -59 -13 -55 -7 -190 -52 -272 -90 -31 -14 -59
-26 -62 -26 -3 0 -81 -41 -173 -91 -208 -114 -298 -179 -346 -252 -60 -89 -60
-87 25 -87 68 0 76 2 87 24 7 13 34 39 59 59 43 32 215 137 225 137 2 0 7 -33
11 -72 4 -40 11 -90 17 -110 l10 -38 289 0 c160 0 290 1 290 3 0 1 -7 57 -15
122 -21 171 -20 253 4 279 17 18 49 131 92 326 5 25 22 62 36 82 32 47 26 74
-28 132 -75 82 -206 326 -248 461 -16 50 -21 94 -21 175 l0 107 101 64 c270
172 308 199 402 292 64 64 231 272 281 350 l37 58 46 -63 c161 -218 410 -456
600 -572 l61 -38 1 -117 c3 -255 -33 -384 -153 -558 -71 -103 -125 -150 -231
-204 -128 -64 -126 -61 -115 -204 14 -167 70 -402 104 -431 23 -21 96 -207 96
-247 0 -15 26 -17 290 -17 205 0 290 3 290 11 0 6 -6 37 -14 68 -8 31 -16 79
-18 106 l-3 50 45 -3 c83 -5 129 -22 159 -61 33 -42 81 -134 81 -156 0 -12 14
-15 74 -15 l75 0 -29 71 c-67 162 -128 235 -225 270 -55 21 -84 23 -375 28
-371 7 -358 4 -383 103 -32 132 -48 235 -38 261 8 22 59 67 75 67 15 0 116 73
157 113 52 52 148 192 193 282 43 85 66 206 73 383 l6 153 51 42 c28 23 56 46
62 52 18 17 84 117 84 127 0 6 11 7 24 4 16 -4 32 1 47 13 21 16 22 22 11 45
-6 14 -18 26 -27 26 -21 0 -19 15 21 190 33 139 36 168 35 280 -3 165 -30 324
-70 404 -49 100 -259 335 -377 422 -59 44 -233 119 -383 166 l-63 19 21 20
c41 38 16 109 -38 109 -64 0 -205 -47 -336 -112 -249 -125 -338 -182 -435
-279 -38 -39 -70 -68 -70 -64 0 6 56 115 130 250 44 80 163 302 215 400 54
102 88 166 186 345 37 69 99 186 138 260 l70 135 1189 3 1189 2 7 -30 c12 -63
94 -66 123 -5 l17 35 227 0 228 0 1 486 c0 452 -1 488 -18 527 -38 85 -153
175 -248 193 l-32 6 -7 128 c-9 171 -1 232 34 258 71 52 142 201 222 462 l44
145 0 210 c0 201 -1 212 -24 258 -13 26 -58 82 -100 123 -64 63 -95 84 -196
134 -78 39 -157 69 -225 87 -94 24 -123 27 -280 27 -161 0 -183 -2 -275 -28
-274 -77 -464 -244 -598 -526 -82 -172 -118 -453 -82 -625 29 -134 102 -225
290 -358 l67 -48 -6 -137 c-10 -200 -5 -189 -79 -197 -115 -13 -250 -83 -335
-175 -68 -73 -137 -191 -181 -310 -45 -122 -88 -370 -79 -455 l6 -45 -740 0
-739 0 94 93 c130 128 170 218 119 270 -14 13 -34 21 -57 21 -19 0 -35 0 -35
1 0 0 7 18 15 40 34 95 9 158 -63 158 -32 0 -64 -13 -139 -55 -54 -30 -99 -51
-101 -47 -2 5 5 39 16 76 27 96 12 133 -54 133 -37 0 -100 -43 -165 -112 l-47
-49 6 91 c6 103 -4 132 -49 150 -81 34 -151 -33 -268 -255 -24 -44 -46 -83
-50 -87 -3 -4 -26 26 -51 68 -56 94 -127 164 -169 164 -17 0 -41 -10 -56 -22
-36 -32 -46 -105 -44 -338 0 -107 0 -219 0 -247 l-1 -53 -56 0 -57 0 7 38 c3
20 9 102 12 182 16 355 -48 477 -277 528 -217 49 -275 57 -416 57 l-142 0 -6
30 c-21 112 -56 244 -66 251 -23 14 -7 53 34 87 181 149 293 313 362 527 30
92 31 120 24 370 l-4 145 28 24 c64 54 155 222 193 355 12 44 32 114 43 153
12 40 21 97 21 127 0 129 -101 366 -197 464 -29 29 -53 56 -53 61 0 12 -48 31
-64 25 -8 -3 -42 8 -76 25 l-62 31 -397 0 -396 -1 -105 -48z m430 11 c0 -28
-158 -166 -330 -288 -148 -106 -619 -399 -627 -391 -6 6 39 94 84 164 47 74
193 221 265 267 126 80 417 210 543 242 63 16 65 16 65 6z m205 -3 l43 -11
-67 -89 c-36 -48 -95 -129 -131 -179 -36 -50 -100 -125 -143 -166 -82 -79
-246 -205 -335 -258 -30 -17 -66 -38 -80 -47 -137 -81 -536 -259 -550 -245 -3
3 1 34 8 68 20 98 39 113 435 355 366 225 608 411 696 539 33 48 48 52 124 33z
m223 -84 c40 -19 72 -37 72 -40 0 -16 -112 -169 -190 -258 -137 -158 -180
-200 -249 -248 -81 -56 -79 -55 -121 -74 -19 -9 -69 -47 -110 -86 -101 -95
-165 -137 -335 -223 -140 -71 -239 -110 -357 -139 -50 -13 -59 -13 -69 0 -25
29 -48 35 -79 20 -25 -13 -29 -13 -34 0 -13 32 -4 42 50 63 93 34 362 158 472
216 56 30 148 86 205 124 213 144 331 254 450 420 140 195 191 260 206 260 9
0 49 -16 89 -35z m216 -121 c47 -46 131 -235 142 -316 l7 -48 -41 0 c-23 0
-70 10 -105 23 -66 24 -192 91 -202 107 -3 5 14 33 37 62 24 29 63 83 88 120
25 37 48 68 52 68 4 0 14 -7 22 -16z m-195 -339 c71 -45 180 -90 259 -106 34
-7 62 -17 62 -22 0 -5 -14 -53 -31 -108 l-31 -99 -44 0 c-116 0 -317 71 -428
150 l-44 32 91 94 c50 52 96 94 101 94 6 0 35 -16 65 -35z m4822 -134 c109
-23 153 -38 238 -80 179 -89 270 -198 287 -347 17 -136 -141 -661 -224 -750
-11 -12 -36 -31 -56 -43 -35 -22 -44 -39 -45 -91 -1 -52 1 -436 2 -460 2 -23
-5 -27 -109 -57 -133 -38 -305 -63 -429 -63 -95 1 -262 21 -306 38 -36 14 -49
81 -39 192 5 47 9 128 9 181 l1 97 -47 38 c-26 22 -74 58 -107 82 -154 108
-204 188 -213 336 -15 252 75 522 232 694 67 74 192 166 261 192 165 61 371
77 545 41z m-5084 -118 c129 -88 329 -163 436 -163 20 0 38 -4 41 -8 3 -5 -15
-38 -39 -74 l-44 -66 -53 13 c-168 40 -292 106 -438 233 l-44 39 27 37 c16 20
32 36 37 36 6 0 40 -21 77 -47z m-287 -148 c14 -17 66 -20 75 -5 3 5 36 -14
73 -44 152 -122 271 -183 425 -218 42 -10 46 -14 40 -32 -4 -12 -5 -79 -3
-151 6 -220 4 -244 -27 -330 -55 -153 -116 -250 -227 -361 -56 -55 -122 -115
-148 -132 -62 -43 -66 -63 -28 -141 28 -56 52 -152 91 -356 8 -45 18 -202 36
-587 l6 -138 -381 0 -381 0 -5 53 c-3 28 -8 169 -12 312 -4 143 -8 289 -9 325
-3 80 22 405 34 441 14 43 -10 82 -64 108 -56 26 -129 92 -200 181 -80 100
-113 167 -146 297 -51 197 -44 423 12 423 30 0 174 38 269 72 157 54 416 193
513 274 33 28 40 29 57 9z m5795 -1602 c19 -15 19 -15 1 -9 -19 7 -19 6 -2
-13 10 -11 24 -17 32 -14 8 3 14 -1 14 -10 0 -8 7 -20 15 -27 9 -7 14 -19 11
-27 -4 -9 -1 -11 6 -7 7 5 9 2 6 -7 -17 -45 -18 -57 -5 -62 10 -4 13 2 11 21
-2 15 4 2 12 -28 19 -64 23 -358 6 -369 -6 -3 -10 -20 -9 -36 0 -17 0 -54 -1
-82 l-2 -53 -138 0 -139 0 -1 35 c-1 20 2 34 7 31 4 -3 4 16 0 42 -11 65 -11
114 0 108 5 -4 7 2 4 12 -2 10 5 29 16 43 15 17 21 20 21 9 1 -8 7 3 14 25 10
33 9 43 -2 54 -7 7 -11 20 -8 28 4 8 1 11 -5 8 -6 -4 -19 1 -29 10 -16 15 -22
15 -35 5 -8 -7 -24 -10 -35 -7 -11 3 -18 2 -15 -3 2 -4 -4 -15 -15 -25 -11
-10 -25 -36 -32 -57 -6 -21 -15 -38 -20 -38 -5 0 -7 -4 -3 -9 6 -10 -10 -270
-21 -353 -5 -34 -11 -48 -23 -49 -13 -1 -12 -2 2 -6 14 -4 15 -8 7 -18 -16
-19 -900 -22 -900 -3 0 9 -4 8 -11 -2 -12 -16 -5 197 10 302 4 31 4 55 -1 52
-4 -3 -8 9 -8 26 0 44 21 121 31 114 5 -3 6 10 2 28 -3 18 -13 38 -22 43 -20
12 -111 23 -105 13 3 -5 0 -8 -6 -8 -6 0 -9 -4 -5 -9 3 -5 1 -12 -5 -16 -5 -3
-10 -18 -10 -33 0 -17 -3 -22 -8 -15 -4 7 -8 -9 -8 -35 1 -26 0 -84 -2 -129
-2 -76 -4 -83 -22 -83 -11 0 -20 4 -20 10 0 5 6 8 13 6 6 -1 9 -1 5 1 -5 3 -8
21 -8 41 0 21 -4 43 -9 50 -5 8 -6 -7 -3 -36 4 -42 1 -52 -14 -60 -20 -10 -93
-4 -76 7 6 3 -39 6 -99 6 -102 0 -109 1 -109 20 0 17 2 18 11 5 8 -12 10 -8 6
14 -5 32 17 98 25 75 3 -8 7 10 11 39 6 52 11 63 76 177 35 61 117 155 136
155 5 0 3 -5 -5 -10 -18 -12 -2 -12 25 0 11 5 14 9 8 9 -24 2 -13 17 24 35 31
15 35 15 23 1 -11 -13 -10 -15 4 -9 9 3 16 12 16 20 0 8 8 14 18 14 10 0 22 4
28 10 5 5 36 12 68 16 52 6 59 5 53 -9 -4 -12 7 -22 44 -40 27 -14 44 -28 37
-30 -8 -3 -6 -6 5 -6 9 -1 17 -8 17 -17 0 -11 5 -14 16 -10 9 3 21 6 27 7 7 1
1 5 -13 9 -24 8 -24 8 -2 9 12 1 25 -6 28 -14 4 -8 16 -15 28 -15 17 0 18 2 6
10 -14 9 75 5 128 -6 39 -8 321 -9 309 -2 -7 4 13 8 44 8 32 0 108 13 170 29
62 17 117 27 123 24 5 -4 6 -1 1 7 -6 9 0 11 26 5 19 -3 29 -3 22 2 -8 6 -4
12 13 20 22 10 24 10 13 -3 -6 -8 -9 -17 -6 -20 3 -3 13 6 22 19 11 17 29 28
56 32 21 4 36 11 33 16 -3 6 6 8 23 4 15 -3 22 -2 15 1 -6 3 -10 10 -6 15 7
13 16 11 39 -8z m-4957 -253 c145 -26 198 -51 232 -111 25 -43 25 -48 24 -259
0 -190 -2 -218 -18 -242 l-18 -28 -157 0 -156 0 -1 153 c-1 134 -13 315 -30
460 -3 26 -3 47 1 47 4 0 59 -9 123 -20z m-1790 -317 c6 -148 14 -280 18 -295
l6 -28 -229 0 -230 0 14 88 c27 178 111 377 175 414 21 12 215 86 229 87 3 1
10 -119 17 -266z m2816 205 c-3 -18 -14 -60 -24 -93 -30 -98 -33 -134 -15
-161 44 -68 113 -43 201 73 31 40 58 73 59 73 4 0 -2 -18 -29 -101 -21 -63
-18 -81 17 -104 37 -24 69 -11 142 59 66 63 171 134 181 123 3 -3 -13 -37 -35
-75 -51 -88 -55 -134 -12 -160 l29 -17 -69 -73 -69 -72 -393 0 -394 0 -2 235
c-1 129 1 235 4 235 11 0 67 -125 81 -183 26 -101 38 -117 90 -117 41 0 54 17
102 126 40 91 130 264 138 264 2 0 1 -15 -2 -32z m2411 -393 c55 -8 103 -15
108 -15 4 0 7 -27 7 -60 l0 -60 -179 0 c-177 0 -179 0 -185 23 -3 12 -6 36 -6
52 0 70 5 75 84 75 39 0 116 -7 171 -15z m-1335 -1415 c0 -5 -11 -53 -25 -107
-30 -116 -75 -212 -147 -313 -56 -77 -184 -268 -223 -330 -12 -19 -37 -60 -56
-90 -46 -76 -156 -223 -224 -300 -80 -90 -297 -310 -306 -310 -11 0 -24 86
-22 149 2 40 7 58 22 73 12 10 21 23 21 29 0 6 24 36 54 67 30 31 94 108 144
170 148 185 235 284 402 456 134 138 135 140 176 192 79 100 140 234 129 282
-5 24 -3 31 12 35 31 8 43 7 43 -3z m153 -49 c4 -4 -8 -57 -27 -117 -19 -60
-49 -158 -66 -219 -18 -60 -60 -171 -95 -245 -34 -74 -68 -151 -75 -170 -7
-19 -28 -58 -47 -86 -18 -28 -33 -57 -33 -65 0 -12 -63 -115 -79 -129 -3 -3
-33 -39 -66 -80 -89 -112 -172 -197 -250 -255 -71 -52 -338 -225 -349 -225
-11 0 -28 79 -22 104 5 19 13 26 30 26 17 0 66 44 182 163 184 187 274 303
419 533 57 90 118 183 135 207 80 112 170 250 193 299 14 29 40 104 58 166 32
111 33 113 58 107 14 -4 29 -10 34 -14z m-322 -62 c-31 -80 -85 -150 -246
-318 -82 -86 -168 -177 -191 -201 -46 -52 -283 -337 -313 -378 -40 -55 -31
-11 19 100 90 196 177 371 207 415 39 58 248 270 298 301 56 36 228 132 237
132 5 0 -1 -23 -11 -51z m551 -18 c111 -45 158 -70 219 -117 122 -94 299 -311
324 -397 18 -64 35 -176 35 -240 l0 -48 -57 32 c-111 62 -287 195 -383 289
-119 118 -235 256 -244 292 -3 15 -15 30 -26 33 -11 3 -20 12 -20 18 0 30 54
167 66 167 7 0 46 -13 86 -29z m-111 -348 c197 -234 351 -365 592 -506 53 -32
97 -60 97 -62 0 -3 -9 -47 -21 -98 -11 -50 -22 -101 -25 -112 -11 -57 -16 -75
-20 -75 -62 0 -543 396 -711 585 -78 87 -80 92 -50 166 14 35 33 92 43 127 9
34 18 62 19 62 1 0 35 -39 76 -87z m-124 -365 c180 -187 477 -435 656 -547
l67 -43 -22 -39 c-11 -21 -36 -52 -54 -70 -30 -29 -34 -30 -68 -19 -78 26
-256 161 -401 305 -94 93 -243 274 -284 344 l-32 54 22 53 c12 30 23 54 25 54
2 0 43 -41 91 -92z m-2096 53 c57 -10 117 -24 132 -30 16 -6 44 -11 63 -11 19
0 34 -4 34 -8 0 -10 59 -101 78 -121 26 -27 63 -114 69 -161 8 -69 -11 -140
-72 -265 -68 -138 -145 -234 -298 -370 -65 -57 -137 -124 -160 -148 -27 -29
-53 -46 -71 -49 -46 -5 -70 -47 -74 -127 -3 -58 16 -249 34 -341 4 -23 0 -26
-58 -43 -77 -23 -210 -37 -338 -36 -107 1 -162 10 -142 22 18 12 14 55 -8 77
-19 19 -19 20 1 132 25 134 23 270 -4 311 -11 17 -35 31 -69 41 -57 16 -84 40
-136 117 -77 114 -107 221 -100 358 8 147 58 235 203 356 322 268 591 355 916
296z"/>
<path d="M2584 8116 c-17 -27 -16 -67 2 -73 7 -2 14 8 18 22 4 16 13 25 27 25
17 0 20 -5 17 -37 -2 -28 -9 -41 -25 -48 -30 -13 -29 -41 1 -49 26 -6 39 -37
30 -73 -8 -32 -42 -30 -50 2 -6 25 -28 33 -39 15 -10 -16 22 -78 44 -85 53
-16 88 32 77 107 -4 24 -6 54 -5 68 8 122 -2 150 -52 150 -19 0 -34 -8 -45
-24z"/>
<path d="M2782 7938 c3 -101 6 -123 18 -123 12 0 15 16 16 80 1 112 2 115 23
115 11 0 21 8 24 18 2 9 4 -27 4 -81 1 -118 11 -136 76 -133 l42 2 0 119 c0
106 -2 120 -17 123 -16 3 -18 -6 -18 -81 0 -93 -5 -117 -25 -117 -20 0 -25 24
-25 115 l0 82 -60 2 -61 1 3 -122z"/>
<path d="M3104 8052 c-54 -36 -49 -220 7 -237 41 -13 87 24 73 59 -8 20 -20
20 -28 1 -8 -21 -33 -19 -46 4 -18 34 -11 41 35 41 45 0 45 0 45 35 0 56 -25
105 -52 105 -13 0 -28 -4 -34 -8z"/>
<path d="M3225 8044 c-11 -11 -15 -30 -13 -58 2 -33 9 -44 35 -61 20 -13 32
-28 33 -42 0 -29 -25 -30 -40 -3 -13 24 -40 27 -40 4 0 -19 19 -56 34 -66 36
-25 86 13 86 65 0 37 -12 55 -52 80 -31 19 -36 42 -12 51 11 4 18 -1 21 -14 3
-12 14 -20 25 -20 17 0 19 4 13 27 -4 16 -11 34 -17 40 -15 18 -53 16 -73 -3z"/>
<path d="M3445 7468 c-3 -8 -4 -86 -3 -173 3 -143 5 -160 21 -163 15 -3 17 6
17 81 0 93 5 117 25 117 20 0 25 -24 25 -116 0 -68 3 -84 15 -84 12 0 15 19
15 108 0 122 -10 148 -53 140 -25 -5 -26 -3 -29 45 -3 49 -22 74 -33 45z"/>
<path d="M4477 7474 c-4 -4 -7 -28 -7 -54 0 -44 -2 -47 -23 -43 -38 7 -59 -27
-64 -104 -3 -52 0 -76 14 -103 17 -32 22 -35 63 -35 l45 0 0 169 c0 159 -5
192 -28 170z"/>
<path d="M4895 7468 c-3 -8 -4 -86 -3 -173 3 -134 5 -160 18 -160 12 0 15 16
16 81 0 45 4 88 7 98 9 24 37 20 38 -6 0 -13 2 -57 2 -98 2 -59 5 -75 17 -75
12 0 16 19 18 99 3 113 -11 152 -53 143 -22 -4 -24 -1 -27 46 -3 49 -22 74
-33 45z"/>
<path d="M2710 7254 c0 -104 2 -124 15 -124 12 0 15 16 15 88 0 92 8 119 34
109 12 -5 16 -26 18 -99 2 -75 6 -93 18 -93 12 0 15 18 18 95 3 124 -7 144
-71 147 l-47 2 0 -125z"/>
<path d="M2878 7370 c-9 -6 -21 -34 -28 -64 -23 -110 25 -201 88 -167 43 23
54 162 17 218 -16 24 -48 29 -77 13z"/>
<path d="M3050 7363 c0 -15 19 -124 36 -211 8 -40 28 -18 45 49 l16 64 13 -63
c12 -59 24 -81 37 -68 6 5 43 208 43 234 0 19 -28 14 -33 -5 -3 -10 -9 -40
-12 -68 -8 -55 -9 -55 -25 28 -15 78 -35 76 -51 -5 l-13 -63 -8 40 c-15 77
-18 85 -33 85 -8 0 -15 -8 -15 -17z"/>
<path d="M3343 7372 c-18 -11 -32 -55 -26 -85 3 -16 18 -34 39 -46 21 -13 34
-28 34 -41 0 -27 -36 -27 -43 0 -3 11 -13 20 -22 20 -14 0 -16 -6 -11 -32 16
-80 99 -76 113 5 5 35 2 41 -36 76 -44 41 -50 55 -25 65 11 4 18 -1 21 -14 5
-19 23 -26 36 -14 8 8 -11 57 -26 66 -7 4 -19 8 -27 8 -8 0 -20 -4 -27 -8z"/>
<path d="M3645 7262 c-5 -89 -4 -117 6 -123 24 -14 29 2 29 92 0 72 3 91 15
96 25 9 30 -4 35 -100 4 -73 8 -92 20 -92 13 0 15 18 13 110 -3 124 -8 134
-73 133 l-37 0 -8 -116z"/>
<path d="M3804 7355 c-24 -37 -24 -163 0 -200 13 -20 24 -26 42 -22 19 3 24 0
24 -15 0 -26 -27 -34 -49 -14 -10 9 -21 13 -24 9 -15 -14 -6 -43 18 -59 21
-13 31 -15 50 -6 35 16 47 70 43 207 l-3 120 -42 3 c-36 3 -44 -1 -59 -23z"/>
<path d="M4113 7368 c-38 -49 -42 -163 -8 -214 19 -30 55 -31 81 -3 19 21 32
126 20 173 -12 49 -69 75 -93 44z"/>
<path d="M4555 7360 c-37 -41 -36 -170 2 -212 23 -26 59 -23 79 8 22 32 7 52
-25 32 -20 -11 -24 -11 -37 7 -21 28 -12 40 34 43 42 3 42 3 42 43 0 83 -52
127 -95 79z"/>
<path d="M4687 7362 c-21 -23 -22 -62 -3 -62 8 0 18 9 21 21 8 24 25 21 36 -8
7 -18 3 -23 -21 -28 -16 -3 -33 -12 -38 -18 -17 -22 -20 -72 -7 -105 13 -31
16 -32 62 -29 l47 3 -3 99 c-3 110 -16 145 -55 145 -12 0 -30 -8 -39 -18z"/>
<path d="M3104 6792 c-16 -11 -34 -48 -34 -71 0 -12 -4 -21 -10 -21 -13 0 -13
-33 0 -46 5 -5 10 -52 12 -104 2 -76 6 -95 18 -95 12 0 16 18 18 95 2 70 7 97
17 103 19 10 19 36 0 43 -8 4 -15 17 -15 30 0 15 6 24 15 24 9 0 15 9 15 25 0
25 -15 32 -36 17z"/>
<path d="M2710 6573 c0 -95 3 -124 13 -121 8 3 14 35 17 96 5 95 10 108 34 99
12 -5 16 -27 18 -99 2 -75 6 -93 18 -93 12 0 15 18 15 106 0 126 -7 139 -71
137 l-44 -1 0 -124z"/>
<path d="M2877 6688 c-41 -32 -41 -179 1 -220 25 -25 66 -18 84 15 19 35 16
158 -5 190 -19 29 -52 35 -80 15z"/>
<path d="M3166 6678 c-20 -28 -21 -58 -2 -58 7 0 20 10 28 22 16 24 38 17 38
-12 0 -12 -12 -22 -34 -30 -39 -12 -46 -25 -46 -79 0 -50 24 -71 75 -68 l40 3
0 108 c0 95 -2 109 -19 122 -29 21 -63 17 -80 -8z"/>
<path d="M3476 6690 c-7 -11 -1 -229 6 -235 18 -19 28 13 28 94 0 65 4 92 14
100 24 20 36 -18 36 -113 0 -70 3 -86 15 -86 24 0 22 211 -2 233 -17 14 -90
20 -97 7z"/>
<path d="M3633 6673 c-26 -40 -25 -174 2 -203 13 -14 28 -20 42 -17 24 4 27
-1 17 -27 -8 -20 -28 -21 -44 -1 -15 18 -30 11 -30 -15 0 -30 45 -55 75 -42
35 16 47 70 43 207 l-3 119 -42 3 c-37 2 -45 -1 -60 -24z"/>
<path d="M3890 6574 c0 -104 2 -124 15 -124 12 0 15 16 15 88 0 93 8 119 34
109 13 -5 16 -24 16 -102 0 -78 3 -95 15 -95 17 0 17 -2 17 117 0 117 -8 133
-67 131 l-45 -1 0 -123z"/>
<path d="M4173 6674 c-25 -39 -29 -127 -8 -175 24 -53 59 -63 92 -25 40 47 33
189 -11 218 -23 16 -56 7 -73 -18z"/>
<path d="M4290 6686 c0 -32 41 -221 50 -230 6 -6 13 -6 19 0 11 12 55 234 47
241 -16 16 -34 -11 -40 -61 -9 -72 -22 -79 -30 -16 -4 28 -9 57 -12 65 -8 19
-34 20 -34 1z"/>
<path d="M4454 6692 c-23 -15 -36 -56 -37 -112 0 -67 17 -117 44 -125 44 -14
94 30 68 61 -11 14 -13 13 -21 0 -12 -22 -35 -20 -48 3 -18 34 -11 41 35 41
45 0 45 0 45 35 0 56 -25 105 -52 105 -13 0 -28 -4 -34 -8z"/>
<path d="M3060 5943 l0 -168 45 -2 c64 -2 80 24 80 128 0 85 -17 119 -62 119
-21 0 -23 4 -23 45 0 38 -3 45 -20 45 -19 0 -20 -7 -20 -167z"/>
<path d="M3702 5943 l3 -167 41 -3 c64 -4 79 19 79 122 0 92 -16 125 -62 125
-21 0 -23 4 -23 45 0 39 -3 45 -20 45 -20 0 -20 -5 -18 -167z"/>
<path d="M4120 5946 c0 -106 4 -167 11 -171 15 -10 18 -4 20 43 2 23 6 42 10
42 4 0 15 -20 25 -44 12 -28 24 -43 34 -41 20 3 19 10 -9 78 l-24 59 21 44
c12 25 22 49 22 54 0 22 -32 8 -48 -20 -24 -42 -34 -37 -32 18 3 86 1 102 -15
102 -13 0 -15 -25 -15 -164z"/>
<path d="M4400 6062 c0 -46 -1 -48 -27 -47 -36 0 -63 -51 -63 -120 0 -28 8
-66 18 -85 16 -32 21 -35 62 -35 l45 0 3 168 c2 162 2 167 -18 167 -17 0 -20
-6 -20 -48z"/>
<path d="M4820 6066 c0 -41 -2 -45 -27 -48 -37 -4 -63 -56 -63 -123 0 -28 8
-66 18 -85 16 -32 21 -35 62 -35 l45 0 3 168 c2 162 2 167 -18 167 -17 0 -20
-6 -20 -44z"/>
<path d="M2710 5893 c0 -103 2 -123 15 -123 12 0 15 16 15 88 0 92 8 119 34
109 12 -5 16 -26 18 -99 2 -75 6 -93 18 -93 12 0 15 18 15 106 0 125 -6 137
-70 137 l-45 -1 0 -124z"/>
<path d="M2878 6010 c-24 -15 -41 -107 -29 -160 20 -90 84 -107 115 -30 45
112 -11 233 -86 190z"/>
<path d="M3353 6005 c-2 -6 -2 -60 -1 -121 2 -89 6 -109 18 -109 12 0 16 19
20 95 4 79 8 95 22 98 15 3 18 -8 20 -95 3 -84 5 -98 21 -101 15 -3 17 7 17
100 0 127 -10 148 -71 145 -23 -1 -43 -6 -46 -12z"/>
<path d="M3516 6001 c-20 -22 -32 -112 -22 -165 8 -44 29 -66 63 -66 19 0 24
-4 19 -16 -3 -9 -6 -18 -6 -20 0 -12 -41 -2 -46 11 -8 19 -24 9 -24 -14 0 -28
35 -54 63 -47 42 10 52 47 52 195 l0 136 -41 2 c-30 2 -46 -3 -58 -16z"/>
<path d="M3868 6003 c-24 -29 -29 -53 -12 -60 9 -3 21 3 30 16 18 26 34 19 34
-15 0 -19 -5 -24 -24 -24 -34 0 -51 -26 -51 -77 0 -55 20 -72 77 -68 l41 3 -2
98 c-2 109 -16 144 -55 144 -12 0 -30 -8 -38 -17z"/>
<path d="M4003 5994 c-25 -39 -29 -140 -6 -184 32 -62 103 -43 103 27 0 29
-26 30 -33 2 -7 -28 -39 -21 -47 10 -10 44 3 115 22 119 12 2 21 -6 28 -23 11
-30 30 -25 30 8 0 62 -65 89 -97 41z"/>
<path d="M4481 5994 c-25 -32 -30 -80 -16 -161 11 -64 70 -86 101 -37 22 32 7
52 -25 32 -19 -11 -24 -11 -37 6 -25 34 -17 45 34 48 50 3 49 1 37 70 -11 69
-57 89 -94 42z"/>
<path d="M4616 5998 c-19 -27 -21 -58 -3 -58 7 0 18 9 25 21 11 16 16 18 28 9
23 -20 16 -40 -17 -47 -24 -4 -35 -15 -46 -41 -27 -66 3 -113 70 -109 l42 2
-3 105 c-4 113 -15 140 -58 140 -13 0 -30 -10 -38 -22z"/>
<path d="M4952 5853 c2 -122 6 -167 16 -171 8 -2 12 10 12 42 0 43 1 45 32 48
24 2 36 10 46 30 17 36 17 149 0 184 -12 25 -19 29 -61 31 l-47 2 2 -166z"/>
<path d="M5111 5994 c-17 -21 -21 -41 -21 -99 0 -58 4 -78 21 -99 27 -34 63
-34 85 0 22 32 7 52 -25 33 -23 -15 -35 -8 -46 29 -6 21 -3 22 39 22 46 0 46
0 46 35 0 20 -7 51 -14 70 -19 44 -55 48 -85 9z"/>
<path d="M5258 6008 c-43 -34 -47 -173 -7 -217 39 -41 80 -20 100 51 27 103
-34 212 -93 166z"/>
<path d="M5374 6006 c-2 -6 -3 -81 -2 -166 3 -130 5 -155 18 -155 10 0 17 14
20 45 4 40 8 45 30 45 33 0 60 53 60 120 0 28 -8 66 -18 85 -15 31 -22 35 -60
37 -26 1 -45 -3 -48 -11z"/>
<path d="M5607 6008 c-59 -46 -43 -227 21 -236 28 -4 62 23 62 50 0 19 -15 24
-25 8 -10 -16 -42 -12 -49 6 -14 36 -7 44 40 44 l47 0 -7 52 c-11 77 -46 108
-89 76z"/>
<path d="M601 4343 c2 -5 17 -46 34 -91 16 -45 35 -82 41 -82 6 0 20 30 31 68
l21 67 16 -55 c20 -69 32 -88 45 -75 13 13 72 167 66 173 -14 14 -36 -15 -53
-70 l-19 -63 -20 65 c-11 36 -26 65 -34 65 -7 0 -21 -29 -33 -64 l-20 -64 -21
64 c-15 43 -28 65 -39 67 -10 2 -17 0 -15 -5z"/>
<path d="M910 4343 c-17 -6 -40 -32 -40 -45 0 -14 27 -9 40 8 17 20 74 15 78
-8 3 -17 -7 -22 -70 -33 -49 -8 -66 -36 -43 -71 17 -26 54 -32 99 -14 17 6 26
6 26 0 0 -6 7 -10 15 -10 23 0 13 149 -11 167 -18 13 -66 16 -94 6z"/>
<path d="M1590 4344 c-17 -7 -40 -33 -40 -46 0 -14 27 -9 40 8 20 23 75 15 75
-11 0 -16 -9 -21 -50 -27 -45 -6 -75 -26 -75 -50 0 -4 9 -17 20 -28 22 -22 54
-25 94 -10 17 6 26 6 26 0 0 -6 6 -10 14 -10 11 0 13 16 9 78 -2 42 -8 81 -12
85 -11 11 -82 18 -101 11z"/>
<path d="M1960 4343 c-17 -6 -40 -32 -40 -45 0 -14 27 -9 40 8 19 22 75 15 75
-10 0 -11 -8 -20 -20 -22 -65 -9 -86 -17 -95 -34 -25 -46 32 -82 96 -62 19 6
34 6 34 1 0 -5 7 -9 15 -9 23 0 12 150 -12 168 -17 12 -65 15 -93 5z"/>
<path d="M2680 4225 c0 -104 3 -125 15 -125 16 0 30 42 21 65 -4 12 1 14 33 9
72 -11 118 63 83 135 -17 37 -52 49 -90 31 -18 -8 -28 -8 -30 -1 -2 6 -10 11
-18 11 -11 0 -14 -24 -14 -125z"/>
<path d="M3189 4321 c-82 -82 30 -202 118 -127 39 34 39 98 0 132 -39 33 -81
31 -118 -5z"/>
<path d="M4840 4060 l0 -200 25 0 25 0 0 103 c0 105 7 127 41 127 25 0 29 -20
29 -131 l0 -99 26 0 26 0 -4 126 c-3 120 -4 127 -28 146 -18 14 -34 18 -57 15
l-33 -6 0 60 c0 56 -1 59 -25 59 l-25 0 0 -200z"/>
<path d="M6850 4060 l0 -200 25 0 25 0 0 200 0 200 -25 0 -25 0 0 -200z"/>
<path d="M4610 4210 c0 -28 2 -30 40 -30 l40 0 0 -160 0 -160 25 0 25 0 0 159
0 160 43 3 c37 3 42 6 42 28 0 25 0 25 -107 28 l-108 3 0 -31z"/>
<path d="M6321 4218 c-5 -13 -32 -72 -60 -132 -28 -59 -51 -114 -51 -122 0
-10 15 -14 59 -14 l60 0 3 -42 c2 -36 7 -44 26 -46 20 -3 22 1 22 42 0 39 3
46 20 46 15 0 20 7 20 25 0 18 -5 25 -20 25 -19 0 -20 7 -20 120 l0 120 -25 0
c-17 0 -28 -7 -34 -22z"/>
<path d="M5081 4134 c-64 -46 -69 -187 -9 -251 41 -43 128 -18 128 36 0 30
-19 36 -41 12 -21 -23 -28 -25 -45 -13 -11 7 -34 45 -34 56 0 3 30 6 66 6 l67
0 -6 57 c-3 32 -14 68 -25 82 -23 32 -68 38 -101 15z"/>
<path d="M5230 4004 l0 -144 25 0 25 0 0 103 c0 107 7 127 43 127 14 0 18 6
15 28 -3 25 -6 27 -55 29 l-53 2 0 -145z"/>
<path d="M5382 4128 c-43 -47 -55 -137 -27 -205 29 -70 90 -85 139 -34 26 27
26 29 10 45 -15 16 -18 16 -39 -4 -26 -24 -48 -19 -64 16 -6 14 -11 27 -11 29
0 2 28 5 63 7 57 3 62 5 65 27 6 37 -19 110 -42 126 -30 22 -69 18 -94 -7z"/>
<path d="M5662 4133 c-12 -10 -24 -30 -28 -45 -9 -41 19 -48 52 -13 20 22 27
25 39 15 8 -7 15 -21 15 -31 0 -14 -7 -19 -29 -19 -73 0 -113 -102 -61 -157
16 -18 31 -21 86 -21 l66 0 -6 37 c-3 20 -6 73 -6 119 0 75 -2 85 -25 107 -29
30 -74 33 -103 8z"/>
<path d="M5830 4004 l0 -144 25 0 25 0 0 103 c0 106 7 127 42 127 13 0 18 8
18 29 0 29 -1 29 -55 29 l-55 -1 0 -143z"/>
<path d="M5988 4136 c-41 -31 -62 -147 -39 -209 25 -65 98 -88 139 -44 25 27
27 40 9 55 -10 9 -17 6 -30 -8 -9 -11 -20 -20 -25 -20 -15 0 -40 25 -47 47 -6
21 -3 22 57 25 58 3 63 5 66 27 6 37 -19 110 -42 126 -25 18 -65 19 -88 1z"/>
<path d="M6530 4004 c0 -145 0 -145 23 -142 21 3 22 8 27 108 5 103 5 105 33
118 20 10 27 20 25 35 -3 19 -10 22 -55 24 l-53 2 0 -145z"/>
<path d="M6657 4143 c-4 -3 -7 -57 -7 -118 0 -97 3 -116 20 -138 18 -23 27
-25 85 -25 l65 0 0 144 0 144 -25 0 -25 0 0 -104 c0 -82 -3 -108 -16 -120 -8
-9 -17 -16 -19 -16 -2 0 -11 7 -19 16 -13 12 -16 38 -16 120 0 94 -2 104 -18
104 -10 0 -22 -3 -25 -7z"/>
<path d="M6983 4138 c-29 -14 -53 -76 -53 -138 0 -87 35 -140 93 -140 42 0 82
38 72 69 -8 26 -17 26 -40 1 -29 -33 -54 -23 -69 27 -7 21 -4 22 56 25 72 3
78 13 58 88 -19 71 -61 95 -117 68z"/>
<path d="M7152 4130 c-16 -15 -22 -32 -22 -64 0 -48 14 -65 73 -89 39 -17 47
-36 23 -56 -18 -15 -56 2 -56 24 0 9 -10 15 -25 15 -29 0 -32 -17 -10 -59 25
-50 91 -57 130 -15 45 49 27 112 -41 144 -30 14 -44 26 -44 40 0 28 46 28 53
0 5 -20 41 -28 51 -11 9 13 -12 62 -32 77 -26 20 -75 17 -100 -6z"/>
<path d="M2220 3875 c0 -118 1 -125 20 -125 18 0 20 7 20 64 0 70 12 90 52 84
21 -3 23 -8 26 -75 3 -65 5 -73 22 -73 18 0 20 7 20 63 0 34 -6 73 -13 87 -14
28 -54 38 -87 20 -19 -10 -20 -8 -20 35 0 38 -3 45 -20 45 -19 0 -20 -7 -20
-125z"/>
<path d="M3050 3953 c0 -37 -3 -44 -12 -35 -13 13 -47 16 -73 6 -21 -8 -45
-56 -45 -89 0 -52 93 -111 116 -74 5 8 9 7 14 -1 4 -7 14 -11 21 -8 21 8 14
248 -7 248 -10 0 -14 -13 -14 -47z"/>
<path d="M1193 3983 c-7 -3 -13 -16 -13 -29 0 -21 -4 -24 -38 -24 -21 0 -43
-5 -50 -12 -9 -9 -12 -9 -12 0 0 7 -7 12 -15 12 -12 0 -15 -17 -15 -90 0 -83
2 -90 20 -90 17 0 19 8 22 73 3 70 4 72 31 75 15 2 27 8 27 13 0 6 7 4 15 -5
10 -9 15 -34 15 -73 0 -64 11 -83 47 -83 28 0 30 20 3 27 -17 5 -20 14 -20 64
0 46 3 59 15 59 8 0 15 7 15 15 0 8 -6 15 -14 15 -9 0 -16 12 -18 28 -2 18 -8
27 -15 25z"/>
<path d="M460 3805 c0 -115 1 -125 19 -125 15 0 18 7 16 45 -3 40 -1 44 15 35
70 -38 138 45 105 127 -17 41 -74 56 -105 28 -18 -16 -20 -17 -20 -2 0 10 -7
17 -15 17 -13 0 -15 -21 -15 -125z"/>
<path d="M660 3805 c0 -115 2 -125 18 -125 16 0 18 7 17 43 l-1 43 38 -10 c35
-9 41 -8 64 15 37 38 38 103 1 135 -33 28 -54 30 -85 8 -20 -14 -22 -14 -22 0
0 9 -7 16 -15 16 -13 0 -15 -21 -15 -125z"/>
<path d="M879 3901 c-55 -56 -22 -150 53 -151 89 -1 127 91 66 158 -31 33 -82
30 -119 -7z"/>
<path d="M1370 3840 c0 -80 2 -90 18 -90 15 0 18 8 16 49 -2 63 14 96 46 96
24 0 25 -3 28 -72 3 -65 5 -73 22 -73 18 0 20 7 20 63 0 65 11 87 41 87 26 0
33 -17 34 -85 0 -48 4 -60 18 -63 15 -3 17 6 17 67 0 58 -4 75 -20 91 -23 23
-48 25 -76 6 -17 -12 -22 -12 -39 0 -25 19 -54 18 -77 -3 -17 -15 -18 -15 -18
0 0 10 -7 17 -15 17 -12 0 -15 -17 -15 -90z"/>
<path d="M1670 3860 c0 -57 4 -74 20 -90 22 -22 69 -27 88 -8 9 9 12 9 12 0 0
-7 8 -12 18 -12 15 0 17 11 17 90 0 78 -2 90 -17 90 -14 0 -18 -12 -20 -67 -3
-64 -5 -68 -31 -77 -38 -14 -46 -2 -49 77 -2 57 -5 67 -20 67 -16 0 -18 -9
-18 -70z"/>
<path d="M2565 3908 c-15 -14 -28 -38 -32 -60 -5 -32 -1 -41 25 -68 38 -38 91
-41 122 -8 11 12 20 25 20 30 0 14 -27 9 -40 -7 -24 -29 -90 -13 -90 22 0 9
19 13 70 13 39 0 70 2 70 5 0 3 -6 21 -14 40 -24 58 -84 73 -131 33z"/>
<path d="M2774 3920 c-21 -8 -39 -38 -30 -48 6 -5 23 2 47 19 20 15 69 4 69
-15 0 -17 -22 -26 -61 -26 -30 0 -69 -30 -69 -53 0 -38 75 -61 121 -37 13 7
19 7 19 0 0 -5 7 -10 15 -10 23 0 12 149 -12 168 -19 14 -68 15 -99 2z"/>
<path d="M3430 3910 c-36 -36 -38 -91 -6 -135 11 -15 26 -20 60 -20 46 0 57
-10 34 -33 -17 -17 -54 -15 -72 3 -19 19 -36 19 -36 1 0 -42 90 -60 131 -27
21 17 24 28 27 125 4 90 2 106 -11 106 -8 0 -17 -6 -20 -12 -4 -10 -7 -10 -18
0 -20 18 -66 15 -89 -8z"/>
</g>
</svg>
